<svg width="46" height="32" viewBox="0 0 46 32" fill="none" xmlns="http://www.w3.org/2000/svg">
<path fill-rule="evenodd" clip-rule="evenodd" d="M38.3918 10.9477C38.7279 10.1945 39.3531 9.71471 40.0676 9.77674L40.1565 9.78446L40.2419 9.81037C41.6632 10.2416 42.8358 10.7222 43.7322 11.2363C44.6286 11.7505 45.2489 12.2982 45.5657 12.8639C45.7047 13.1121 45.8045 13.3958 45.8095 13.7149C45.8144 14.035 45.7229 14.3179 45.5948 14.5619C45.3003 15.1226 44.7048 15.6722 43.8171 16.1938C42.0416 17.2368 39.1719 18.1236 35.5478 18.7492C31.9236 19.3748 27.6967 19.713 23.3675 19.7237C19.0383 19.7344 14.7881 19.4173 11.1201 18.8098C7.4522 18.2023 4.51996 17.3299 2.67067 16.2958C1.74609 15.7788 1.11152 15.2322 0.777265 14.6731C0.628969 14.425 0.519489 14.1432 0.502338 13.8261C0.484988 13.5052 0.565999 13.2205 0.685613 12.9752C0.962144 12.4081 1.54336 11.8574 2.40309 11.3389C3.25107 10.8274 4.36996 10.3474 5.73459 9.9138C5.98962 9.80122 6.38957 9.71908 6.79383 9.94923C7.22966 10.1973 7.38232 10.6501 7.435 10.9966C7.54081 11.6922 7.37794 12.7935 6.86663 14.4822L5.2302 13.9867C5.56955 12.8659 5.70421 12.1483 5.74343 11.7115C4.7038 12.0691 3.88755 12.4402 3.28612 12.803C2.55099 13.2463 2.29076 13.5845 2.22244 13.7246C2.21956 13.7305 2.21722 13.7356 2.21533 13.74C2.22075 13.7523 2.22987 13.7708 2.24483 13.7958C2.35943 13.9875 2.69995 14.3533 3.50513 14.8035C5.09865 15.6945 7.80228 16.5272 11.3995 17.123C14.96 17.7127 19.1141 18.0245 23.3633 18.0139C27.6128 18.0034 31.7423 17.671 35.257 17.0643C38.812 16.4506 41.4412 15.6065 42.951 14.7195C43.7138 14.2714 43.9991 13.923 44.081 13.767C44.0869 13.7558 44.0912 13.7467 44.0943 13.7396C44.0901 13.73 44.0836 13.7166 44.0739 13.6994C43.9747 13.5222 43.6591 13.1655 42.8815 12.7195C42.1829 12.3188 41.2288 11.913 40.0126 11.5292C39.9954 11.5573 39.9753 11.5949 39.9532 11.6445C39.8052 11.9761 39.6563 12.7103 39.8198 14.1371L38.1211 14.3317C37.9426 12.773 38.0636 11.6832 38.3918 10.9477ZM40.0757 11.4522C40.0759 11.4529 40.0721 11.4566 40.0637 11.4611C40.0713 11.4538 40.0755 11.4515 40.0757 11.4522ZM5.73396 11.2031C5.73409 11.2029 5.73518 11.2058 5.73685 11.2126C5.73467 11.2066 5.73384 11.2033 5.73396 11.2031Z" fill="#CC0029"/>
<path fill-rule="evenodd" clip-rule="evenodd" d="M2.36219 25.6172L2.20965 14.1567L0.5 14.1795L0.659179 26.1388L0.77716 26.3361C1.11142 26.8953 1.74599 27.4419 2.67056 27.9589C4.51986 28.9929 7.4521 29.8653 11.12 30.4728C14.788 31.0803 19.0382 31.3975 23.3674 31.3868C27.6966 31.376 31.9235 31.0378 35.5477 30.4122C39.1718 29.7867 42.0415 28.8999 43.817 27.8568C44.7047 27.3353 45.3002 26.7856 45.5947 26.225L45.6927 26.0383V14.1681H43.9829V25.5745C43.8344 25.7592 43.5305 26.0421 42.9509 26.3826C41.4411 27.2696 38.8119 28.1137 35.2569 28.7274C31.7422 29.3341 27.6127 29.6664 23.3632 29.677C19.114 29.6875 14.9599 29.3757 11.3994 28.786C7.80218 28.1902 5.09854 27.3576 3.50502 26.4665C2.88461 26.1196 2.54007 25.8228 2.36219 25.6172Z" fill="#CC0029"/>
<path d="M28.1434 13.3926C27.3642 12.4976 26.9746 11.3021 26.9746 9.80601C26.9746 8.30994 27.3642 7.11664 28.1434 6.22613C28.9226 5.33115 29.8777 4.88367 31.0087 4.88367C32.1396 4.88367 33.0947 5.33115 33.8739 6.22613C34.6531 7.11664 35.0427 8.30994 35.0427 9.80601C35.0427 11.3021 34.6531 12.4976 33.8739 13.3926C33.0947 14.2831 32.1396 14.7284 31.0087 14.7284C29.8777 14.7284 28.9226 14.2831 28.1434 13.3926ZM32.7919 12.4175C33.2906 11.7807 33.54 10.9103 33.54 9.80601C33.54 8.70177 33.2906 7.83351 32.7919 7.20124C32.2977 6.56898 31.7033 6.25284 31.0087 6.25284C30.3141 6.25284 29.7174 6.56898 29.2187 7.20124C28.7245 7.83351 28.4774 8.70177 28.4774 9.80601C28.4774 10.9103 28.7245 11.7807 29.2187 12.4175C29.7174 13.0497 30.3141 13.3659 31.0087 13.3659C31.7033 13.3659 32.2977 13.0497 32.7919 12.4175Z" fill="#CC0029"/>
<path d="M22.1788 8.16328C23.007 8.16328 23.7372 8.49054 24.3695 9.14508C25.0062 9.79516 25.3245 10.5632 25.3245 11.4493C25.3245 12.3443 24.9906 13.1146 24.3227 13.7602C23.6593 14.4058 22.8534 14.7286 21.9049 14.7286C20.9565 14.7286 20.1484 14.4058 19.4805 13.7602C18.8171 13.1146 18.4854 12.3443 18.4854 11.4493C18.4854 11.0842 18.5499 10.7191 18.679 10.354C18.8082 9.98884 18.9351 9.71501 19.0597 9.53245L19.2401 9.25862L21.9784 5.01752H23.4812L21.3573 8.30353C21.5844 8.21003 21.8582 8.16328 22.1788 8.16328ZM23.3609 12.8519C23.7617 12.4645 23.962 11.997 23.962 11.4493C23.962 10.9016 23.7617 10.4341 23.3609 10.0467C22.9647 9.65935 22.4793 9.46566 21.9049 9.46566C21.3306 9.46566 20.8452 9.65935 20.4489 10.0467C20.0527 10.4341 19.8545 10.9016 19.8545 11.4493C19.8545 11.997 20.0527 12.4645 20.4489 12.8519C20.8452 13.2392 21.3306 13.4329 21.9049 13.4329C22.4793 13.4329 22.9647 13.2392 23.3609 12.8519Z" fill="#CC0029"/>
<path d="M15.4067 9.532C15.4513 9.54981 15.5114 9.57652 15.5871 9.61214C15.6672 9.64331 15.8052 9.72346 16.0012 9.85258C16.1971 9.97726 16.3707 10.122 16.5221 10.2867C16.6735 10.4515 16.8093 10.6808 16.9295 10.9746C17.0542 11.2641 17.1165 11.5824 17.1165 11.9297C17.1165 12.7134 16.8026 13.3768 16.1748 13.92C15.5514 14.4588 14.7255 14.7282 13.6969 14.7282C13.2606 14.7282 12.8465 14.677 12.4547 14.5746C12.0628 14.4677 11.7378 14.343 11.4795 14.2005C11.2257 14.0536 11.0053 13.9067 10.8183 13.7597C10.6313 13.6128 10.4955 13.4904 10.4109 13.3924L10.2773 13.2254L11.2324 12.2703C11.2502 12.2971 11.2814 12.3371 11.3259 12.3906C11.3749 12.4395 11.4773 12.5286 11.6332 12.6577C11.789 12.7824 11.9515 12.8937 12.1207 12.9917C12.2944 13.0852 12.5215 13.172 12.802 13.2521C13.0869 13.3278 13.3853 13.3657 13.6969 13.3657C14.2891 13.3657 14.7567 13.2232 15.0995 12.9382C15.4424 12.6488 15.6138 12.2904 15.6138 11.8629C15.6138 11.431 15.4424 11.0726 15.0995 10.7876C14.7567 10.4982 14.2891 10.3535 13.6969 10.3535H12.7419V8.98433H13.6969C14.1689 8.98433 14.5363 8.86188 14.799 8.61699C15.0661 8.37209 15.1997 8.04038 15.1997 7.62183C15.1997 7.19883 15.0661 6.86489 14.799 6.62C14.5363 6.3751 14.1689 6.25266 13.6969 6.25266C13.2962 6.25266 12.9177 6.33948 12.5615 6.51313C12.2053 6.68679 11.9537 6.85376 11.8068 7.01405L11.5797 7.27453L10.618 6.31945C10.6447 6.28383 10.6848 6.23485 10.7382 6.17251C10.7961 6.10572 10.9207 5.98773 11.1122 5.81853C11.3037 5.64933 11.5085 5.50462 11.7267 5.3844C11.9448 5.25973 12.232 5.14619 12.5882 5.04378C12.9445 4.93692 13.314 4.88348 13.6969 4.88348C14.6364 4.88348 15.3733 5.12615 15.9077 5.61148C16.442 6.09236 16.7091 6.71573 16.7091 7.48157C16.7091 7.74428 16.6624 7.99808 16.5689 8.24297C16.4798 8.48341 16.3707 8.67932 16.2416 8.83071C16.1125 8.9821 15.9856 9.11345 15.8609 9.22477C15.7407 9.33163 15.6338 9.40732 15.5403 9.45185L15.4067 9.532Z" fill="#CC0029"/>
<path fill-rule="evenodd" clip-rule="evenodd" d="M38.1159 6.04614C39.0602 6.04614 39.8257 5.28064 39.8257 4.33634C39.8257 3.39205 39.0602 2.62655 38.1159 2.62655C37.1716 2.62655 36.4061 3.39205 36.4061 4.33634C36.4061 5.28064 37.1716 6.04614 38.1159 6.04614ZM38.1159 7.75594C40.0045 7.75594 41.5355 6.22493 41.5355 4.33634C41.5355 2.44775 40.0045 0.916748 38.1159 0.916748C36.2273 0.916748 34.6963 2.44775 34.6963 4.33634C34.6963 6.22493 36.2273 7.75594 38.1159 7.75594Z" fill="#CC0029"/>
</svg>
