<svg width="223" height="114" viewBox="0 0 223 114" fill="none" xmlns="http://www.w3.org/2000/svg">
<path d="M46.7966 32.1077C46.7286 31.8973 46.6574 31.6838 46.58 31.4733C43.7609 23.638 30.6557 23.0965 30.6526 32.7266C30.6526 34.5802 26.2027 32.7266 24.5316 35.1373C22.8637 37.5479 24.7173 39.0332 22.4924 39.7728C20.2674 40.5124 20.0817 38.6588 17.2998 38.8445C14.5178 39.0301 14.8891 41.6264 13.9608 42.3691C13.0324 43.1118 13.0324 42.7405 10.9931 42.9261C8.95386 43.1118 8.58252 44.5941 8.58252 44.5941H57.3644C57.3644 44.5941 59.218 39.0301 55.8821 36.9909C52.5432 34.9516 52.5432 37.7335 49.9469 36.6195C47.8024 35.7005 47.4001 33.9551 46.7997 32.1046L46.7966 32.1077Z" stroke="#B2B2B2" stroke-width="0.505594" stroke-linecap="round" stroke-linejoin="round"/>
<path d="M48.4859 42.5676C48.4859 42.5676 49.4978 39.4452 47.016 37.1491C44.5373 34.853 41.9627 36.1372 41.2293 37.1491C40.4959 38.161 40.4959 40.0889 39.3014 40.2714C38.1069 40.454 38.3824 38.2507 35.8108 38.8016C33.2393 39.3524 34.2481 41.9239 33.0536 42.4747C31.8591 43.0256 31.8591 41.0048 30.2067 41.6485C28.5542 42.2922 28.6439 43.4866 28.6439 43.4866" stroke="#B2B2B2" stroke-width="0.505594" stroke-linecap="round" stroke-linejoin="round"/>
<path d="M35.2908 36.3258C35.2908 36.3258 33.2454 34.6888 30.5872 35.9173C27.929 37.1458 29.1544 39.7019 27.929 40.3146C26.7005 40.9273 26.0878 40.2125 24.5529 40.9273C23.018 41.6421 23.1201 42.6664 23.1201 42.6664" stroke="#B2B2B2" stroke-width="0.505594" stroke-linecap="round" stroke-linejoin="round"/>
<path d="M143.228 4.61302C143.191 4.49853 143.151 4.38093 143.11 4.26334C141.56 -0.0504062 134.341 -0.350574 134.341 4.95342C134.341 5.97461 131.89 4.95342 130.971 6.28097C130.052 7.60851 131.073 8.42546 129.847 8.83394C128.622 9.24241 128.52 8.22122 126.988 8.32334C125.456 8.42546 125.661 9.85513 125.15 10.2636C124.639 10.6721 124.639 10.4678 123.516 10.57C122.393 10.6721 122.188 11.489 122.188 11.489H149.052C149.052 11.489 150.073 8.42546 148.235 7.30215C146.397 6.17885 146.397 7.71063 144.967 7.09792C143.785 6.59042 143.565 5.63112 143.234 4.61302H143.228Z" stroke="#B2B2B2" stroke-width="0.505594" stroke-linecap="round" stroke-linejoin="round"/>
<path d="M144.16 10.3722C144.16 10.3722 144.717 8.65165 143.349 7.38599C141.981 6.12034 140.567 6.82898 140.161 7.38599C139.756 7.94301 139.756 9.00442 139.1 9.10654C138.441 9.20866 138.596 7.99252 137.178 8.29578C135.761 8.59904 136.318 10.0163 135.662 10.3196C135.003 10.6229 135.003 9.50883 134.093 9.8647C133.183 10.2175 133.233 10.8766 133.233 10.8766" stroke="#B2B2B2" stroke-width="0.505594" stroke-linecap="round" stroke-linejoin="round"/>
<path d="M136.894 6.93412C136.894 6.93412 135.767 6.03361 134.304 6.70822C132.84 7.38282 133.515 8.79082 132.84 9.13122C132.165 9.46852 131.825 9.07552 130.98 9.46852C130.135 9.86152 130.191 10.4247 130.191 10.4247" stroke="#B2B2B2" stroke-width="0.505594" stroke-linecap="round" stroke-linejoin="round"/>
<path d="M193.229 24.8756C193.155 24.6497 193.081 24.4207 192.997 24.1917C189.961 15.7529 175.844 15.1712 175.844 25.5409C175.844 27.5399 171.051 25.5409 169.253 28.1372C167.455 30.7335 169.454 32.3333 167.056 33.1317C164.657 33.9301 164.459 31.9342 161.464 32.1322C158.468 32.3302 158.868 35.1277 157.868 35.9292C156.869 36.7276 156.869 36.3284 154.671 36.5295C152.474 36.7306 152.075 38.3274 152.075 38.3274H204.611C204.611 38.3274 206.61 32.3333 203.014 30.1362C199.418 27.9391 199.418 30.9346 196.621 29.737C194.309 28.7468 193.879 26.8684 193.232 24.8756H193.229Z" stroke="#B2B2B2" stroke-width="0.505594" stroke-linecap="round" stroke-linejoin="round"/>
<path d="M195.045 36.1426C195.045 36.1426 196.135 32.7789 193.461 30.3063C190.79 27.8338 188.021 29.2171 187.229 30.3063C186.436 31.3956 186.436 33.472 185.152 33.6701C183.868 33.8681 184.162 31.4946 181.392 32.0857C178.623 32.6798 179.709 35.4494 178.425 36.0436C177.14 36.6377 177.137 34.4592 175.358 35.1524C173.579 35.8455 173.675 37.1297 173.675 37.1297" stroke="#B2B2B2" stroke-width="0.505594" stroke-linecap="round" stroke-linejoin="round"/>
<path d="M180.836 29.4214C180.836 29.4214 178.632 27.6575 175.77 28.982C172.904 30.3033 174.229 33.0574 172.904 33.7197C171.583 34.3819 170.921 33.6083 169.268 34.3819C167.616 35.1524 167.727 36.2541 167.727 36.2541" stroke="#B2B2B2" stroke-width="0.505594" stroke-linecap="round" stroke-linejoin="round"/>
<path d="M84.4593 17.1357H76.8096V113.505H84.4593V17.1357Z" fill="#263238" stroke="#263238" stroke-width="0.505594" stroke-linecap="round" stroke-linejoin="round"/>
<path d="M66.5639 17.1357H58.9143V113.505H66.5639V17.1357Z" fill="#263238" stroke="#263238" stroke-width="0.505594" stroke-linecap="round" stroke-linejoin="round"/>
<path d="M76.1352 21.3473H60.4832V113.505H76.1352V21.3473Z" fill="#B0B0B0" stroke="#263238" stroke-width="0.505594" stroke-linecap="round" stroke-linejoin="round"/>
<path d="M76.1352 21.3473H60.4832V26.9081H76.1352V21.3473Z" fill="white" stroke="#263238" stroke-width="0.505594" stroke-linecap="round" stroke-linejoin="round"/>
<path d="M61.1086 17.1359H56.8939V113.505H61.1086V17.1359Z" fill="white" stroke="#263238" stroke-width="0.505594" stroke-linecap="round" stroke-linejoin="round"/>
<path d="M79.5889 17.1357H75.3741V113.505H79.5889V17.1357Z" fill="white" stroke="#263238" stroke-width="0.505594" stroke-linecap="round" stroke-linejoin="round"/>
<path d="M74.3495 29.6375H62.2686V30.5844H74.3495V29.6375Z" fill="white" stroke="#263238" stroke-width="0.505594" stroke-linecap="round" stroke-linejoin="round"/>
<path d="M74.3495 32.2465H62.2686V33.1934H74.3495V32.2465Z" fill="white" stroke="#263238" stroke-width="0.505594" stroke-linecap="round" stroke-linejoin="round"/>
<path d="M74.3495 34.8518H62.2686V35.7987H74.3495V34.8518Z" fill="white" stroke="#263238" stroke-width="0.505594" stroke-linecap="round" stroke-linejoin="round"/>
<path d="M74.3495 37.457H62.2686V38.404H74.3495V37.457Z" fill="white" stroke="#263238" stroke-width="0.505594" stroke-linecap="round" stroke-linejoin="round"/>
<path d="M74.3495 40.0632H62.2686V41.0102H74.3495V40.0632Z" fill="white" stroke="#263238" stroke-width="0.505594" stroke-linecap="round" stroke-linejoin="round"/>
<path d="M74.3495 42.6685H62.2686V43.6154H74.3495V42.6685Z" fill="white" stroke="#263238" stroke-width="0.505594" stroke-linecap="round" stroke-linejoin="round"/>
<path d="M74.3495 45.2738H62.2686V46.2207H74.3495V45.2738Z" fill="white" stroke="#263238" stroke-width="0.505594" stroke-linecap="round" stroke-linejoin="round"/>
<path d="M74.3495 47.88H62.2686V48.8269H74.3495V47.88Z" fill="white" stroke="#263238" stroke-width="0.505594" stroke-linecap="round" stroke-linejoin="round"/>
<path d="M74.3495 50.4852H62.2686V51.4321H74.3495V50.4852Z" fill="white" stroke="#263238" stroke-width="0.505594" stroke-linecap="round" stroke-linejoin="round"/>
<path d="M74.3495 53.0938H62.2686V54.0407H74.3495V53.0938Z" fill="white" stroke="#263238" stroke-width="0.505594" stroke-linecap="round" stroke-linejoin="round"/>
<path d="M74.3495 55.6995H62.2686V56.6464H74.3495V55.6995Z" fill="white" stroke="#263238" stroke-width="0.505594" stroke-linecap="round" stroke-linejoin="round"/>
<path d="M74.3495 58.3052H62.2686V59.2521H74.3495V58.3052Z" fill="white" stroke="#263238" stroke-width="0.505594" stroke-linecap="round" stroke-linejoin="round"/>
<path d="M74.3495 60.9105H62.2686V61.8574H74.3495V60.9105Z" fill="white" stroke="#263238" stroke-width="0.505594" stroke-linecap="round" stroke-linejoin="round"/>
<path d="M74.3495 63.5162H62.2686V64.4632H74.3495V63.5162Z" fill="white" stroke="#263238" stroke-width="0.505594" stroke-linecap="round" stroke-linejoin="round"/>
<path d="M74.3495 66.1219H62.2686V67.0689H74.3495V66.1219Z" fill="white" stroke="#263238" stroke-width="0.505594" stroke-linecap="round" stroke-linejoin="round"/>
<path d="M74.3495 68.7273H62.2686V69.6742H74.3495V68.7273Z" fill="white" stroke="#263238" stroke-width="0.505594" stroke-linecap="round" stroke-linejoin="round"/>
<path d="M74.3495 71.3358H62.2686V72.2827H74.3495V71.3358Z" fill="white" stroke="#263238" stroke-width="0.505594" stroke-linecap="round" stroke-linejoin="round"/>
<path d="M74.3495 73.942H62.2686V74.8889H74.3495V73.942Z" fill="white" stroke="#263238" stroke-width="0.505594" stroke-linecap="round" stroke-linejoin="round"/>
<path d="M74.3495 76.5472H62.2686V77.4942H74.3495V76.5472Z" fill="white" stroke="#263238" stroke-width="0.505594" stroke-linecap="round" stroke-linejoin="round"/>
<path d="M74.3495 79.1526H62.2686V80.0995H74.3495V79.1526Z" fill="white" stroke="#263238" stroke-width="0.505594" stroke-linecap="round" stroke-linejoin="round"/>
<path d="M74.3495 81.7587H62.2686V82.7056H74.3495V81.7587Z" fill="white" stroke="#263238" stroke-width="0.505594" stroke-linecap="round" stroke-linejoin="round"/>
<path d="M74.3495 84.364H62.2686V85.3109H74.3495V84.364Z" fill="white" stroke="#263238" stroke-width="0.505594" stroke-linecap="round" stroke-linejoin="round"/>
<path d="M74.3495 86.9694H62.2686V87.9163H74.3495V86.9694Z" fill="white" stroke="#263238" stroke-width="0.505594" stroke-linecap="round" stroke-linejoin="round"/>
<path d="M74.3495 89.5782H62.2686V90.5252H74.3495V89.5782Z" fill="white" stroke="#263238" stroke-width="0.505594" stroke-linecap="round" stroke-linejoin="round"/>
<path d="M74.3495 92.184H62.2686V93.1309H74.3495V92.184Z" fill="white" stroke="#263238" stroke-width="0.505594" stroke-linecap="round" stroke-linejoin="round"/>
<path d="M74.3495 94.7893H62.2686V95.7362H74.3495V94.7893Z" fill="white" stroke="#263238" stroke-width="0.505594" stroke-linecap="round" stroke-linejoin="round"/>
<path d="M74.3495 97.395H62.2686V98.3419H74.3495V97.395Z" fill="white" stroke="#263238" stroke-width="0.505594" stroke-linecap="round" stroke-linejoin="round"/>
<path d="M74.3495 100.001H62.2686V100.948H74.3495V100.001Z" fill="white" stroke="#263238" stroke-width="0.505594" stroke-linecap="round" stroke-linejoin="round"/>
<path d="M74.3495 102.606H62.2686V103.553H74.3495V102.606Z" fill="white" stroke="#263238" stroke-width="0.505594" stroke-linecap="round" stroke-linejoin="round"/>
<path d="M74.3495 105.212H62.2686V106.159H74.3495V105.212Z" fill="white" stroke="#263238" stroke-width="0.505594" stroke-linecap="round" stroke-linejoin="round"/>
<path d="M74.3495 107.818H62.2686V108.764H74.3495V107.818Z" fill="white" stroke="#263238" stroke-width="0.505594" stroke-linecap="round" stroke-linejoin="round"/>
<path d="M117.471 11.4944H107.003V113.502H117.471V11.4944Z" fill="#263238" stroke="#263238" stroke-width="0.505594" stroke-linecap="round" stroke-linejoin="round"/>
<path d="M126.143 22.3191H101.575V113.502H126.143V22.3191Z" fill="#263238" stroke="#263238" stroke-width="0.505594" stroke-linecap="round" stroke-linejoin="round"/>
<path d="M133.891 32.8774H94.2907V113.502H133.891V32.8774Z" fill="#263238" stroke="#263238" stroke-width="0.505594" stroke-linecap="round" stroke-linejoin="round"/>
<path d="M129.259 32.8774H89.6582V113.502H129.259V32.8774Z" fill="white" stroke="#263238" stroke-width="0.505594" stroke-linecap="round" stroke-linejoin="round"/>
<path d="M114.693 11.4944H104.224V113.502H114.693V11.4944Z" fill="white" stroke="#263238" stroke-width="0.505594" stroke-linecap="round" stroke-linejoin="round"/>
<path d="M121.742 22.3191H97.175V113.502H121.742V22.3191Z" fill="#B0B0B0" stroke="#263238" stroke-width="0.505594" stroke-linecap="round" stroke-linejoin="round"/>
<path d="M102.018 25.8621H99.8918V106.904H102.018V25.8621Z" fill="white" stroke="#263238" stroke-width="0.505594" stroke-linecap="round" stroke-linejoin="round"/>
<path d="M106.269 25.8623H104.144V106.904H106.269V25.8623Z" fill="white" stroke="#263238" stroke-width="0.505594" stroke-linecap="round" stroke-linejoin="round"/>
<path d="M110.521 25.8623H108.395V106.904H110.521V25.8623Z" fill="white" stroke="#263238" stroke-width="0.505594" stroke-linecap="round" stroke-linejoin="round"/>
<path d="M114.774 25.8623H112.648V106.904H114.774V25.8623Z" fill="white" stroke="#263238" stroke-width="0.505594" stroke-linecap="round" stroke-linejoin="round"/>
<path d="M119.025 25.8623H116.899V106.904H119.025V25.8623Z" fill="white" stroke="#263238" stroke-width="0.505594" stroke-linecap="round" stroke-linejoin="round"/>
<path d="M127.405 35.3688H123.627V39.1472H127.405V35.3688Z" fill="white" stroke="#263238" stroke-width="0.505594" stroke-linecap="round" stroke-linejoin="round"/>
<path d="M127.405 42.8671H123.627V46.6455H127.405V42.8671Z" fill="white" stroke="#263238" stroke-width="0.505594" stroke-linecap="round" stroke-linejoin="round"/>
<path d="M127.405 50.3619H123.627V54.1403H127.405V50.3619Z" fill="white" stroke="#263238" stroke-width="0.505594" stroke-linecap="round" stroke-linejoin="round"/>
<path d="M127.405 57.8564H123.627V61.6348H127.405V57.8564Z" fill="white" stroke="#263238" stroke-width="0.505594" stroke-linecap="round" stroke-linejoin="round"/>
<path d="M127.405 65.3546H123.627V69.133H127.405V65.3546Z" fill="white" stroke="#263238" stroke-width="0.505594" stroke-linecap="round" stroke-linejoin="round"/>
<path d="M127.405 72.8495H123.627V76.6279H127.405V72.8495Z" fill="white" stroke="#263238" stroke-width="0.505594" stroke-linecap="round" stroke-linejoin="round"/>
<path d="M127.405 80.3477H123.627V84.1261H127.405V80.3477Z" fill="white" stroke="#263238" stroke-width="0.505594" stroke-linecap="round" stroke-linejoin="round"/>
<path d="M127.405 87.8427H123.627V91.621H127.405V87.8427Z" fill="white" stroke="#263238" stroke-width="0.505594" stroke-linecap="round" stroke-linejoin="round"/>
<path d="M127.405 95.3375H123.627V99.1159H127.405V95.3375Z" fill="white" stroke="#263238" stroke-width="0.505594" stroke-linecap="round" stroke-linejoin="round"/>
<path d="M127.405 102.835H123.627V106.614H127.405V102.835Z" fill="white" stroke="#263238" stroke-width="0.505594" stroke-linecap="round" stroke-linejoin="round"/>
<path d="M95.2131 35.3684H91.4347V39.1468H95.2131V35.3684Z" fill="white" stroke="#263238" stroke-width="0.505594" stroke-linecap="round" stroke-linejoin="round"/>
<path d="M95.213 42.8667H91.4346V46.6451H95.213V42.8667Z" fill="white" stroke="#263238" stroke-width="0.505594" stroke-linecap="round" stroke-linejoin="round"/>
<path d="M95.213 50.3617H91.4346V54.1401H95.213V50.3617Z" fill="white" stroke="#263238" stroke-width="0.505594" stroke-linecap="round" stroke-linejoin="round"/>
<path d="M95.213 57.8562H91.4346V61.6346H95.213V57.8562Z" fill="white" stroke="#263238" stroke-width="0.505594" stroke-linecap="round" stroke-linejoin="round"/>
<path d="M95.213 65.3544H91.4346V69.1328H95.213V65.3544Z" fill="white" stroke="#263238" stroke-width="0.505594" stroke-linecap="round" stroke-linejoin="round"/>
<path d="M95.213 72.8492H91.4346V76.6276H95.213V72.8492Z" fill="white" stroke="#263238" stroke-width="0.505594" stroke-linecap="round" stroke-linejoin="round"/>
<path d="M95.213 80.3474H91.4346V84.1258H95.213V80.3474Z" fill="white" stroke="#263238" stroke-width="0.505594" stroke-linecap="round" stroke-linejoin="round"/>
<path d="M95.213 87.8423H91.4346V91.6207H95.213V87.8423Z" fill="white" stroke="#263238" stroke-width="0.505594" stroke-linecap="round" stroke-linejoin="round"/>
<path d="M95.213 95.3373H91.4346V99.1157H95.213V95.3373Z" fill="white" stroke="#263238" stroke-width="0.505594" stroke-linecap="round" stroke-linejoin="round"/>
<path d="M95.213 102.835H91.4346V106.613H95.213V102.835Z" fill="white" stroke="#263238" stroke-width="0.505594" stroke-linecap="round" stroke-linejoin="round"/>
<path d="M118.973 108.684H99.6071V113.505H118.973V108.684Z" fill="#263238" stroke="#263238" stroke-width="0.505594" stroke-linecap="round" stroke-linejoin="round"/>
<path d="M77.7254 59.1871H53.3901V113.502H77.7254V59.1871Z" fill="#263238" stroke="#263238" stroke-width="0.505594" stroke-linecap="round" stroke-linejoin="round"/>
<path d="M69.7606 52.6423H56.0117V64.6459H69.7606V52.6423Z" fill="#263238" stroke="#263238" stroke-width="0.505594" stroke-linecap="round" stroke-linejoin="round"/>
<path d="M65.1929 52.6423H51.444V64.6459H65.1929V52.6423Z" fill="white" stroke="#263238" stroke-width="0.505594" stroke-linecap="round" stroke-linejoin="round"/>
<path d="M55.5534 56.4052H52.4589V59.9267H55.5534V56.4052Z" fill="white" stroke="#263238" stroke-width="0.505594" stroke-linecap="round" stroke-linejoin="round"/>
<path d="M59.9286 56.4052H56.834V59.9267H59.9286V56.4052Z" fill="white" stroke="#263238" stroke-width="0.505594" stroke-linecap="round" stroke-linejoin="round"/>
<path d="M64.3045 56.4052H61.21V59.9267H64.3045V56.4052Z" fill="white" stroke="#263238" stroke-width="0.505594" stroke-linecap="round" stroke-linejoin="round"/>
<path d="M68.8005 56.4052H66.4394V59.9267H68.8005V56.4052Z" fill="white" stroke="#263238" stroke-width="0.505594" stroke-linecap="round" stroke-linejoin="round"/>
<path d="M70.4876 59.1871H46.1523V113.502H70.4876V59.1871Z" fill="#B0B0B0" stroke="#263238" stroke-width="0.505594" stroke-linecap="round" stroke-linejoin="round"/>
<path d="M50.5683 60.4995H48.0277V113.505H50.5683V60.4995Z" fill="white" stroke="#263238" stroke-width="0.505594" stroke-linecap="round" stroke-linejoin="round"/>
<path d="M68.9001 60.4995H66.3595V113.505H68.9001V60.4995Z" fill="white" stroke="#263238" stroke-width="0.505594" stroke-linecap="round" stroke-linejoin="round"/>
<path d="M73.1184 60.4991H71.633V113.505H73.1184V60.4991Z" fill="white" stroke="#263238" stroke-width="0.505594" stroke-linecap="round" stroke-linejoin="round"/>
<path d="M75.2288 60.4991H73.7434V113.505H75.2288V60.4991Z" fill="white" stroke="#263238" stroke-width="0.505594" stroke-linecap="round" stroke-linejoin="round"/>
<path d="M77.3385 60.4991H75.8531V113.505H77.3385V60.4991Z" fill="white" stroke="#263238" stroke-width="0.505594" stroke-linecap="round" stroke-linejoin="round"/>
<path d="M55.151 60.4995H52.6104V113.505H55.151V60.4995Z" fill="white" stroke="#263238" stroke-width="0.505594" stroke-linecap="round" stroke-linejoin="round"/>
<path d="M59.7344 60.4991H57.1938V113.505H59.7344V60.4991Z" fill="white" stroke="#263238" stroke-width="0.505594" stroke-linecap="round" stroke-linejoin="round"/>
<path d="M64.3167 60.4991H61.7761V113.505H64.3167V60.4991Z" fill="white" stroke="#263238" stroke-width="0.505594" stroke-linecap="round" stroke-linejoin="round"/>
<path d="M193.42 45.9896H169.085V113.506H193.42V45.9896Z" fill="#263238" stroke="#263238" stroke-width="0.505594" stroke-linecap="round" stroke-linejoin="round"/>
<path d="M185.456 40.797H173.257V51.4452H185.456V40.797Z" fill="#263238" stroke="#263238" stroke-width="0.505594" stroke-linecap="round" stroke-linejoin="round"/>
<path d="M181.405 40.7969H169.206V51.4451H181.405V40.7969Z" fill="white" stroke="#263238" stroke-width="0.505594" stroke-linecap="round" stroke-linejoin="round"/>
<path d="M172.852 44.1357H170.107V47.2612H172.852V44.1357Z" fill="white" stroke="#263238" stroke-width="0.505594" stroke-linecap="round" stroke-linejoin="round"/>
<path d="M176.732 44.1357H173.987V47.2612H176.732V44.1357Z" fill="white" stroke="#263238" stroke-width="0.505594" stroke-linecap="round" stroke-linejoin="round"/>
<path d="M180.612 44.1361H177.867V47.2616H180.612V44.1361Z" fill="white" stroke="#263238" stroke-width="0.505594" stroke-linecap="round" stroke-linejoin="round"/>
<path d="M184.604 44.1357H182.509V47.2612H184.604V44.1357Z" fill="white" stroke="#263238" stroke-width="0.505594" stroke-linecap="round" stroke-linejoin="round"/>
<path d="M186.182 45.9893H161.847V113.505H186.182V45.9893Z" fill="#B0B0B0" stroke="#263238" stroke-width="0.505594" stroke-linecap="round" stroke-linejoin="round"/>
<path d="M188.816 87.5366H187.33V90.5816H188.816V87.5366Z" fill="white" stroke="#263238" stroke-width="0.505594" stroke-linecap="round" stroke-linejoin="round"/>
<path d="M175.429 56.1985H172.888V59.2435H175.429V56.1985Z" fill="white" stroke="#263238" stroke-width="0.505594" stroke-linecap="round" stroke-linejoin="round"/>
<path d="M180.011 56.1985H177.471V59.2435H180.011V56.1985Z" fill="white" stroke="#263238" stroke-width="0.505594" stroke-linecap="round" stroke-linejoin="round"/>
<path d="M170.846 56.1985H168.305V59.2435H170.846V56.1985Z" fill="white" stroke="#263238" stroke-width="0.505594" stroke-linecap="round" stroke-linejoin="round"/>
<path d="M170.846 69.6285H168.305V72.6735H170.846V69.6285Z" fill="white" stroke="#263238" stroke-width="0.505594" stroke-linecap="round" stroke-linejoin="round"/>
<path d="M170.846 65.1542H168.305V68.1992H170.846V65.1542Z" fill="white" stroke="#263238" stroke-width="0.505594" stroke-linecap="round" stroke-linejoin="round"/>
<path d="M170.846 60.6761H168.305V63.7211H170.846V60.6761Z" fill="white" stroke="#263238" stroke-width="0.505594" stroke-linecap="round" stroke-linejoin="round"/>
<path d="M188.816 74.1066H187.33V77.1516H188.816V74.1066Z" fill="white" stroke="#263238" stroke-width="0.505594" stroke-linecap="round" stroke-linejoin="round"/>
<path d="M188.816 69.6285H187.33V72.6735H188.816V69.6285Z" fill="white" stroke="#263238" stroke-width="0.505594" stroke-linecap="round" stroke-linejoin="round"/>
<path d="M188.816 78.5842H187.33V81.6292H188.816V78.5842Z" fill="white" stroke="#263238" stroke-width="0.505594" stroke-linecap="round" stroke-linejoin="round"/>
<path d="M188.816 56.1985H187.33V59.2435H188.816V56.1985Z" fill="white" stroke="#263238" stroke-width="0.505594" stroke-linecap="round" stroke-linejoin="round"/>
<path d="M188.816 83.0619H187.33V86.1069H188.816V83.0619Z" fill="white" stroke="#263238" stroke-width="0.505594" stroke-linecap="round" stroke-linejoin="round"/>
<path d="M188.816 60.6761H187.33V63.7211H188.816V60.6761Z" fill="white" stroke="#263238" stroke-width="0.505594" stroke-linecap="round" stroke-linejoin="round"/>
<path d="M188.816 65.1542H187.33V68.1992H188.816V65.1542Z" fill="white" stroke="#263238" stroke-width="0.505594" stroke-linecap="round" stroke-linejoin="round"/>
<path d="M184.595 56.1985H182.054V59.2435H184.595V56.1985Z" fill="white" stroke="#263238" stroke-width="0.505594" stroke-linecap="round" stroke-linejoin="round"/>
<path d="M184.595 100.97H182.054V104.015H184.595V100.97Z" fill="white" stroke="#263238" stroke-width="0.505594" stroke-linecap="round" stroke-linejoin="round"/>
<path d="M180.011 100.97H177.471V104.015H180.011V100.97Z" fill="white" stroke="#263238" stroke-width="0.505594" stroke-linecap="round" stroke-linejoin="round"/>
<path d="M175.429 100.97H172.888V104.015H175.429V100.97Z" fill="white" stroke="#263238" stroke-width="0.505594" stroke-linecap="round" stroke-linejoin="round"/>
<path d="M188.816 100.97H187.33V104.015H188.816V100.97Z" fill="white" stroke="#263238" stroke-width="0.505594" stroke-linecap="round" stroke-linejoin="round"/>
<path d="M190.923 100.97H189.437V104.015H190.923V100.97Z" fill="white" stroke="#263238" stroke-width="0.505594" stroke-linecap="round" stroke-linejoin="round"/>
<path d="M190.923 92.0143H189.437V95.0593H190.923V92.0143Z" fill="white" stroke="#263238" stroke-width="0.505594" stroke-linecap="round" stroke-linejoin="round"/>
<path d="M190.923 96.4919H189.437V99.5369H190.923V96.4919Z" fill="white" stroke="#263238" stroke-width="0.505594" stroke-linecap="round" stroke-linejoin="round"/>
<path d="M170.846 96.4923H168.305V99.5373H170.846V96.4923Z" fill="white" stroke="#263238" stroke-width="0.505594" stroke-linecap="round" stroke-linejoin="round"/>
<path d="M170.846 83.0619H168.305V86.1069H170.846V83.0619Z" fill="white" stroke="#263238" stroke-width="0.505594" stroke-linecap="round" stroke-linejoin="round"/>
<path d="M170.846 100.97H168.305V104.015H170.846V100.97Z" fill="white" stroke="#263238" stroke-width="0.505594" stroke-linecap="round" stroke-linejoin="round"/>
<path d="M170.846 78.5842H168.305V81.6292H170.846V78.5842Z" fill="white" stroke="#263238" stroke-width="0.505594" stroke-linecap="round" stroke-linejoin="round"/>
<path d="M170.846 87.5366H168.305V90.5816H170.846V87.5366Z" fill="white" stroke="#263238" stroke-width="0.505594" stroke-linecap="round" stroke-linejoin="round"/>
<path d="M170.846 92.0143H168.305V95.0593H170.846V92.0143Z" fill="white" stroke="#263238" stroke-width="0.505594" stroke-linecap="round" stroke-linejoin="round"/>
<path d="M170.846 74.1066H168.305V77.1516H170.846V74.1066Z" fill="white" stroke="#263238" stroke-width="0.505594" stroke-linecap="round" stroke-linejoin="round"/>
<path d="M184.595 65.1542H182.054V68.1992H184.595V65.1542Z" fill="white" stroke="#263238" stroke-width="0.505594" stroke-linecap="round" stroke-linejoin="round"/>
<path d="M184.595 92.0143H182.054V95.0593H184.595V92.0143Z" fill="white" stroke="#263238" stroke-width="0.505594" stroke-linecap="round" stroke-linejoin="round"/>
<path d="M184.595 87.5366H182.054V90.5816H184.595V87.5366Z" fill="white" stroke="#263238" stroke-width="0.505594" stroke-linecap="round" stroke-linejoin="round"/>
<path d="M180.011 92.0143H177.471V95.0593H180.011V92.0143Z" fill="white" stroke="#263238" stroke-width="0.505594" stroke-linecap="round" stroke-linejoin="round"/>
<path d="M180.011 87.5366H177.471V90.5816H180.011V87.5366Z" fill="white" stroke="#263238" stroke-width="0.505594" stroke-linecap="round" stroke-linejoin="round"/>
<path d="M184.595 69.6285H182.054V72.6735H184.595V69.6285Z" fill="white" stroke="#263238" stroke-width="0.505594" stroke-linecap="round" stroke-linejoin="round"/>
<path d="M184.595 78.5842H182.054V81.6292H184.595V78.5842Z" fill="white" stroke="#263238" stroke-width="0.505594" stroke-linecap="round" stroke-linejoin="round"/>
<path d="M184.595 83.0619H182.054V86.1069H184.595V83.0619Z" fill="white" stroke="#263238" stroke-width="0.505594" stroke-linecap="round" stroke-linejoin="round"/>
<path d="M184.595 74.1066H182.054V77.1516H184.595V74.1066Z" fill="white" stroke="#263238" stroke-width="0.505594" stroke-linecap="round" stroke-linejoin="round"/>
<path d="M180.011 69.6285H177.471V72.6735H180.011V69.6285Z" fill="white" stroke="#263238" stroke-width="0.505594" stroke-linecap="round" stroke-linejoin="round"/>
<path d="M193.033 47.2987H191.548V50.288H193.033V47.2987Z" fill="white" stroke="#263238" stroke-width="0.505594" stroke-linecap="round" stroke-linejoin="round"/>
<path d="M180.011 65.1538H177.471V68.1988H180.011V65.1538Z" fill="white" stroke="#263238" stroke-width="0.505594" stroke-linecap="round" stroke-linejoin="round"/>
<path d="M180.011 78.5842H177.471V81.6292H180.011V78.5842Z" fill="white" stroke="#263238" stroke-width="0.505594" stroke-linecap="round" stroke-linejoin="round"/>
<path d="M180.011 74.1066H177.471V77.1516H180.011V74.1066Z" fill="white" stroke="#263238" stroke-width="0.505594" stroke-linecap="round" stroke-linejoin="round"/>
<path d="M180.011 83.0619H177.471V86.1069H180.011V83.0619Z" fill="white" stroke="#263238" stroke-width="0.505594" stroke-linecap="round" stroke-linejoin="round"/>
<path d="M175.429 87.5366H172.888V90.5816H175.429V87.5366Z" fill="white" stroke="#263238" stroke-width="0.505594" stroke-linecap="round" stroke-linejoin="round"/>
<path d="M175.429 92.0143H172.888V95.0593H175.429V92.0143Z" fill="white" stroke="#263238" stroke-width="0.505594" stroke-linecap="round" stroke-linejoin="round"/>
<path d="M175.429 96.4919H172.888V99.5369H175.429V96.4919Z" fill="white" stroke="#263238" stroke-width="0.505594" stroke-linecap="round" stroke-linejoin="round"/>
<path d="M184.595 60.6761H182.054V63.7211H184.595V60.6761Z" fill="white" stroke="#263238" stroke-width="0.505594" stroke-linecap="round" stroke-linejoin="round"/>
<path d="M180.011 96.4919H177.471V99.5369H180.011V96.4919Z" fill="white" stroke="#263238" stroke-width="0.505594" stroke-linecap="round" stroke-linejoin="round"/>
<path d="M175.429 83.0619H172.888V86.1069H175.429V83.0619Z" fill="white" stroke="#263238" stroke-width="0.505594" stroke-linecap="round" stroke-linejoin="round"/>
<path d="M188.816 96.4923H187.33V99.5373H188.816V96.4923Z" fill="white" stroke="#263238" stroke-width="0.505594" stroke-linecap="round" stroke-linejoin="round"/>
<path d="M184.595 96.4923H182.054V99.5373H184.595V96.4923Z" fill="white" stroke="#263238" stroke-width="0.505594" stroke-linecap="round" stroke-linejoin="round"/>
<path d="M188.816 92.0143H187.33V95.0593H188.816V92.0143Z" fill="white" stroke="#263238" stroke-width="0.505594" stroke-linecap="round" stroke-linejoin="round"/>
<path d="M175.429 65.1538H172.888V68.1988H175.429V65.1538Z" fill="white" stroke="#263238" stroke-width="0.505594" stroke-linecap="round" stroke-linejoin="round"/>
<path d="M175.429 60.6765H172.888V63.7215H175.429V60.6765Z" fill="white" stroke="#263238" stroke-width="0.505594" stroke-linecap="round" stroke-linejoin="round"/>
<path d="M180.011 60.6765H177.471V63.7215H180.011V60.6765Z" fill="white" stroke="#263238" stroke-width="0.505594" stroke-linecap="round" stroke-linejoin="round"/>
<path d="M175.429 74.1066H172.888V77.1516H175.429V74.1066Z" fill="white" stroke="#263238" stroke-width="0.505594" stroke-linecap="round" stroke-linejoin="round"/>
<path d="M175.429 78.5842H172.888V81.6292H175.429V78.5842Z" fill="white" stroke="#263238" stroke-width="0.505594" stroke-linecap="round" stroke-linejoin="round"/>
<path d="M175.429 69.6285H172.888V72.6735H175.429V69.6285Z" fill="white" stroke="#263238" stroke-width="0.505594" stroke-linecap="round" stroke-linejoin="round"/>
<path d="M190.923 87.5366H189.437V90.5816H190.923V87.5366Z" fill="white" stroke="#263238" stroke-width="0.505594" stroke-linecap="round" stroke-linejoin="round"/>
<path d="M188.816 105.448H187.33V108.493H188.816V105.448Z" fill="white" stroke="#263238" stroke-width="0.505594" stroke-linecap="round" stroke-linejoin="round"/>
<path d="M193.033 69.6285H191.548V72.6735H193.033V69.6285Z" fill="white" stroke="#263238" stroke-width="0.505594" stroke-linecap="round" stroke-linejoin="round"/>
<path d="M193.033 74.1066H191.548V77.1516H193.033V74.1066Z" fill="white" stroke="#263238" stroke-width="0.505594" stroke-linecap="round" stroke-linejoin="round"/>
<path d="M193.033 51.7205H191.548V54.7655H193.033V51.7205Z" fill="white" stroke="#263238" stroke-width="0.505594" stroke-linecap="round" stroke-linejoin="round"/>
<path d="M190.923 47.2987H189.437V50.288H190.923V47.2987Z" fill="white" stroke="#263238" stroke-width="0.505594" stroke-linecap="round" stroke-linejoin="round"/>
<path d="M193.033 60.6765H191.548V63.7215H193.033V60.6765Z" fill="white" stroke="#263238" stroke-width="0.505594" stroke-linecap="round" stroke-linejoin="round"/>
<path d="M190.923 83.0619H189.437V86.1069H190.923V83.0619Z" fill="white" stroke="#263238" stroke-width="0.505594" stroke-linecap="round" stroke-linejoin="round"/>
<path d="M193.033 78.5842H191.548V81.6292H193.033V78.5842Z" fill="white" stroke="#263238" stroke-width="0.505594" stroke-linecap="round" stroke-linejoin="round"/>
<path d="M193.033 105.448H191.548V108.493H193.033V105.448Z" fill="white" stroke="#263238" stroke-width="0.505594" stroke-linecap="round" stroke-linejoin="round"/>
<path d="M190.923 105.448H189.437V108.493H190.923V105.448Z" fill="white" stroke="#263238" stroke-width="0.505594" stroke-linecap="round" stroke-linejoin="round"/>
<path d="M193.033 100.97H191.548V104.015H193.033V100.97Z" fill="white" stroke="#263238" stroke-width="0.505594" stroke-linecap="round" stroke-linejoin="round"/>
<path d="M193.033 83.0619H191.548V86.1069H193.033V83.0619Z" fill="white" stroke="#263238" stroke-width="0.505594" stroke-linecap="round" stroke-linejoin="round"/>
<path d="M193.033 96.4919H191.548V99.5369H193.033V96.4919Z" fill="white" stroke="#263238" stroke-width="0.505594" stroke-linecap="round" stroke-linejoin="round"/>
<path d="M193.033 87.5366H191.548V90.5816H193.033V87.5366Z" fill="white" stroke="#263238" stroke-width="0.505594" stroke-linecap="round" stroke-linejoin="round"/>
<path d="M193.033 92.0143H191.548V95.0593H193.033V92.0143Z" fill="white" stroke="#263238" stroke-width="0.505594" stroke-linecap="round" stroke-linejoin="round"/>
<path d="M193.033 65.1538H191.548V68.1988H193.033V65.1538Z" fill="white" stroke="#263238" stroke-width="0.505594" stroke-linecap="round" stroke-linejoin="round"/>
<path d="M170.846 109.922H168.305V113.503H170.846V109.922Z" fill="white" stroke="#263238" stroke-width="0.505594" stroke-linecap="round" stroke-linejoin="round"/>
<path d="M184.595 109.922H182.054V113.503H184.595V109.922Z" fill="white" stroke="#263238" stroke-width="0.505594" stroke-linecap="round" stroke-linejoin="round"/>
<path d="M175.429 109.922H172.888V113.503H175.429V109.922Z" fill="white" stroke="#263238" stroke-width="0.505594" stroke-linecap="round" stroke-linejoin="round"/>
<path d="M180.011 109.922H177.471V113.503H180.011V109.922Z" fill="white" stroke="#263238" stroke-width="0.505594" stroke-linecap="round" stroke-linejoin="round"/>
<path d="M193.033 109.922H191.548V113.503H193.033V109.922Z" fill="white" stroke="#263238" stroke-width="0.505594" stroke-linecap="round" stroke-linejoin="round"/>
<path d="M188.816 109.922H187.33V113.503H188.816V109.922Z" fill="white" stroke="#263238" stroke-width="0.505594" stroke-linecap="round" stroke-linejoin="round"/>
<path d="M190.923 109.922H189.437V113.503H190.923V109.922Z" fill="white" stroke="#263238" stroke-width="0.505594" stroke-linecap="round" stroke-linejoin="round"/>
<path d="M170.846 47.2987H168.305V50.288H170.846V47.2987Z" fill="white" stroke="#263238" stroke-width="0.505594" stroke-linecap="round" stroke-linejoin="round"/>
<path d="M180.011 47.2987H177.471V50.288H180.011V47.2987Z" fill="white" stroke="#263238" stroke-width="0.505594" stroke-linecap="round" stroke-linejoin="round"/>
<path d="M184.595 47.2987H182.054V50.288H184.595V47.2987Z" fill="white" stroke="#263238" stroke-width="0.505594" stroke-linecap="round" stroke-linejoin="round"/>
<path d="M175.429 47.2987H172.888V50.288H175.429V47.2987Z" fill="white" stroke="#263238" stroke-width="0.505594" stroke-linecap="round" stroke-linejoin="round"/>
<path d="M188.816 47.2987H187.33V50.288H188.816V47.2987Z" fill="white" stroke="#263238" stroke-width="0.505594" stroke-linecap="round" stroke-linejoin="round"/>
<path d="M166.263 109.922H163.722V113.503H166.263V109.922Z" fill="white" stroke="#263238" stroke-width="0.505594" stroke-linecap="round" stroke-linejoin="round"/>
<path d="M166.263 47.2985H163.722V50.2878H166.263V47.2985Z" fill="white" stroke="#263238" stroke-width="0.505594" stroke-linecap="round" stroke-linejoin="round"/>
<path d="M193.033 56.1985H191.548V59.2435H193.033V56.1985Z" fill="white" stroke="#263238" stroke-width="0.505594" stroke-linecap="round" stroke-linejoin="round"/>
<path d="M184.595 51.7209H182.054V54.7659H184.595V51.7209Z" fill="white" stroke="#263238" stroke-width="0.505594" stroke-linecap="round" stroke-linejoin="round"/>
<path d="M188.816 51.7209H187.33V54.7659H188.816V51.7209Z" fill="white" stroke="#263238" stroke-width="0.505594" stroke-linecap="round" stroke-linejoin="round"/>
<path d="M180.011 51.7205H177.471V54.7655H180.011V51.7205Z" fill="white" stroke="#263238" stroke-width="0.505594" stroke-linecap="round" stroke-linejoin="round"/>
<path d="M190.923 51.7205H189.437V54.7655H190.923V51.7205Z" fill="white" stroke="#263238" stroke-width="0.505594" stroke-linecap="round" stroke-linejoin="round"/>
<path d="M166.263 51.7209H163.722V54.7659H166.263V51.7209Z" fill="white" stroke="#263238" stroke-width="0.505594" stroke-linecap="round" stroke-linejoin="round"/>
<path d="M170.846 51.7209H168.305V54.7659H170.846V51.7209Z" fill="white" stroke="#263238" stroke-width="0.505594" stroke-linecap="round" stroke-linejoin="round"/>
<path d="M175.429 51.7205H172.888V54.7655H175.429V51.7205Z" fill="white" stroke="#263238" stroke-width="0.505594" stroke-linecap="round" stroke-linejoin="round"/>
<path d="M190.923 60.6765H189.437V63.7215H190.923V60.6765Z" fill="white" stroke="#263238" stroke-width="0.505594" stroke-linecap="round" stroke-linejoin="round"/>
<path d="M184.595 105.448H182.054V108.493H184.595V105.448Z" fill="white" stroke="#263238" stroke-width="0.505594" stroke-linecap="round" stroke-linejoin="round"/>
<path d="M190.923 69.6285H189.437V72.6735H190.923V69.6285Z" fill="white" stroke="#263238" stroke-width="0.505594" stroke-linecap="round" stroke-linejoin="round"/>
<path d="M190.923 78.5842H189.437V81.6292H190.923V78.5842Z" fill="white" stroke="#263238" stroke-width="0.505594" stroke-linecap="round" stroke-linejoin="round"/>
<path d="M190.923 65.1538H189.437V68.1988H190.923V65.1538Z" fill="white" stroke="#263238" stroke-width="0.505594" stroke-linecap="round" stroke-linejoin="round"/>
<path d="M190.923 56.1985H189.437V59.2435H190.923V56.1985Z" fill="white" stroke="#263238" stroke-width="0.505594" stroke-linecap="round" stroke-linejoin="round"/>
<path d="M166.263 56.1985H163.722V59.2435H166.263V56.1985Z" fill="white" stroke="#263238" stroke-width="0.505594" stroke-linecap="round" stroke-linejoin="round"/>
<path d="M190.923 74.1066H189.437V77.1516H190.923V74.1066Z" fill="white" stroke="#263238" stroke-width="0.505594" stroke-linecap="round" stroke-linejoin="round"/>
<path d="M166.263 100.97H163.722V104.015H166.263V100.97Z" fill="white" stroke="#263238" stroke-width="0.505594" stroke-linecap="round" stroke-linejoin="round"/>
<path d="M166.263 92.0143H163.722V95.0593H166.263V92.0143Z" fill="white" stroke="#263238" stroke-width="0.505594" stroke-linecap="round" stroke-linejoin="round"/>
<path d="M166.263 96.4923H163.722V99.5373H166.263V96.4923Z" fill="white" stroke="#263238" stroke-width="0.505594" stroke-linecap="round" stroke-linejoin="round"/>
<path d="M166.263 60.6761H163.722V63.7211H166.263V60.6761Z" fill="white" stroke="#263238" stroke-width="0.505594" stroke-linecap="round" stroke-linejoin="round"/>
<path d="M180.011 105.448H177.471V108.493H180.011V105.448Z" fill="white" stroke="#263238" stroke-width="0.505594" stroke-linecap="round" stroke-linejoin="round"/>
<path d="M170.846 105.448H168.305V108.493H170.846V105.448Z" fill="white" stroke="#263238" stroke-width="0.505594" stroke-linecap="round" stroke-linejoin="round"/>
<path d="M175.429 105.448H172.888V108.493H175.429V105.448Z" fill="white" stroke="#263238" stroke-width="0.505594" stroke-linecap="round" stroke-linejoin="round"/>
<path d="M166.263 105.448H163.722V108.493H166.263V105.448Z" fill="white" stroke="#263238" stroke-width="0.505594" stroke-linecap="round" stroke-linejoin="round"/>
<path d="M166.263 74.1066H163.722V77.1516H166.263V74.1066Z" fill="white" stroke="#263238" stroke-width="0.505594" stroke-linecap="round" stroke-linejoin="round"/>
<path d="M166.263 69.6285H163.722V72.6735H166.263V69.6285Z" fill="white" stroke="#263238" stroke-width="0.505594" stroke-linecap="round" stroke-linejoin="round"/>
<path d="M166.263 65.1542H163.722V68.1992H166.263V65.1542Z" fill="white" stroke="#263238" stroke-width="0.505594" stroke-linecap="round" stroke-linejoin="round"/>
<path d="M166.263 83.0619H163.722V86.1069H166.263V83.0619Z" fill="white" stroke="#263238" stroke-width="0.505594" stroke-linecap="round" stroke-linejoin="round"/>
<path d="M166.263 87.5366H163.722V90.5816H166.263V87.5366Z" fill="white" stroke="#263238" stroke-width="0.505594" stroke-linecap="round" stroke-linejoin="round"/>
<path d="M166.263 78.5842H163.722V81.6292H166.263V78.5842Z" fill="white" stroke="#263238" stroke-width="0.505594" stroke-linecap="round" stroke-linejoin="round"/>
<path d="M117.45 43.3154H84.8215V113.505H117.45V43.3154Z" fill="#263238" stroke="#263238" stroke-width="0.505594" stroke-linecap="round" stroke-linejoin="round"/>
<path d="M117.45 43.3154H84.8215V45.8622H117.45V43.3154Z" fill="white" stroke="#263238" stroke-width="0.505594" stroke-linecap="round" stroke-linejoin="round"/>
<path d="M114.588 43.3156H81.959V113.505H114.588V43.3156Z" fill="white" stroke="#263238" stroke-width="0.505594" stroke-linecap="round" stroke-linejoin="round"/>
<path d="M114.588 43.3156H81.959V45.8778H114.588V43.3156Z" fill="white" stroke="#263238" stroke-width="0.505594" stroke-linecap="round" stroke-linejoin="round"/>
<path d="M113.474 48.0902H83.0732V49.0464H113.474V48.0902Z" fill="white" stroke="#263238" stroke-width="0.505594" stroke-linecap="round" stroke-linejoin="round"/>
<path d="M113.474 50.7949H83.0732V51.7511H113.474V50.7949Z" fill="white" stroke="#263238" stroke-width="0.505594" stroke-linecap="round" stroke-linejoin="round"/>
<path d="M113.474 53.4998H83.0732V54.456H113.474V53.4998Z" fill="white" stroke="#263238" stroke-width="0.505594" stroke-linecap="round" stroke-linejoin="round"/>
<path d="M113.474 56.2069H83.0732V57.1631H113.474V56.2069Z" fill="white" stroke="#263238" stroke-width="0.505594" stroke-linecap="round" stroke-linejoin="round"/>
<path d="M113.474 58.9117H83.0732V59.8679H113.474V58.9117Z" fill="white" stroke="#263238" stroke-width="0.505594" stroke-linecap="round" stroke-linejoin="round"/>
<path d="M113.474 61.6165H83.0732V62.5727H113.474V61.6165Z" fill="white" stroke="#263238" stroke-width="0.505594" stroke-linecap="round" stroke-linejoin="round"/>
<path d="M113.474 64.3241H83.0732V65.2803H113.474V64.3241Z" fill="white" stroke="#263238" stroke-width="0.505594" stroke-linecap="round" stroke-linejoin="round"/>
<path d="M113.474 67.0284H83.0732V67.9846H113.474V67.0284Z" fill="white" stroke="#263238" stroke-width="0.505594" stroke-linecap="round" stroke-linejoin="round"/>
<path d="M113.474 69.7365H83.0732V70.6927H113.474V69.7365Z" fill="white" stroke="#263238" stroke-width="0.505594" stroke-linecap="round" stroke-linejoin="round"/>
<path d="M113.474 72.4412H83.0732V73.3974H113.474V72.4412Z" fill="white" stroke="#263238" stroke-width="0.505594" stroke-linecap="round" stroke-linejoin="round"/>
<path d="M113.474 75.1455H83.0732V76.1017H113.474V75.1455Z" fill="white" stroke="#263238" stroke-width="0.505594" stroke-linecap="round" stroke-linejoin="round"/>
<path d="M113.474 77.8531H83.0732V78.8094H113.474V77.8531Z" fill="white" stroke="#263238" stroke-width="0.505594" stroke-linecap="round" stroke-linejoin="round"/>
<path d="M113.474 80.558H83.0732V81.5142H113.474V80.558Z" fill="white" stroke="#263238" stroke-width="0.505594" stroke-linecap="round" stroke-linejoin="round"/>
<path d="M113.474 83.2627H83.0732V84.2189H113.474V83.2627Z" fill="white" stroke="#263238" stroke-width="0.505594" stroke-linecap="round" stroke-linejoin="round"/>
<path d="M113.474 85.9698H83.0732V86.9261H113.474V85.9698Z" fill="white" stroke="#263238" stroke-width="0.505594" stroke-linecap="round" stroke-linejoin="round"/>
<path d="M113.474 88.6747H83.0732V89.6309H113.474V88.6747Z" fill="white" stroke="#263238" stroke-width="0.505594" stroke-linecap="round" stroke-linejoin="round"/>
<path d="M113.474 91.3827H83.0732V92.3389H113.474V91.3827Z" fill="white" stroke="#263238" stroke-width="0.505594" stroke-linecap="round" stroke-linejoin="round"/>
<path d="M113.474 94.087H83.0732V95.0432H113.474V94.087Z" fill="white" stroke="#263238" stroke-width="0.505594" stroke-linecap="round" stroke-linejoin="round"/>
<path d="M113.474 96.7914H83.0732V97.7476H113.474V96.7914Z" fill="white" stroke="#263238" stroke-width="0.505594" stroke-linecap="round" stroke-linejoin="round"/>
<path d="M113.474 99.4994H83.0732V100.456H113.474V99.4994Z" fill="white" stroke="#263238" stroke-width="0.505594" stroke-linecap="round" stroke-linejoin="round"/>
<path d="M113.474 102.204H83.0732V103.16H113.474V102.204Z" fill="white" stroke="#263238" stroke-width="0.505594" stroke-linecap="round" stroke-linejoin="round"/>
<path d="M113.474 104.909H83.0732V105.865H113.474V104.909Z" fill="white" stroke="#263238" stroke-width="0.505594" stroke-linecap="round" stroke-linejoin="round"/>
<path d="M113.474 107.616H83.0732V108.572H113.474V107.616Z" fill="white" stroke="#263238" stroke-width="0.505594" stroke-linecap="round" stroke-linejoin="round"/>
<path d="M109.258 71.8097H86.0125V113.505H109.258V71.8097Z" fill="#263238" stroke="#263238" stroke-width="0.505594" stroke-linecap="round" stroke-linejoin="round"/>
<path d="M106.87 71.8097H83.6239V113.505H106.87V71.8097Z" fill="white" stroke="#263238" stroke-width="0.505594" stroke-linecap="round" stroke-linejoin="round"/>
<path d="M105.991 73.9541H84.5831V74.9103H105.991V73.9541Z" fill="white" stroke="#263238" stroke-width="0.505594" stroke-linecap="round" stroke-linejoin="round"/>
<path d="M105.991 76.9774H84.5831V77.9336H105.991V76.9774Z" fill="white" stroke="#263238" stroke-width="0.505594" stroke-linecap="round" stroke-linejoin="round"/>
<path d="M105.991 80.0009H84.5831V80.9571H105.991V80.0009Z" fill="white" stroke="#263238" stroke-width="0.505594" stroke-linecap="round" stroke-linejoin="round"/>
<path d="M105.991 83.0242H84.5831V83.9804H105.991V83.0242Z" fill="white" stroke="#263238" stroke-width="0.505594" stroke-linecap="round" stroke-linejoin="round"/>
<path d="M105.991 86.0508H84.5831V87.007H105.991V86.0508Z" fill="white" stroke="#263238" stroke-width="0.505594" stroke-linecap="round" stroke-linejoin="round"/>
<path d="M105.991 89.0741H84.5831V90.0303H105.991V89.0741Z" fill="white" stroke="#263238" stroke-width="0.505594" stroke-linecap="round" stroke-linejoin="round"/>
<path d="M105.991 92.0974H84.5831V93.0536H105.991V92.0974Z" fill="white" stroke="#263238" stroke-width="0.505594" stroke-linecap="round" stroke-linejoin="round"/>
<path d="M105.991 95.1208H84.5831V96.0771H105.991V95.1208Z" fill="white" stroke="#263238" stroke-width="0.505594" stroke-linecap="round" stroke-linejoin="round"/>
<path d="M105.991 98.1438H84.5831V99.1H105.991V98.1438Z" fill="white" stroke="#263238" stroke-width="0.505594" stroke-linecap="round" stroke-linejoin="round"/>
<path d="M105.991 101.17H84.5831V102.127H105.991V101.17Z" fill="white" stroke="#263238" stroke-width="0.505594" stroke-linecap="round" stroke-linejoin="round"/>
<path d="M105.991 104.194H84.5831V105.15H105.991V104.194Z" fill="white" stroke="#263238" stroke-width="0.505594" stroke-linecap="round" stroke-linejoin="round"/>
<path d="M105.991 107.217H84.5831V108.173H105.991V107.217Z" fill="white" stroke="#263238" stroke-width="0.505594" stroke-linecap="round" stroke-linejoin="round"/>
<path d="M153.817 26.0977H148.624H143.428L134.117 103.999H145.758H147.371H163.128L153.817 26.0977Z" fill="#263238" stroke="#263238" stroke-width="0.505594" stroke-linecap="round" stroke-linejoin="round"/>
<path d="M151.31 26.0977H146.117H140.922L131.61 103.999H143.252H144.861H160.621L151.31 26.0977Z" fill="#B0B0B0" stroke="#263238" stroke-width="0.505594" stroke-linecap="round" stroke-linejoin="round"/>
<path d="M134.3 81.511L134.015 83.8938H158.217L157.933 81.511H134.3Z" fill="#E3E3E3" stroke="#263238" stroke-width="0.505594" stroke-linecap="round" stroke-linejoin="round"/>
<path d="M135.005 75.6005L134.72 77.9863H157.511L157.227 75.6005H135.005Z" fill="#E3E3E3" stroke="#263238" stroke-width="0.505594" stroke-linecap="round" stroke-linejoin="round"/>
<path d="M136.42 63.7825L136.132 66.1652H156.101L155.813 63.7825H136.42Z" fill="#E3E3E3" stroke="#263238" stroke-width="0.505594" stroke-linecap="round" stroke-linejoin="round"/>
<path d="M135.711 69.6929L135.426 72.0756H156.806L156.521 69.6929H135.711Z" fill="#E3E3E3" stroke="#263238" stroke-width="0.505594" stroke-linecap="round" stroke-linejoin="round"/>
<path d="M133.592 87.4215L133.307 89.8043H158.926L158.642 87.4215H133.592Z" fill="#E3E3E3" stroke="#263238" stroke-width="0.505594" stroke-linecap="round" stroke-linejoin="round"/>
<path d="M159.631 95.7147L159.347 93.3319H132.886L132.601 95.7147H159.631Z" fill="#E3E3E3" stroke="#263238" stroke-width="0.505594" stroke-linecap="round" stroke-linejoin="round"/>
<path d="M139.245 40.1434L138.961 42.5262H153.273L152.988 40.1434H139.245Z" fill="#E3E3E3" stroke="#263238" stroke-width="0.505594" stroke-linecap="round" stroke-linejoin="round"/>
<path d="M140.656 28.3224L140.372 30.7083H151.861L151.577 28.3224H140.656Z" fill="#E3E3E3" stroke="#263238" stroke-width="0.505594" stroke-linecap="round" stroke-linejoin="round"/>
<path d="M139.95 34.2329L139.666 36.6157H152.567L152.282 34.2329H139.95Z" fill="#E3E3E3" stroke="#263238" stroke-width="0.505594" stroke-linecap="round" stroke-linejoin="round"/>
<path d="M137.125 57.8719L136.84 60.2547H155.392L155.107 57.8719H137.125Z" fill="#E3E3E3" stroke="#263238" stroke-width="0.505594" stroke-linecap="round" stroke-linejoin="round"/>
<path d="M138.536 46.0538L138.252 48.4366H153.981L153.696 46.0538H138.536Z" fill="#E3E3E3" stroke="#263238" stroke-width="0.505594" stroke-linecap="round" stroke-linejoin="round"/>
<path d="M137.831 51.9614L137.546 54.3473H154.687L154.402 51.9614H137.831Z" fill="#E3E3E3" stroke="#263238" stroke-width="0.505594" stroke-linecap="round" stroke-linejoin="round"/>
<path d="M150.899 15.7124H145.632L144.506 26.0976H152.025L150.899 15.7124Z" fill="#263238" stroke="#263238" stroke-width="0.505594" stroke-linecap="round" stroke-linejoin="round"/>
<path d="M149.822 15.7124H144.558L143.429 26.0976H150.951L149.822 15.7124Z" fill="#B0B0B0" stroke="#263238" stroke-width="0.505594" stroke-linecap="round" stroke-linejoin="round"/>
<path d="M170.515 101.492H128.027V113.505H170.515V101.492Z" fill="#263238" stroke="#263238" stroke-width="0.505594" stroke-linecap="round" stroke-linejoin="round"/>
<path d="M163.766 101.492H128.027V113.505H163.766V101.492Z" fill="#B0B0B0" stroke="#263238" stroke-width="0.505594" stroke-linecap="round" stroke-linejoin="round"/>
<path d="M135.909 106.15H130.358V113.505H135.909V106.15Z" fill="#263238" stroke="#263238" stroke-width="0.505594" stroke-linecap="round" stroke-linejoin="round"/>
<path d="M160.981 106.15H155.429V113.505H160.981V106.15Z" fill="#263238" stroke="#263238" stroke-width="0.505594" stroke-linecap="round" stroke-linejoin="round"/>
<path d="M152.882 106.15H137.967V113.505H152.882V106.15Z" fill="#263238" stroke="#263238" stroke-width="0.505594" stroke-linecap="round" stroke-linejoin="round"/>
<path d="M64.8338 86.9297H27.3871V113.505H64.8338V86.9297Z" fill="#263238" stroke="#263238" stroke-width="0.505594" stroke-linecap="round" stroke-linejoin="round"/>
<path d="M40.4491 81.6505H27.3872V87.7096H40.4491V81.6505Z" fill="#263238" stroke="#263238" stroke-width="0.505594" stroke-linecap="round" stroke-linejoin="round"/>
<path d="M37.859 81.6505H27.3872V87.7096H37.859V81.6505Z" fill="white" stroke="#263238" stroke-width="0.505594" stroke-linecap="round" stroke-linejoin="round"/>
<path d="M64.8338 86.9297H27.3871V88.904H64.8338V86.9297Z" fill="white" stroke="#263238" stroke-width="0.505594" stroke-linecap="round" stroke-linejoin="round"/>
<path d="M58.75 86.9297H27.3871V113.505H58.75V86.9297Z" fill="#B0B0B0" stroke="#263238" stroke-width="0.505594" stroke-linecap="round" stroke-linejoin="round"/>
<path d="M58.75 86.9297H27.3871V88.904H58.75V86.9297Z" fill="white" stroke="#263238" stroke-width="0.505594" stroke-linecap="round" stroke-linejoin="round"/>
<path d="M31.3854 90.7698H29.4668V92.6884H31.3854V90.7698Z" fill="white" stroke="#263238" stroke-width="0.505594" stroke-linecap="round" stroke-linejoin="round"/>
<path d="M35.3831 90.7699H33.4645V92.6885H35.3831V90.7699Z" fill="white" stroke="#263238" stroke-width="0.505594" stroke-linecap="round" stroke-linejoin="round"/>
<path d="M39.3849 90.7699H37.4663V92.6885H39.3849V90.7699Z" fill="white" stroke="#263238" stroke-width="0.505594" stroke-linecap="round" stroke-linejoin="round"/>
<path d="M43.3858 90.7699H41.4672V92.6885H43.3858V90.7699Z" fill="white" stroke="#263238" stroke-width="0.505594" stroke-linecap="round" stroke-linejoin="round"/>
<path d="M47.3836 90.7699H45.465V92.6885H47.3836V90.7699Z" fill="white" stroke="#263238" stroke-width="0.505594" stroke-linecap="round" stroke-linejoin="round"/>
<path d="M51.3851 90.7699H49.4666V92.6885H51.3851V90.7699Z" fill="white" stroke="#263238" stroke-width="0.505594" stroke-linecap="round" stroke-linejoin="round"/>
<path d="M55.3863 90.7699H53.4677V92.6885H55.3863V90.7699Z" fill="white" stroke="#263238" stroke-width="0.505594" stroke-linecap="round" stroke-linejoin="round"/>
<path d="M62.265 90.7699H60.3464V92.6885H62.265V90.7699Z" fill="white" stroke="#263238" stroke-width="0.505594" stroke-linecap="round" stroke-linejoin="round"/>
<path d="M31.3854 94.7711H29.4668V96.6897H31.3854V94.7711Z" fill="white" stroke="#263238" stroke-width="0.505594" stroke-linecap="round" stroke-linejoin="round"/>
<path d="M35.3831 94.7711H33.4645V96.6897H35.3831V94.7711Z" fill="white" stroke="#263238" stroke-width="0.505594" stroke-linecap="round" stroke-linejoin="round"/>
<path d="M39.3849 94.7711H37.4663V96.6897H39.3849V94.7711Z" fill="white" stroke="#263238" stroke-width="0.505594" stroke-linecap="round" stroke-linejoin="round"/>
<path d="M43.3858 94.7711H41.4672V96.6897H43.3858V94.7711Z" fill="white" stroke="#263238" stroke-width="0.505594" stroke-linecap="round" stroke-linejoin="round"/>
<path d="M47.3836 94.7711H45.465V96.6897H47.3836V94.7711Z" fill="white" stroke="#263238" stroke-width="0.505594" stroke-linecap="round" stroke-linejoin="round"/>
<path d="M51.3851 94.7711H49.4666V96.6897H51.3851V94.7711Z" fill="white" stroke="#263238" stroke-width="0.505594" stroke-linecap="round" stroke-linejoin="round"/>
<path d="M55.3863 94.7711H53.4677V96.6897H55.3863V94.7711Z" fill="white" stroke="#263238" stroke-width="0.505594" stroke-linecap="round" stroke-linejoin="round"/>
<path d="M62.265 94.7711H60.3464V96.6897H62.265V94.7711Z" fill="white" stroke="#263238" stroke-width="0.505594" stroke-linecap="round" stroke-linejoin="round"/>
<path d="M31.3854 98.7693H29.4668V100.688H31.3854V98.7693Z" fill="white" stroke="#263238" stroke-width="0.505594" stroke-linecap="round" stroke-linejoin="round"/>
<path d="M35.3831 98.7694H33.4645V100.688H35.3831V98.7694Z" fill="white" stroke="#263238" stroke-width="0.505594" stroke-linecap="round" stroke-linejoin="round"/>
<path d="M39.3849 98.7694H37.4663V100.688H39.3849V98.7694Z" fill="white" stroke="#263238" stroke-width="0.505594" stroke-linecap="round" stroke-linejoin="round"/>
<path d="M43.3858 98.7694H41.4672V100.688H43.3858V98.7694Z" fill="white" stroke="#263238" stroke-width="0.505594" stroke-linecap="round" stroke-linejoin="round"/>
<path d="M47.3836 98.7694H45.465V100.688H47.3836V98.7694Z" fill="white" stroke="#263238" stroke-width="0.505594" stroke-linecap="round" stroke-linejoin="round"/>
<path d="M51.3851 98.7694H49.4666V100.688H51.3851V98.7694Z" fill="white" stroke="#263238" stroke-width="0.505594" stroke-linecap="round" stroke-linejoin="round"/>
<path d="M55.3863 98.7694H53.4677V100.688H55.3863V98.7694Z" fill="white" stroke="#263238" stroke-width="0.505594" stroke-linecap="round" stroke-linejoin="round"/>
<path d="M62.265 98.7694H60.3464V100.688H62.265V98.7694Z" fill="white" stroke="#263238" stroke-width="0.505594" stroke-linecap="round" stroke-linejoin="round"/>
<path d="M31.3854 102.77H29.4668V104.689H31.3854V102.77Z" fill="white" stroke="#263238" stroke-width="0.505594" stroke-linecap="round" stroke-linejoin="round"/>
<path d="M35.3831 102.77H33.4645V104.689H35.3831V102.77Z" fill="white" stroke="#263238" stroke-width="0.505594" stroke-linecap="round" stroke-linejoin="round"/>
<path d="M39.3849 102.77H37.4663V104.689H39.3849V102.77Z" fill="white" stroke="#263238" stroke-width="0.505594" stroke-linecap="round" stroke-linejoin="round"/>
<path d="M43.3858 102.77H41.4672V104.689H43.3858V102.77Z" fill="white" stroke="#263238" stroke-width="0.505594" stroke-linecap="round" stroke-linejoin="round"/>
<path d="M47.3836 102.77H45.465V104.689H47.3836V102.77Z" fill="white" stroke="#263238" stroke-width="0.505594" stroke-linecap="round" stroke-linejoin="round"/>
<path d="M51.3851 102.77H49.4666V104.689H51.3851V102.77Z" fill="white" stroke="#263238" stroke-width="0.505594" stroke-linecap="round" stroke-linejoin="round"/>
<path d="M55.3863 102.77H53.4677V104.689H55.3863V102.77Z" fill="white" stroke="#263238" stroke-width="0.505594" stroke-linecap="round" stroke-linejoin="round"/>
<path d="M62.265 102.77H60.3464V104.689H62.265V102.77Z" fill="white" stroke="#263238" stroke-width="0.505594" stroke-linecap="round" stroke-linejoin="round"/>
<path d="M31.3854 106.772H29.4668V108.69H31.3854V106.772Z" fill="white" stroke="#263238" stroke-width="0.505594" stroke-linecap="round" stroke-linejoin="round"/>
<path d="M35.3831 106.772H33.4645V108.69H35.3831V106.772Z" fill="white" stroke="#263238" stroke-width="0.505594" stroke-linecap="round" stroke-linejoin="round"/>
<path d="M39.3849 106.772H37.4663V108.69H39.3849V106.772Z" fill="white" stroke="#263238" stroke-width="0.505594" stroke-linecap="round" stroke-linejoin="round"/>
<path d="M43.3858 106.772H41.4672V108.69H43.3858V106.772Z" fill="white" stroke="#263238" stroke-width="0.505594" stroke-linecap="round" stroke-linejoin="round"/>
<path d="M47.3836 106.772H45.465V108.69H47.3836V106.772Z" fill="white" stroke="#263238" stroke-width="0.505594" stroke-linecap="round" stroke-linejoin="round"/>
<path d="M51.3851 106.772H49.4666V108.69H51.3851V106.772Z" fill="white" stroke="#263238" stroke-width="0.505594" stroke-linecap="round" stroke-linejoin="round"/>
<path d="M55.3863 106.772H53.4677V108.69H55.3863V106.772Z" fill="white" stroke="#263238" stroke-width="0.505594" stroke-linecap="round" stroke-linejoin="round"/>
<path d="M62.315 106.772H60.3964V108.69H62.315V106.772Z" fill="white" stroke="#263238" stroke-width="0.505594" stroke-linecap="round" stroke-linejoin="round"/>
<path d="M211.196 92.6472C211.196 97.701 206.835 101.8 201.46 101.8C196.085 101.8 191.725 97.7031 191.725 92.6472C191.725 87.5913 196.085 70.2225 201.46 70.2225C206.835 70.2225 211.196 87.5934 211.196 92.6472Z" fill="#CC8A8A"/>
<path d="M206.919 95.292L203.97 96.0392L204.561 94.8229L203.153 96.2472L201.745 96.6038L201.646 92.607L206.767 87.9395L204.022 89.8222L204.486 88.5126L203.174 90.4038L201.615 91.4714L201.46 85.2269L200.9 94.3348L196.048 90.8071L198.715 93.2926L196.199 93.1016L199.306 93.8445L200.844 95.2793L200.575 99.6708L198.783 98.8367L200.519 100.579L199.696 114H202.181L201.76 97.2426L206.919 95.292Z" fill="#263238"/>
<path d="M206.817 85.2461C206.817 85.2461 206.907 85.8595 206.418 86.3095C205.929 86.7595 205.047 86.8762 205.047 86.8762C205.047 86.8762 204.957 86.2628 205.446 85.8128C205.935 85.3628 206.817 85.2461 206.817 85.2461Z" fill="white"/>
<path d="M209.751 88.0752C209.751 88.0752 209.84 88.6886 209.351 89.1386C208.862 89.5886 207.98 89.7053 207.98 89.7053C207.98 89.7053 207.891 89.0919 208.38 88.6419C208.869 88.1919 209.751 88.0752 209.751 88.0752Z" fill="white"/>
<path d="M209.75 93.5812C209.75 93.5812 209.534 94.1797 208.853 94.4917C208.172 94.8037 207.284 94.7082 207.284 94.7082C207.284 94.7082 207.501 94.1097 208.181 93.7977C208.862 93.4856 209.75 93.5812 209.75 93.5812Z" fill="white"/>
<path d="M193.634 93.5812C193.634 93.5812 193.851 94.1797 194.532 94.4917C195.212 94.8037 196.101 94.7082 196.101 94.7082C196.101 94.7082 195.884 94.1097 195.203 93.7977C194.522 93.4856 193.634 93.5812 193.634 93.5812Z" fill="white"/>
<path d="M206.359 91.2953C206.359 91.2953 206.449 91.9087 205.96 92.3587C205.471 92.8087 204.589 92.9254 204.589 92.9254C204.589 92.9254 204.499 92.312 204.988 91.862C205.477 91.412 206.359 91.2953 206.359 91.2953Z" fill="white"/>
<path d="M205.601 82.1704C205.601 82.1704 205.69 82.7838 205.201 83.2338C204.712 83.6838 203.831 83.8005 203.831 83.8005C203.831 83.8005 203.741 83.1871 204.23 82.7371C204.719 82.2872 205.601 82.1704 205.601 82.1704Z" fill="white"/>
<path d="M203.852 84.5159C203.852 84.5159 203.942 85.1293 203.453 85.5793C202.964 86.0292 202.082 86.146 202.082 86.146C202.082 86.146 201.993 85.5326 202.482 85.0826C202.97 84.6326 203.852 84.5159 203.852 84.5159Z" fill="white"/>
<path d="M208.002 82.8093C208.002 82.8093 208.092 83.4227 207.603 83.8727C207.114 84.3227 206.232 84.4394 206.232 84.4394C206.232 84.4394 206.142 83.826 206.631 83.376C207.12 82.9261 208.002 82.8093 208.002 82.8093Z" fill="white"/>
<path d="M194.513 82.8093C194.513 82.8093 194.423 83.4227 194.912 83.8727C195.401 84.3227 196.283 84.4394 196.283 84.4394C196.283 84.4394 196.373 83.826 195.884 83.376C195.395 82.9261 194.513 82.8093 194.513 82.8093Z" fill="white"/>
<path d="M205.978 79.3026C205.978 79.3026 206.068 79.916 205.579 80.366C205.09 80.816 204.208 80.9327 204.208 80.9327C204.208 80.9327 204.118 80.3193 204.607 79.8693C205.096 79.4193 205.978 79.3026 205.978 79.3026Z" fill="white"/>
<path d="M205.121 76.257C205.121 76.257 205.434 76.8343 205.125 77.3564C204.815 77.8765 204.004 78.1418 204.004 78.1418C204.004 78.1418 203.692 77.5644 204.001 77.0423C204.311 76.5223 205.121 76.257 205.121 76.257Z" fill="white"/>
<path d="M198.963 75.4611C198.963 75.4611 199.758 75.7476 200.04 76.2761C200.318 76.8046 199.975 77.3735 199.975 77.3735C199.975 77.3735 199.18 77.0869 198.898 76.5584C198.62 76.0299 198.963 75.4611 198.963 75.4611Z" fill="white"/>
<path d="M201.835 79.1033C201.835 79.1033 202.401 79.5808 202.355 80.1433C202.308 80.7037 201.665 81.1345 201.665 81.1345C201.665 81.1345 201.098 80.657 201.145 80.0966C201.191 79.5363 201.835 79.1054 201.835 79.1054V79.1033Z" fill="white"/>
<path d="M201.683 73.6802C201.683 73.6802 202.249 74.1578 202.203 74.7202C202.156 75.2806 201.513 75.7115 201.513 75.7115C201.513 75.7115 200.946 75.2339 200.993 74.6714C201.039 74.1111 201.683 73.6802 201.683 73.6802Z" fill="white"/>
<path d="M195.238 85.2461C195.238 85.2461 195.148 85.8595 195.637 86.3095C196.126 86.7595 197.008 86.8762 197.008 86.8762C197.008 86.8762 197.097 86.2628 196.608 85.8128C196.119 85.3628 195.238 85.2461 195.238 85.2461Z" fill="white"/>
<path d="M193.566 88.5846C193.566 88.5846 193.476 89.198 193.965 89.648C194.454 90.098 195.336 90.2147 195.336 90.2147C195.336 90.2147 195.426 89.6013 194.937 89.1513C194.448 88.7013 193.566 88.5846 193.566 88.5846Z" fill="white"/>
<path d="M198.007 89.7946C198.007 89.7946 197.917 90.408 198.406 90.858C198.895 91.3079 199.777 91.4247 199.777 91.4247C199.777 91.4247 199.867 90.8113 199.378 90.3613C198.889 89.9113 198.007 89.7946 198.007 89.7946Z" fill="white"/>
<path d="M199.22 85.1718C199.22 85.1718 198.876 85.7427 199.158 86.2691C199.44 86.7976 200.235 87.082 200.235 87.082C200.235 87.082 200.578 86.5111 200.297 85.9847C200.015 85.4562 199.22 85.1718 199.22 85.1718Z" fill="white"/>
<path d="M196.076 97.476C196.076 97.476 196.973 97.4866 197.589 97.1151C198.205 96.7437 198.301 96.1303 198.301 96.1303C198.301 96.1303 197.404 96.1197 196.788 96.4911C196.172 96.8626 196.076 97.476 196.076 97.476Z" fill="white"/>
<path d="M204.7 96.8012C204.7 96.8012 204.944 97.3955 205.641 97.6905C206.337 97.9877 207.219 97.873 207.219 97.873C207.219 97.873 206.974 97.2787 206.278 96.9837C205.582 96.6865 204.7 96.8012 204.7 96.8012Z" fill="white"/>
<path d="M197.079 82.1704C197.079 82.1704 196.989 82.7838 197.478 83.2338C197.967 83.6838 198.849 83.8005 198.849 83.8005C198.849 83.8005 198.939 83.1871 198.45 82.7371C197.961 82.2872 197.079 82.1704 197.079 82.1704Z" fill="white"/>
<path d="M197.063 79.46C197.063 79.46 196.974 80.0734 197.463 80.5234C197.951 80.9733 198.833 81.0901 198.833 81.0901C198.833 81.0901 198.923 80.4767 198.434 80.0267C197.945 79.5767 197.063 79.46 197.063 79.46Z" fill="white"/>
<path d="M183.082 83.4716C183.082 90.6976 177.437 96.5572 170.475 96.5572C163.512 96.5572 157.868 90.7 157.868 83.4716C157.868 76.2432 163.512 51.408 170.475 51.408C177.437 51.408 183.082 76.2456 183.082 83.4716Z" fill="#CC8A8A"/>
<path d="M177.546 87.2523L173.727 88.3211L174.495 86.5797L172.669 88.6164L170.846 89.1274L170.716 83.4131L177.348 76.7403L173.795 79.431L174.396 77.5606L172.697 80.263L170.679 81.7912L170.478 72.8612L169.754 85.8835L163.469 80.8396L166.922 84.3952L163.667 84.121L167.687 85.1827L169.679 87.2336L169.33 93.5127L167.012 92.3197L169.259 94.8112L168.194 114H171.412L170.868 90.0392L177.546 87.2523Z" fill="#263238"/>
<path d="M177.413 72.889C177.413 72.889 177.53 73.7656 176.896 74.4102C176.262 75.0547 175.12 75.2212 175.12 75.2212C175.12 75.2212 175.002 74.3446 175.636 73.7C176.271 73.0555 177.413 72.889 177.413 72.889Z" fill="white"/>
<path d="M181.213 76.9321C181.213 76.9321 181.33 77.8087 180.696 78.4533C180.062 79.0978 178.92 79.2642 178.92 79.2642C178.92 79.2642 178.802 78.3877 179.437 77.7431C180.071 77.0985 181.213 76.9321 181.213 76.9321Z" fill="white"/>
<path d="M181.21 84.805C181.21 84.805 180.931 85.6605 180.046 86.1059C179.164 86.5512 178.013 86.4176 178.013 86.4176C178.013 86.4176 178.291 85.5621 179.176 85.1168C180.058 84.6714 181.21 84.805 181.21 84.805Z" fill="white"/>
<path d="M160.343 84.805C160.343 84.805 160.625 85.6605 161.507 86.1059C162.389 86.5512 163.54 86.4176 163.54 86.4176C163.54 86.4176 163.261 85.5621 162.376 85.1168C161.494 84.6714 160.343 84.805 160.343 84.805Z" fill="white"/>
<path d="M176.821 81.5378C176.821 81.5378 176.939 82.4144 176.305 83.059C175.67 83.7035 174.528 83.87 174.528 83.87C174.528 83.87 174.411 82.9934 175.045 82.3488C175.68 81.7043 176.821 81.5378 176.821 81.5378Z" fill="white"/>
<path d="M175.837 68.4921C175.837 68.4921 175.955 69.3687 175.321 70.0132C174.686 70.6578 173.544 70.8242 173.544 70.8242C173.544 70.8242 173.427 69.9476 174.061 69.303C174.695 68.6585 175.837 68.4921 175.837 68.4921Z" fill="white"/>
<path d="M173.572 71.8462C173.572 71.8462 173.69 72.7228 173.055 73.3673C172.421 74.0119 171.279 74.1783 171.279 74.1783C171.279 74.1783 171.162 73.3017 171.796 72.6572C172.43 72.0126 173.572 71.8462 173.572 71.8462Z" fill="white"/>
<path d="M178.947 69.4037C178.947 69.4037 179.065 70.2803 178.43 70.9248C177.796 71.5694 176.654 71.7358 176.654 71.7358C176.654 71.7358 176.537 70.8592 177.171 70.2147C177.805 69.5701 178.947 69.4037 178.947 69.4037Z" fill="white"/>
<path d="M161.482 69.4037C161.482 69.4037 161.365 70.2803 161.999 70.9248C162.634 71.5694 163.775 71.7358 163.775 71.7358C163.775 71.7358 163.893 70.8592 163.259 70.2147C162.624 69.5701 161.482 69.4037 161.482 69.4037Z" fill="white"/>
<path d="M176.33 64.3905C176.33 64.3905 176.447 65.2671 175.813 65.9116C175.178 66.5562 174.037 66.7226 174.037 66.7226C174.037 66.7226 173.919 65.846 174.553 65.2015C175.188 64.5569 176.33 64.3905 176.33 64.3905Z" fill="white"/>
<path d="M175.216 60.0354C175.216 60.0354 175.618 60.8628 175.219 61.6058C174.819 62.3488 173.767 62.7285 173.767 62.7285C173.767 62.7285 173.365 61.9011 173.761 61.1581C174.16 60.4151 175.212 60.0354 175.212 60.0354H175.216Z" fill="white"/>
<path d="M167.244 58.8966C167.244 58.8966 168.274 59.3068 168.636 60.0615C168.998 60.8162 168.553 61.6319 168.553 61.6319C168.553 61.6319 167.522 61.2217 167.16 60.467C166.798 59.7123 167.244 58.8966 167.244 58.8966Z" fill="white"/>
<path d="M170.964 64.1045C170.964 64.1045 171.697 64.7889 171.638 65.5905C171.576 66.3921 170.744 67.0085 170.744 67.0085C170.744 67.0085 170.011 66.3241 170.069 65.5225C170.131 64.7209 170.964 64.1045 170.964 64.1045Z" fill="white"/>
<path d="M170.766 56.3533C170.766 56.3533 171.499 57.0377 171.44 57.8393C171.378 58.6409 170.546 59.2573 170.546 59.2573C170.546 59.2573 169.812 58.5729 169.871 57.7713C169.933 56.9697 170.766 56.3533 170.766 56.3533Z" fill="white"/>
<path d="M162.423 72.889C162.423 72.889 162.305 73.7656 162.94 74.4102C163.574 75.0547 164.716 75.2212 164.716 75.2212C164.716 75.2212 164.833 74.3446 164.199 73.7C163.565 73.0555 162.423 72.889 162.423 72.889Z" fill="white"/>
<path d="M160.257 77.661C160.257 77.661 160.139 78.5376 160.773 79.1822C161.408 79.8267 162.55 79.9931 162.55 79.9931C162.55 79.9931 162.667 79.1165 162.033 78.472C161.398 77.8274 160.257 77.661 160.257 77.661Z" fill="white"/>
<path d="M166.003 79.3933C166.003 79.3933 165.886 80.2699 166.52 80.9145C167.154 81.559 168.296 81.7254 168.296 81.7254C168.296 81.7254 168.414 80.8488 167.78 80.2043C167.145 79.5597 166.003 79.3933 166.003 79.3933Z" fill="white"/>
<path d="M167.575 72.7814C167.575 72.7814 167.133 73.597 167.495 74.3517C167.857 75.1065 168.89 75.5143 168.89 75.5143C168.89 75.5143 169.333 74.6986 168.971 73.9439C168.609 73.1892 167.575 72.7814 167.575 72.7814Z" fill="white"/>
<path d="M163.506 90.374C163.506 90.374 164.669 90.3904 165.465 89.8584C166.26 89.3287 166.387 88.4521 166.387 88.4521C166.387 88.4521 165.223 88.4357 164.428 88.9677C163.633 89.4974 163.506 90.374 163.506 90.374Z" fill="white"/>
<path d="M174.674 89.4108C174.674 89.4108 174.99 90.2593 175.89 90.6835C176.791 91.1078 177.936 90.9437 177.936 90.9437C177.936 90.9437 177.62 90.0952 176.719 89.671C175.819 89.2468 174.674 89.4108 174.674 89.4108Z" fill="white"/>
<path d="M164.806 68.4921C164.806 68.4921 164.688 69.3687 165.322 70.0132C165.957 70.6578 167.099 70.8242 167.099 70.8242C167.099 70.8242 167.216 69.9476 166.582 69.303C165.947 68.6585 164.806 68.4921 164.806 68.4921Z" fill="white"/>
<path d="M164.784 64.6154C164.784 64.6154 164.666 65.492 165.301 66.1365C165.935 66.7811 167.077 66.9475 167.077 66.9475C167.077 66.9475 167.195 66.0709 166.56 65.4263C165.926 64.7818 164.784 64.6154 164.784 64.6154Z" fill="white"/>
<path d="M34.5763 71.1758C34.5763 81.0747 27.2825 89.1001 18.2868 89.1001C9.29102 89.1001 1.99725 81.0747 1.99725 71.1758C1.99725 61.2769 9.28792 27.2521 18.2837 27.2521C27.2794 27.2521 34.5732 61.2769 34.5732 71.1758H34.5763Z" fill="#CC8A8A"/>
<path d="M27.4189 76.3564L22.4862 77.8199L23.4764 75.4371L21.1184 78.2274L18.7635 78.9256L18.5933 71.0964L27.1651 61.9554L22.5728 65.6426L23.3496 63.0784L21.1525 66.7831L18.5469 68.8751L18.2839 56.6432L17.3493 74.483L9.22931 67.5732L13.6916 72.4406L9.48306 72.0654L14.6787 73.5214L17.2534 76.3316L16.8047 84.931L13.8092 83.301L16.7118 86.7125L15.3348 113H19.4938L18.7883 80.1753L27.4189 76.3564Z" fill="#263238"/>
<path d="M27.2454 56.6804C27.2454 56.6804 27.3971 57.883 26.577 58.765C25.7601 59.6471 24.2809 59.8757 24.2809 59.8757C24.2809 59.8757 24.1293 58.6731 24.9493 57.7911C25.7663 56.909 27.2454 56.6804 27.2454 56.6804Z" fill="white"/>
<path d="M32.1567 62.2211C32.1567 62.2211 32.3083 63.4236 31.4883 64.3057C30.6713 65.1877 29.1921 65.4163 29.1921 65.4163C29.1921 65.4163 29.0405 64.2138 29.8606 63.3317C30.6775 62.4497 32.1567 62.2211 32.1567 62.2211Z" fill="white"/>
<path d="M32.1529 73.0045C32.1529 73.0045 31.7908 74.1772 30.652 74.786C29.5132 75.3947 28.0248 75.2108 28.0248 75.2108C28.0248 75.2108 28.3868 74.0381 29.5256 73.4293C30.6644 72.8206 32.1529 73.0045 32.1529 73.0045Z" fill="white"/>
<path d="M5.18768 73.0047C5.18768 73.0047 5.54974 74.1775 6.68852 74.7862C7.8273 75.3949 9.31576 75.2111 9.31576 75.2111C9.31576 75.2111 8.9537 74.0383 7.81492 73.4296C6.67614 72.8208 5.18768 73.0047 5.18768 73.0047Z" fill="white"/>
<path d="M26.4841 68.5271C26.4841 68.5271 26.6358 69.7297 25.8157 70.6117C24.9988 71.4938 23.5196 71.7224 23.5196 71.7224C23.5196 71.7224 23.368 70.5198 24.188 69.6377C25.005 68.7557 26.4841 68.5271 26.4841 68.5271Z" fill="white"/>
<path d="M25.2124 50.655C25.2124 50.655 25.364 51.8576 24.544 52.7397C23.727 53.6217 22.2479 53.8503 22.2479 53.8503C22.2479 53.8503 22.0962 52.6477 22.9163 51.7657C23.7332 50.8836 25.2124 50.655 25.2124 50.655Z" fill="white"/>
<path d="M22.2853 55.2517C22.2853 55.2517 22.4369 56.4543 21.6169 57.3363C20.7999 58.2184 19.3207 58.447 19.3207 58.447C19.3207 58.447 19.1691 57.2444 19.9892 56.3623C20.8092 55.4803 22.2853 55.2517 22.2853 55.2517Z" fill="white"/>
<path d="M29.2322 51.9049C29.2322 51.9049 29.3838 53.1075 28.5638 53.9895C27.7468 54.8716 26.2676 55.1002 26.2676 55.1002C26.2676 55.1002 26.116 53.8976 26.9361 53.0155C27.753 52.1335 29.2322 51.9049 29.2322 51.9049Z" fill="white"/>
<path d="M6.66065 51.9049C6.66065 51.9049 6.50902 53.1075 7.32906 53.9895C8.14601 54.8716 9.62519 55.1002 9.62519 55.1002C9.62519 55.1002 9.77682 53.8976 8.95678 53.0155C8.13983 52.1335 6.66065 51.9049 6.66065 51.9049Z" fill="white"/>
<path d="M25.8463 45.0375C25.8463 45.0375 25.998 46.24 25.1779 47.1221C24.361 48.0042 22.8818 48.2327 22.8818 48.2327C22.8818 48.2327 22.7301 47.0302 23.5502 46.1481C24.3671 45.2661 25.8463 45.0375 25.8463 45.0375Z" fill="white"/>
<path d="M24.4105 39.0715C24.4105 39.0715 24.9335 40.2045 24.4167 41.2232C23.8999 42.242 22.5414 42.7612 22.5414 42.7612C22.5414 42.7612 22.0184 41.6282 22.5352 40.6095C23.052 39.5908 24.4105 39.0715 24.4105 39.0715Z" fill="white"/>
<path d="M14.1064 37.5115C14.1064 37.5115 15.4402 38.073 15.9074 39.1066C16.3747 40.1402 15.7991 41.2558 15.7991 41.2558C15.7991 41.2558 14.4654 40.6943 13.9981 39.6607C13.5309 38.6271 14.1064 37.5115 14.1064 37.5115Z" fill="white"/>
<path d="M18.9114 44.6473C18.9114 44.6473 19.8614 45.5841 19.781 46.6823C19.7036 47.7805 18.6267 48.6228 18.6267 48.6228C18.6267 48.6228 17.6767 47.6861 17.7572 46.5879C17.8345 45.4896 18.9114 44.6473 18.9114 44.6473Z" fill="white"/>
<path d="M18.6583 34.0254C18.6583 34.0254 19.6083 34.9621 19.5279 36.0603C19.4505 37.1585 18.3736 38.0008 18.3736 38.0008C18.3736 38.0008 17.4236 37.0641 17.504 35.9659C17.5814 34.8677 18.6583 34.0254 18.6583 34.0254Z" fill="white"/>
<path d="M7.87336 56.6804C7.87336 56.6804 7.72173 57.883 8.54177 58.765C9.35872 59.6471 10.8379 59.8757 10.8379 59.8757C10.8379 59.8757 10.9895 58.6731 10.1695 57.7911C9.35253 56.909 7.87336 56.6804 7.87336 56.6804Z" fill="white"/>
<path d="M5.07642 63.2177C5.07642 63.2177 4.92479 64.4202 5.74483 65.3023C6.56179 66.1843 8.04096 66.4129 8.04096 66.4129C8.04096 66.4129 8.19259 65.2103 7.37255 64.3283C6.5556 63.4462 5.07642 63.2177 5.07642 63.2177Z" fill="white"/>
<path d="M12.5059 65.5906C12.5059 65.5906 12.3542 66.7931 13.1743 67.6752C13.9912 68.5572 15.4704 68.7858 15.4704 68.7858C15.4704 68.7858 15.622 67.5833 14.802 66.7012C13.985 65.8192 12.5059 65.5906 12.5059 65.5906Z" fill="white"/>
<path d="M14.5366 56.5337C14.5366 56.5337 13.9641 57.6493 14.4314 58.6829C14.9017 59.7165 16.2355 60.2756 16.2355 60.2756C16.2355 60.2756 16.808 59.16 16.3407 58.1264C15.8703 57.0927 14.5366 56.5337 14.5366 56.5337Z" fill="white"/>
<path d="M9.27557 80.6325C9.27557 80.6325 10.7795 80.6548 11.8069 79.9268C12.8343 79.1988 12.9983 77.9987 12.9983 77.9987C12.9983 77.9987 11.4943 77.9764 10.467 78.7044C9.43958 79.4324 9.27557 80.6325 9.27557 80.6325Z" fill="white"/>
<path d="M23.7083 79.3133C23.7083 79.3133 24.1167 80.4761 25.2803 81.0551C26.4438 81.634 27.923 81.4129 27.923 81.4129C27.923 81.4129 27.5145 80.25 26.351 79.6711C25.1874 79.0922 23.7083 79.3133 23.7083 79.3133Z" fill="white"/>
<path d="M10.9525 50.655C10.9525 50.655 10.8009 51.8576 11.6209 52.7397C12.4379 53.6217 13.9171 53.8503 13.9171 53.8503C13.9171 53.8503 14.0687 52.6477 13.2486 51.7657C12.4317 50.8836 10.9525 50.655 10.9525 50.655Z" fill="white"/>
<path d="M10.928 45.3456C10.928 45.3456 10.7764 46.5482 11.5965 47.4302C12.4134 48.3123 13.8926 48.5408 13.8926 48.5408C13.8926 48.5408 14.0442 47.3383 13.2242 46.4562C12.4072 45.5742 10.928 45.3456 10.928 45.3456Z" fill="white"/>
<path d="M90.9708 112.563H87.9258L88.3807 57.8242H90.5128L90.9708 112.563Z" fill="#263238"/>
<path d="M91.8247 57.5386H86.8765L86.2576 51.9996H92.4405L91.8247 57.5386Z" fill="#263238"/>
<path d="M91.2706 57.5386H87.4303L86.9506 51.9996H91.7502L91.2706 57.5386Z" fill="white"/>
<path d="M92.9635 51.4875H85.7749V52.4103H92.9635V51.4875Z" fill="#263238"/>
<path d="M92.3977 56.9368H86.3417V58.0767H92.3977V56.9368Z" fill="#263238"/>
<path d="M91.9114 50.8716H86.7436V51.4875H91.9114V50.8716Z" fill="#263238"/>
<path d="M89.6589 49.9536H88.7708V50.8764H89.6589V49.9536Z" fill="#263238"/>
<path d="M92.1898 109.039H86.8301V114H92.1898V109.039Z" fill="#263238"/>
</svg>
