<svg width="49" height="44" viewBox="0 0 49 44" fill="none" xmlns="http://www.w3.org/2000/svg">
<path d="M8.86011 27.8432C10.9524 26.373 15.9513 23.7039 19.2085 24.7896C23.2799 26.1468 23.6192 28.1825 26.3336 28.5218C28.3054 28.7683 28.3747 28.5672 29.0059 28.6551C29.1472 28.6748 29.2831 28.7213 29.4129 28.7803L29.9641 29.0308C30.5414 29.2932 30.7314 30.02 30.3564 30.5314V30.5314C29.628 31.5246 28.5304 32.1992 27.2992 32.2306C25.413 32.2787 22.843 32.0984 20.7353 31.2362" stroke="#202327" stroke-width="1.4" stroke-linecap="round" stroke-linejoin="round"/>
<path d="M8.86011 27.8432C10.9524 26.373 15.9513 23.7039 19.2085 24.7896C23.2799 26.1468 23.6192 28.1825 26.3336 28.5218C28.3054 28.7683 28.3747 28.5672 29.0059 28.6551C29.1472 28.6748 29.2831 28.7213 29.4129 28.7803L29.9641 29.0308C30.5414 29.2932 30.7314 30.02 30.3564 30.5314V30.5314C29.628 31.5246 28.5304 32.1992 27.2992 32.2306C25.413 32.2787 22.843 32.0984 20.7353 31.2362" stroke="black" stroke-opacity="0.2" stroke-width="1.4" stroke-linecap="round" stroke-linejoin="round"/>
<path d="M29.0479 31.7449L36.7223 26.6831C36.9197 26.5529 37.1404 26.4621 37.3723 26.4157L37.5833 26.3735C38.6089 26.1684 39.5659 26.9529 39.5659 27.9989V27.9989C39.5659 28.5392 39.3053 29.044 38.8621 29.3531C34.3057 32.5312 26.0944 38.1035 24.8067 38.3611C23.1103 38.7004 16.1548 34.2897 14.628 33.7807C13.4066 33.3736 11.5179 34.8551 10.7262 35.6468L8.86011 27.8431" stroke="#202327" stroke-width="1.4" stroke-linecap="round" stroke-linejoin="round"/>
<path d="M29.0479 31.7449L36.7223 26.6831C36.9197 26.5529 37.1404 26.4621 37.3723 26.4157L37.5833 26.3735C38.6089 26.1684 39.5659 26.9529 39.5659 27.9989V27.9989C39.5659 28.5392 39.3053 29.044 38.8621 29.3531C34.3057 32.5312 26.0944 38.1035 24.8067 38.3611C23.1103 38.7004 16.1548 34.2897 14.628 33.7807C13.4066 33.3736 11.5179 34.8551 10.7262 35.6468L8.86011 27.8431" stroke="black" stroke-opacity="0.2" stroke-width="1.4" stroke-linecap="round" stroke-linejoin="round"/>
<path d="M29.3872 28.1823L33.3165 25.6675C33.5214 25.5364 33.7548 25.4565 33.997 25.4345L34.4166 25.3963C35.0134 25.3421 35.5425 25.7789 35.6021 26.3752V26.3752C35.6405 26.7593 35.4734 27.135 35.1624 27.3637L29.8961 31.2359" stroke="#202327" stroke-width="1.4" stroke-linecap="round" stroke-linejoin="round"/>
<path d="M29.3872 28.1823L33.3165 25.6675C33.5214 25.5364 33.7548 25.4565 33.997 25.4345L34.4166 25.3963C35.0134 25.3421 35.5425 25.7789 35.6021 26.3752V26.3752C35.6405 26.7593 35.4734 27.135 35.1624 27.3637L29.8961 31.2359" stroke="black" stroke-opacity="0.2" stroke-width="1.4" stroke-linecap="round" stroke-linejoin="round"/>
<path d="M25.3154 27.8432L29.2447 25.3284C29.4496 25.1973 29.683 25.1174 29.9252 25.0954L30.3593 25.0559C30.9481 25.0024 31.4701 25.4334 31.5289 26.0217V26.0217C31.568 26.4127 31.3911 26.794 31.0672 27.0167L28.878 28.5218" stroke="#202327" stroke-width="1.4" stroke-linecap="round" stroke-linejoin="round"/>
<path d="M25.3154 27.8432L29.2447 25.3284C29.4496 25.1973 29.683 25.1174 29.9252 25.0954L30.3593 25.0559C30.9481 25.0024 31.4701 25.4334 31.5289 26.0217V26.0217C31.568 26.4127 31.3911 26.794 31.0672 27.0167L28.878 28.5218" stroke="black" stroke-opacity="0.2" stroke-width="1.4" stroke-linecap="round" stroke-linejoin="round"/>
<circle cx="25.3153" cy="14.1018" r="7.78225" stroke="#202327" stroke-width="1.4"/>
<circle cx="25.3153" cy="14.1018" r="7.78225" stroke="black" stroke-opacity="0.2" stroke-width="1.4"/>
<path d="M24.2974 10.3696L24.2974 18.1733" stroke="#202327" stroke-width="1.4" stroke-linecap="round"/>
<path d="M24.2974 10.3696L24.2974 18.1733" stroke="black" stroke-opacity="0.2" stroke-width="1.4" stroke-linecap="round"/>
<path d="M27.3511 16.4766H22.9403" stroke="#202327" stroke-width="1.4" stroke-linecap="round"/>
<path d="M27.3511 16.4766H22.9403" stroke="black" stroke-opacity="0.2" stroke-width="1.4" stroke-linecap="round"/>
<mask id="path-8-outside-1_418_15512" maskUnits="userSpaceOnUse" x="23.0115" y="9.04834" width="6" height="7" fill="black">
<rect fill="white" x="23.0115" y="9.04834" width="6" height="7"/>
<path d="M24.9757 13.7627C25.5156 13.7627 26.0334 13.6197 26.4152 13.3652C26.797 13.1106 27.0115 12.7654 27.0115 12.4055C27.0115 12.0456 26.797 11.7004 26.4152 11.4458C26.0334 11.1913 25.5156 11.0483 24.9757 11.0483L24.9757 12.4055L24.9757 13.7627Z"/>
</mask>
<path d="M24.9757 13.7627C25.5156 13.7627 26.0334 13.6197 26.4152 13.3652C26.797 13.1106 27.0115 12.7654 27.0115 12.4055C27.0115 12.0456 26.797 11.7004 26.4152 11.4458C26.0334 11.1913 25.5156 11.0483 24.9757 11.0483L24.9757 12.4055L24.9757 13.7627Z" stroke="#202327" stroke-width="2.80001" stroke-linejoin="round" mask="url(#path-8-outside-1_418_15512)"/>
<path d="M24.9757 13.7627C25.5156 13.7627 26.0334 13.6197 26.4152 13.3652C26.797 13.1106 27.0115 12.7654 27.0115 12.4055C27.0115 12.0456 26.797 11.7004 26.4152 11.4458C26.0334 11.1913 25.5156 11.0483 24.9757 11.0483L24.9757 12.4055L24.9757 13.7627Z" stroke="black" stroke-opacity="0.2" stroke-width="2.80001" stroke-linejoin="round" mask="url(#path-8-outside-1_418_15512)"/>
</svg>
