<svg width="46" height="47" viewBox="0 0 46 47" fill="none" xmlns="http://www.w3.org/2000/svg">
<g clip-path="url(#clip0_776_3077)">
<path d="M10.8721 46.389L10.9688 46.0345C10.9752 46.0022 11.8519 42.9854 13.1476 38.3828C10.5046 33.6707 8.86731 27.521 8.86731 22.3061C8.86731 19.3537 9.3959 16.8719 10.4402 14.9445C11.3749 13.2234 12.7479 11.8955 14.5335 10.9737C14.6753 8.0213 14.7785 5.90051 14.7785 5.90051H16.7317C17.1829 2.74187 19.8838 0.382568 23.1069 0.382568C26.33 0.382568 29.031 2.74187 29.4822 5.90051H31.4354C31.4354 5.90051 31.5386 8.05998 31.6804 11.0768C33.4015 12.0115 34.7359 13.3459 35.6383 15.0605C36.6439 16.9686 37.1532 19.4053 37.1532 22.3061C37.1532 24.8394 36.7664 27.6435 36.038 30.4154C35.3225 33.1357 34.2911 35.7721 33.047 38.0541C34.3491 42.7405 35.2322 46.0087 35.2387 46.0409L35.3289 46.389H10.8721ZM33.1565 44.713C32.9116 43.8105 32.5893 42.6502 32.1961 41.2321H14.0694C13.6568 42.7147 13.3152 43.875 13.0767 44.713H33.1565ZM31.7964 39.7494C31.6739 39.3627 31.3 37.9574 31.3 37.9574L31.2743 37.8543L31.5514 37.3515C33.9881 32.91 35.503 27.1471 35.503 22.3061C35.503 17.3554 33.9623 14.1323 30.7843 12.4627L30.0753 12.1146L29.8561 7.58296H27.9932L27.8578 6.30662C27.5999 3.8764 25.55 2.02635 23.1005 2.02635C20.6509 2.02635 18.6075 3.8764 18.3432 6.30662L18.2078 7.57651H16.3449L16.1322 12.0244L15.3973 12.3789C12.1097 14.0227 10.5111 17.2651 10.5111 22.2996C10.5111 27.2761 12.0904 33.1485 14.6302 37.6415L14.9138 38.1443L14.7591 38.7116C14.6624 39.0597 14.5657 39.4142 14.469 39.7365H31.7964V39.7494ZM28.3412 34.9793L28.4766 34.6054C28.5024 34.5409 30.9326 28.0496 30.9326 22.6993C30.9326 18.9605 28.5346 15.6794 28.5088 15.6471L28.2059 15.2604H29.9915L30.0688 15.3442C30.1655 15.4795 32.3959 18.6962 32.3959 22.5188C32.3959 27.9916 30.1204 34.7279 30.1011 34.7923L30.043 34.9857H28.3412V34.9793Z" fill="#CC0029"/>
</g>
<defs>
<clipPath id="clip0_776_3077">
<rect width="46" height="46" fill="white" transform="translate(0.0098877 0.389404)"/>
</clipPath>
</defs>
</svg>
