<svg width="46" height="39" viewBox="0 0 46 39" fill="none" xmlns="http://www.w3.org/2000/svg">
<path d="M13.7231 22.8495H23.9836" stroke="#202327" stroke-width="1.4" stroke-linecap="round"/>
<path d="M13.7231 22.8495H23.9836" stroke="black" stroke-opacity="0.2" stroke-width="1.4" stroke-linecap="round"/>
<path d="M13.7651 19.367H17.1251" stroke="#202327" stroke-width="1.4" stroke-linecap="round"/>
<path d="M13.7651 19.367H17.1251" stroke="black" stroke-opacity="0.2" stroke-width="1.4" stroke-linecap="round"/>
<path d="M20.4854 19.367H23.8454" stroke="#202327" stroke-width="1.4" stroke-linecap="round"/>
<path d="M20.4854 19.367H23.8454" stroke="black" stroke-opacity="0.2" stroke-width="1.4" stroke-linecap="round"/>
<path d="M4.15942 25.416L4.15942 26.977" stroke="#202327" stroke-width="1.4" stroke-linecap="round"/>
<path d="M4.15942 25.416L4.15942 26.977" stroke="black" stroke-opacity="0.2" stroke-width="1.4" stroke-linecap="round"/>
<path d="M4.15942 21.1794L4.15942 22.7403" stroke="#202327" stroke-width="1.4" stroke-linecap="round"/>
<path d="M4.15942 21.1794L4.15942 22.7403" stroke="black" stroke-opacity="0.2" stroke-width="1.4" stroke-linecap="round"/>
<path d="M29.804 5.1236L29.804 6.68456" stroke="#202327" stroke-width="1.4" stroke-linecap="round"/>
<path d="M29.804 5.1236L29.804 6.68456" stroke="black" stroke-opacity="0.2" stroke-width="1.4" stroke-linecap="round"/>
<path d="M29.804 0.886963L29.804 2.44793" stroke="#202327" stroke-width="1.4" stroke-linecap="round"/>
<path d="M29.804 0.886963L29.804 2.44793" stroke="black" stroke-opacity="0.2" stroke-width="1.4" stroke-linecap="round"/>
<path d="M2.82178 24.0784L1.26081 24.0784" stroke="#202327" stroke-width="1.4" stroke-linecap="round"/>
<path d="M2.82178 24.0784L1.26081 24.0784" stroke="black" stroke-opacity="0.2" stroke-width="1.4" stroke-linecap="round"/>
<path d="M7.05835 24.0784L5.49739 24.0784" stroke="#202327" stroke-width="1.4" stroke-linecap="round"/>
<path d="M7.05835 24.0784L5.49739 24.0784" stroke="black" stroke-opacity="0.2" stroke-width="1.4" stroke-linecap="round"/>
<path d="M28.4666 3.78595L26.9056 3.78595" stroke="#202327" stroke-width="1.4" stroke-linecap="round"/>
<path d="M28.4666 3.78595L26.9056 3.78595" stroke="black" stroke-opacity="0.2" stroke-width="1.4" stroke-linecap="round"/>
<path d="M32.7031 3.78595L31.1422 3.78595" stroke="#202327" stroke-width="1.4" stroke-linecap="round"/>
<path d="M32.7031 3.78595L31.1422 3.78595" stroke="black" stroke-opacity="0.2" stroke-width="1.4" stroke-linecap="round"/>
<path d="M13.7231 25.3373H23.9836" stroke="#202327" stroke-width="1.4" stroke-linecap="round"/>
<path d="M13.7231 25.3373H23.9836" stroke="black" stroke-opacity="0.2" stroke-width="1.4" stroke-linecap="round"/>
<path d="M13.7231 27.8245H23.9836" stroke="#202327" stroke-width="1.4" stroke-linecap="round"/>
<path d="M13.7231 27.8245H23.9836" stroke="black" stroke-opacity="0.2" stroke-width="1.4" stroke-linecap="round"/>
<path d="M38.5312 29.4195C38.5319 29.4066 38.5323 29.3936 38.5323 29.3807C38.5323 28.7647 38.4357 27.8015 38.1441 26.8601C37.8586 25.9379 37.3454 24.9061 36.4193 24.3273C35.745 23.9058 35.0513 23.7837 34.419 23.835C33.4672 23.9122 32.8001 24.4623 32.3102 25.0563C31.9663 25.4732 31.655 25.9859 31.3834 26.4334C31.2864 26.5931 31.1945 26.7445 31.1079 26.8803C29.0531 30.1035 24.6937 31.6911 21.1077 31.6911C20.8509 31.6911 20.6147 31.8317 20.4923 32.0574C20.3699 32.2832 20.3809 32.5579 20.5211 32.7731C22.2057 35.3602 24.8095 36.7509 27.3878 37.3515C29.9559 37.9498 32.569 37.7823 34.3742 37.1806C36.0094 36.6355 37.008 35.1099 37.6037 33.6278C38.2097 32.1203 38.4722 30.4812 38.5312 29.4195Z" stroke="#202327" stroke-width="1.4" stroke-linejoin="round"/>
<path d="M38.5312 29.4195C38.5319 29.4066 38.5323 29.3936 38.5323 29.3807C38.5323 28.7647 38.4357 27.8015 38.1441 26.8601C37.8586 25.9379 37.3454 24.9061 36.4193 24.3273C35.745 23.9058 35.0513 23.7837 34.419 23.835C33.4672 23.9122 32.8001 24.4623 32.3102 25.0563C31.9663 25.4732 31.655 25.9859 31.3834 26.4334C31.2864 26.5931 31.1945 26.7445 31.1079 26.8803C29.0531 30.1035 24.6937 31.6911 21.1077 31.6911C20.8509 31.6911 20.6147 31.8317 20.4923 32.0574C20.3699 32.2832 20.3809 32.5579 20.5211 32.7731C22.2057 35.3602 24.8095 36.7509 27.3878 37.3515C29.9559 37.9498 32.569 37.7823 34.3742 37.1806C36.0094 36.6355 37.008 35.1099 37.6037 33.6278C38.2097 32.1203 38.4722 30.4812 38.5312 29.4195Z" stroke="black" stroke-opacity="0.2" stroke-width="1.4" stroke-linejoin="round"/>
<path d="M28.1108 33.4009C28.4566 33.228 28.5968 32.8075 28.4239 32.4617C28.251 32.1159 27.8305 31.9758 27.4847 32.1487L28.1108 33.4009ZM22.2975 35.0318C23.378 34.916 26.0429 34.4348 28.1108 33.4009L27.4847 32.1487C25.6279 33.0771 23.1491 33.5325 22.1483 33.6397L22.2975 35.0318Z" fill="#202327"/>
<path d="M28.1108 33.4009C28.4566 33.228 28.5968 32.8075 28.4239 32.4617C28.251 32.1159 27.8305 31.9758 27.4847 32.1487L28.1108 33.4009ZM22.2975 35.0318C23.378 34.916 26.0429 34.4348 28.1108 33.4009L27.4847 32.1487C25.6279 33.0771 23.1491 33.5325 22.1483 33.6397L22.2975 35.0318Z" fill="black" fill-opacity="0.2"/>
<path d="M33.1946 35.4695C33.4672 35.1954 33.4661 34.7522 33.192 34.4795C32.9179 34.2068 32.4747 34.208 32.2021 34.4821L33.1946 35.4695ZM29.6303 38.2341C30.692 37.7457 31.6236 37.0486 33.1946 35.4695L32.2021 34.4821C30.6784 36.0137 29.8853 36.5758 29.0453 36.9621L29.6303 38.2341Z" fill="#202327"/>
<path d="M33.1946 35.4695C33.4672 35.1954 33.4661 34.7522 33.192 34.4795C32.9179 34.2068 32.4747 34.208 32.2021 34.4821L33.1946 35.4695ZM29.6303 38.2341C30.692 37.7457 31.6236 37.0486 33.1946 35.4695L32.2021 34.4821C30.6784 36.0137 29.8853 36.5758 29.0453 36.9621L29.6303 38.2341Z" fill="black" fill-opacity="0.2"/>
<path d="M32.9972 31.7982C33.1967 31.467 33.09 31.0369 32.7588 30.8374C32.4276 30.6379 31.9975 30.7446 31.798 31.0758L32.9972 31.7982ZM25.2001 37.2364C25.8006 37.0828 27.3009 36.4433 28.8397 35.5184C30.3741 34.5962 32.0877 33.3081 32.9972 31.7982L31.798 31.0758C31.0722 32.2807 29.6073 33.4236 28.1185 34.3185C26.6343 35.2106 25.2667 35.7743 24.8533 35.88L25.2001 37.2364Z" fill="#202327"/>
<path d="M32.9972 31.7982C33.1967 31.467 33.09 31.0369 32.7588 30.8374C32.4276 30.6379 31.9975 30.7446 31.798 31.0758L32.9972 31.7982ZM25.2001 37.2364C25.8006 37.0828 27.3009 36.4433 28.8397 35.5184C30.3741 34.5962 32.0877 33.3081 32.9972 31.7982L31.798 31.0758C31.0722 32.2807 29.6073 33.4236 28.1185 34.3185C26.6343 35.2106 25.2667 35.7743 24.8533 35.88L25.2001 37.2364Z" fill="black" fill-opacity="0.2"/>
<path d="M31.3655 26.9768C32.249 27.7738 34.824 29.049 38.0553 27.7738" stroke="#202327" stroke-width="1.4" stroke-linejoin="round"/>
<path d="M31.3655 26.9768C32.249 27.7738 34.824 29.049 38.0553 27.7738" stroke="black" stroke-opacity="0.2" stroke-width="1.4" stroke-linejoin="round"/>
<path d="M36.3141 24.5643L38.2898 11.8179C38.3775 11.2519 37.9898 10.7219 37.4238 10.6342V10.6342C36.8578 10.5465 36.3278 10.9342 36.2401 11.5002L34.2644 24.2466" stroke="#202327" stroke-width="1.4"/>
<path d="M36.3141 24.5643L38.2898 11.8179C38.3775 11.2519 37.9898 10.7219 37.4238 10.6342V10.6342C36.8578 10.5465 36.3278 10.9342 36.2401 11.5002L34.2644 24.2466" stroke="black" stroke-opacity="0.2" stroke-width="1.4"/>
<path fill-rule="evenodd" clip-rule="evenodd" d="M20.0576 32.4899H10.6264C8.12903 32.4899 6.10449 34.5144 6.10449 37.0118C6.10449 37.785 6.7313 38.4118 7.5045 38.4118H30.25V37.0118H31.65C31.65 36.9595 31.6491 36.9075 31.6473 36.8556C31.207 36.9298 30.7384 36.9814 30.2499 37.0068C30.2499 37.0085 30.25 37.0101 30.25 37.0118H30.1468C29.7568 37.0291 29.3547 37.0297 28.9449 37.0118H28.8499H8.9045H7.5045C7.5045 36.5084 7.62363 36.0329 7.83525 35.6118C8.34846 34.5906 9.40561 33.8899 10.6264 33.8899H21.2094C20.7906 33.4724 20.4038 33.007 20.0576 32.4899Z" fill="#202327"/>
<path fill-rule="evenodd" clip-rule="evenodd" d="M20.0576 32.4899H10.6264C8.12903 32.4899 6.10449 34.5144 6.10449 37.0118C6.10449 37.785 6.7313 38.4118 7.5045 38.4118H30.25V37.0118H31.65C31.65 36.9595 31.6491 36.9075 31.6473 36.8556C31.207 36.9298 30.7384 36.9814 30.2499 37.0068C30.2499 37.0085 30.25 37.0101 30.25 37.0118H30.1468C29.7568 37.0291 29.3547 37.0297 28.9449 37.0118H28.8499H8.9045H7.5045C7.5045 36.5084 7.62363 36.0329 7.83525 35.6118C8.34846 34.5906 9.40561 33.8899 10.6264 33.8899H21.2094C20.7906 33.4724 20.4038 33.007 20.0576 32.4899Z" fill="black" fill-opacity="0.2"/>
<path fill-rule="evenodd" clip-rule="evenodd" d="M28.8959 29.9167C28.4348 30.2439 27.9474 30.5377 27.4422 30.7988L28.5916 11.052C28.6661 9.77257 27.6486 8.69415 26.367 8.69415H25.3755C23.978 6.6746 21.6147 5.34727 18.9346 5.34727C16.2546 5.34727 13.8913 6.6746 12.4938 8.69415H11.658C10.3764 8.69415 9.35896 9.77257 9.43344 11.052L10.6953 32.7313H17.691H20.334H21.1159C21.4887 33.2518 21.9039 33.7171 22.3518 34.1313H20.334H17.691H10.6953H9.37447L9.29771 32.8127L8.0358 11.1333C7.91454 9.0501 9.57124 7.29415 11.658 7.29415H11.7986C13.4825 5.24969 16.0577 3.94727 18.9346 3.94727C21.8116 3.94727 24.3868 5.24969 26.0707 7.29415H26.367C28.4538 7.29415 30.1105 9.0501 29.9892 11.1333L28.8959 29.9167Z" fill="#202327"/>
<path fill-rule="evenodd" clip-rule="evenodd" d="M28.8959 29.9167C28.4348 30.2439 27.9474 30.5377 27.4422 30.7988L28.5916 11.052C28.6661 9.77257 27.6486 8.69415 26.367 8.69415H25.3755C23.978 6.6746 21.6147 5.34727 18.9346 5.34727C16.2546 5.34727 13.8913 6.6746 12.4938 8.69415H11.658C10.3764 8.69415 9.35896 9.77257 9.43344 11.052L10.6953 32.7313H17.691H20.334H21.1159C21.4887 33.2518 21.9039 33.7171 22.3518 34.1313H20.334H17.691H10.6953H9.37447L9.29771 32.8127L8.0358 11.1333C7.91454 9.0501 9.57124 7.29415 11.658 7.29415H11.7986C13.4825 5.24969 16.0577 3.94727 18.9346 3.94727C21.8116 3.94727 24.3868 5.24969 26.0707 7.29415H26.367C28.4538 7.29415 30.1105 9.0501 29.9892 11.1333L28.8959 29.9167Z" fill="black" fill-opacity="0.2"/>
<circle cx="42.2918" cy="29.2073" r="2.03797" stroke="#202327" stroke-width="1.4"/>
<circle cx="42.2918" cy="29.2073" r="2.03797" stroke="black" stroke-opacity="0.2" stroke-width="1.4"/>
<circle cx="31.3649" cy="20.2874" r="1.59198" stroke="#202327" stroke-width="1.4"/>
<circle cx="31.3649" cy="20.2874" r="1.59198" stroke="black" stroke-opacity="0.2" stroke-width="1.4"/>
<circle cx="39.8388" cy="36.3432" r="1.59198" stroke="#202327" stroke-width="1.4"/>
<circle cx="39.8388" cy="36.3432" r="1.59198" stroke="black" stroke-opacity="0.2" stroke-width="1.4"/>
</svg>
