<svg width="45" height="42" viewBox="0 0 45 42" fill="none" xmlns="http://www.w3.org/2000/svg">
<path d="M27.4729 29.3607C27.0863 29.3607 26.7729 29.6741 26.7729 30.0607V38.9679C26.7729 39.3545 27.0863 39.6679 27.4729 39.6679H42.7934C43.18 39.6679 43.4934 39.3545 43.4934 38.9679V30.0607C43.4934 29.6741 43.18 29.3607 42.7934 29.3607H38.9633H35.1332H31.303H27.4729Z" stroke="#202327" stroke-width="1.4" stroke-linejoin="round"/>
<path d="M27.4729 29.3607C27.0863 29.3607 26.7729 29.6741 26.7729 30.0607V38.9679C26.7729 39.3545 27.0863 39.6679 27.4729 39.6679H42.7934C43.18 39.6679 43.4934 39.3545 43.4934 38.9679V30.0607C43.4934 29.6741 43.18 29.3607 42.7934 29.3607H38.9633H35.1332H31.303H27.4729Z" stroke="black" stroke-opacity="0.2" stroke-width="1.4" stroke-linejoin="round"/>
<path d="M28.1729 12.6025V4.0723C28.1729 2.69033 27.0526 1.57002 25.6706 1.57002H25.3351H23.1974H21.0596H20.7242C19.3422 1.57002 18.2219 2.69032 18.2219 4.0723V12.6025C18.2219 15.3503 20.4495 17.5779 23.1974 17.5779C25.9453 17.5779 28.1729 15.3503 28.1729 12.6025Z" stroke="#202327" stroke-width="1.4" stroke-linejoin="round"/>
<path d="M28.1729 12.6025V4.0723C28.1729 2.69033 27.0526 1.57002 25.6706 1.57002H25.3351H23.1974H21.0596H20.7242C19.3422 1.57002 18.2219 2.69032 18.2219 4.0723V12.6025C18.2219 15.3503 20.4495 17.5779 23.1974 17.5779C25.9453 17.5779 28.1729 15.3503 28.1729 12.6025Z" stroke="black" stroke-opacity="0.2" stroke-width="1.4" stroke-linejoin="round"/>
<path d="M26.3915 36.8304C26.3915 36.4438 26.0781 36.1304 25.6915 36.1304H23.6428H21.5942H19.5455H18.5657C17.5888 36.1304 16.7968 36.9224 16.7968 37.8993C16.7968 38.8762 17.5888 39.6682 18.5657 39.6682H25.6915C26.0781 39.6682 26.3915 39.3548 26.3915 38.9682V36.8304Z" stroke="#202327" stroke-width="1.4" stroke-linejoin="round"/>
<path d="M26.3915 36.8304C26.3915 36.4438 26.0781 36.1304 25.6915 36.1304H23.6428H21.5942H19.5455H18.5657C17.5888 36.1304 16.7968 36.9224 16.7968 37.8993C16.7968 38.8762 17.5888 39.6682 18.5657 39.6682H25.6915C26.0781 39.6682 26.3915 39.3548 26.3915 38.9682V36.8304Z" stroke="black" stroke-opacity="0.2" stroke-width="1.4" stroke-linejoin="round"/>
<mask id="path-4-outside-1_776_9076" maskUnits="userSpaceOnUse" x="15.4968" y="30.1984" width="12" height="11" fill="black">
<rect fill="white" x="15.4968" y="30.1984" width="12" height="11"/>
<path d="M17.4968 38.9679C17.4968 35.2292 20.5276 32.1984 24.2664 32.1984H25.6915V38.9679H17.4968V38.9679Z"/>
</mask>
<path d="M25.6915 32.1984H27.0915C27.0915 31.4252 26.4647 30.7984 25.6915 30.7984V32.1984ZM25.6915 38.9679V40.3679H27.0915V38.9679H25.6915ZM17.4968 37.5679C16.7236 37.5679 16.0968 38.1947 16.0968 38.9679C16.0968 39.7411 16.7236 40.3679 17.4968 40.3679V37.5679ZM24.2915 32.1984V38.9679H27.0915V32.1984H24.2915ZM25.6915 37.5679H17.4968V40.3679H25.6915V37.5679ZM24.2664 33.5984H25.6915V30.7984H24.2664V33.5984ZM18.8968 38.9679C18.8968 36.0024 21.3008 33.5984 24.2664 33.5984V30.7984C19.7544 30.7984 16.0968 34.456 16.0968 38.9679H18.8968Z" fill="#202327" mask="url(#path-4-outside-1_776_9076)"/>
<path d="M25.6915 32.1984H27.0915C27.0915 31.4252 26.4647 30.7984 25.6915 30.7984V32.1984ZM25.6915 38.9679V40.3679H27.0915V38.9679H25.6915ZM17.4968 37.5679C16.7236 37.5679 16.0968 38.1947 16.0968 38.9679C16.0968 39.7411 16.7236 40.3679 17.4968 40.3679V37.5679ZM24.2915 32.1984V38.9679H27.0915V32.1984H24.2915ZM25.6915 37.5679H17.4968V40.3679H25.6915V37.5679ZM24.2664 33.5984H25.6915V30.7984H24.2664V33.5984ZM18.8968 38.9679C18.8968 36.0024 21.3008 33.5984 24.2664 33.5984V30.7984C19.7544 30.7984 16.0968 34.456 16.0968 38.9679H18.8968Z" fill="black" fill-opacity="0.2" mask="url(#path-4-outside-1_776_9076)"/>
<path d="M11.8172 39.1805L12.1136 38.9877L12.1342 38.6347C12.1969 37.5636 11.7334 35.1361 9.21784 34.3455L8.88786 34.2418L8.60502 34.4409C7.79637 35.0102 7.25007 35.2655 6.87597 35.2915C6.71882 35.3024 6.60326 35.2714 6.49629 35.2026C6.37792 35.1265 6.22627 34.975 6.06043 34.6748C5.95753 34.4886 5.9488 34.3665 5.95661 34.2934C5.96488 34.2162 5.99876 34.1307 6.07603 34.0337C6.24638 33.82 6.55517 33.6444 6.803 33.5613L7.34576 33.3794L7.27518 32.8113C7.24611 32.5774 7.27295 32.2702 7.31135 31.8307L7.31169 31.8268C7.34655 31.4276 7.38912 30.9267 7.32688 30.4541C7.26261 29.966 7.07705 29.4289 6.59349 29.0295C6.12054 28.6388 5.47042 28.4698 4.6704 28.4698H3.67293L4.01211 29.4078C4.06082 29.5425 4.05857 29.7168 3.94482 29.9754C3.82743 30.2422 3.61763 30.5352 3.347 30.8499C3.16346 31.0634 2.97983 31.2563 2.79624 31.4492C2.7038 31.5464 2.61137 31.6435 2.51896 31.7432C2.38971 31.8827 2.25983 32.0287 2.15212 32.1707C2.0705 32.2783 1.97336 32.4195 1.90573 32.5818C1.29503 33.5547 0.464602 35.9113 1.96421 38.0226C2.93147 39.3845 4.69297 40.1318 6.48437 40.3272C8.28955 40.524 10.2798 40.1809 11.8172 39.1805Z" stroke="#202327" stroke-width="1.4"/>
<path d="M11.8172 39.1805L12.1136 38.9877L12.1342 38.6347C12.1969 37.5636 11.7334 35.1361 9.21784 34.3455L8.88786 34.2418L8.60502 34.4409C7.79637 35.0102 7.25007 35.2655 6.87597 35.2915C6.71882 35.3024 6.60326 35.2714 6.49629 35.2026C6.37792 35.1265 6.22627 34.975 6.06043 34.6748C5.95753 34.4886 5.9488 34.3665 5.95661 34.2934C5.96488 34.2162 5.99876 34.1307 6.07603 34.0337C6.24638 33.82 6.55517 33.6444 6.803 33.5613L7.34576 33.3794L7.27518 32.8113C7.24611 32.5774 7.27295 32.2702 7.31135 31.8307L7.31169 31.8268C7.34655 31.4276 7.38912 30.9267 7.32688 30.4541C7.26261 29.966 7.07705 29.4289 6.59349 29.0295C6.12054 28.6388 5.47042 28.4698 4.6704 28.4698H3.67293L4.01211 29.4078C4.06082 29.5425 4.05857 29.7168 3.94482 29.9754C3.82743 30.2422 3.61763 30.5352 3.347 30.8499C3.16346 31.0634 2.97983 31.2563 2.79624 31.4492C2.7038 31.5464 2.61137 31.6435 2.51896 31.7432C2.38971 31.8827 2.25983 32.0287 2.15212 32.1707C2.0705 32.2783 1.97336 32.4195 1.90573 32.5818C1.29503 33.5547 0.464602 35.9113 1.96421 38.0226C2.93147 39.3845 4.69297 40.1318 6.48437 40.3272C8.28955 40.524 10.2798 40.1809 11.8172 39.1805Z" stroke="black" stroke-opacity="0.2" stroke-width="1.4"/>
<path d="M18.2098 34.2404H15.1813C15.122 32.9934 14.3619 30.4281 11.7966 30.1431C9.23128 29.858 7.63985 30.3806 7.16479 30.6775" stroke="#202327" stroke-width="1.4"/>
<path d="M18.2098 34.2404H15.1813C15.122 32.9934 14.3619 30.4281 11.7966 30.1431C9.23128 29.858 7.63985 30.3806 7.16479 30.6775" stroke="black" stroke-opacity="0.2" stroke-width="1.4"/>
<line x1="12.1528" y1="38.9808" x2="16.4283" y2="38.9808" stroke="#202327" stroke-width="1.4"/>
<line x1="12.1528" y1="38.9808" x2="16.4283" y2="38.9808" stroke="black" stroke-opacity="0.2" stroke-width="1.4"/>
<path d="M25.9001 16.9701C25.9595 17.5639 26.6535 19.7635 28.3637 19.906C30.5014 20.0842 32.2829 19.7279 33.7081 22.0438C34.8482 23.8965 35.1332 27.8038 35.1332 29.5259" stroke="#202327" stroke-width="1.4"/>
<path d="M25.9001 16.9701C25.9595 17.5639 26.6535 19.7635 28.3637 19.906C30.5014 20.0842 32.2829 19.7279 33.7081 22.0438C34.8482 23.8965 35.1332 27.8038 35.1332 29.5259" stroke="black" stroke-opacity="0.2" stroke-width="1.4"/>
<path d="M20.5254 17.2342C20.466 17.828 19.9197 19.7639 18.2095 19.9064C16.0718 20.0845 14.2903 19.7282 12.8651 22.0441C11.725 23.8968 11.44 27.8042 11.44 29.5262" stroke="#202327" stroke-width="1.4"/>
<path d="M20.5254 17.2342C20.466 17.828 19.9197 19.7639 18.2095 19.9064C16.0718 20.0845 14.2903 19.7282 12.8651 22.0441C11.725 23.8968 11.44 27.8042 11.44 29.5262" stroke="black" stroke-opacity="0.2" stroke-width="1.4"/>
<path d="M29.9673 28.8142V26.8546M29.9673 24.3605V26.8546M29.9673 26.8546H34.0646" stroke="#202327" stroke-width="1.4" stroke-linecap="round"/>
<path d="M29.9673 28.8142V26.8546M29.9673 24.3605V26.8546M29.9673 26.8546H34.0646" stroke="black" stroke-opacity="0.2" stroke-width="1.4" stroke-linecap="round"/>
<path d="M16.606 33.446V26.8546M16.606 24.3605V26.8546M16.606 26.8546H12.5086" stroke="#202327" stroke-width="1.4" stroke-linecap="round"/>
<path d="M16.606 33.446V26.8546M16.606 24.3605V26.8546M16.606 26.8546H12.5086" stroke="black" stroke-opacity="0.2" stroke-width="1.4" stroke-linecap="round"/>
<path d="M19.2781 19.728L23.1973 23.6472L27.1165 19.728" stroke="#202327" stroke-width="1.4" stroke-linecap="round"/>
<path d="M19.2781 19.728L23.1973 23.6472L27.1165 19.728" stroke="black" stroke-opacity="0.2" stroke-width="1.4" stroke-linecap="round"/>
<line x1="18.2095" y1="12.6148" x2="28.1856" y2="12.6148" stroke="#202327" stroke-width="1.4"/>
<line x1="18.2095" y1="12.6148" x2="28.1856" y2="12.6148" stroke="black" stroke-opacity="0.2" stroke-width="1.4"/>
<line x1="18.2095" y1="6.55805" x2="28.1856" y2="6.55805" stroke="#202327" stroke-width="1.4"/>
<line x1="18.2095" y1="6.55805" x2="28.1856" y2="6.55805" stroke="black" stroke-opacity="0.2" stroke-width="1.4"/>
<path d="M23.1975 10.4644L23.1975 12.2459" stroke="#202327" stroke-width="1.4" stroke-linecap="round"/>
<path d="M23.1975 10.4644L23.1975 12.2459" stroke="black" stroke-opacity="0.2" stroke-width="1.4" stroke-linecap="round"/>
<path d="M20.7031 9.03925H20.3468" stroke="#202327" stroke-width="1.4" stroke-linecap="round"/>
<path d="M20.7031 9.03925H20.3468" stroke="black" stroke-opacity="0.2" stroke-width="1.4" stroke-linecap="round"/>
<path d="M26.0479 9.03925H25.6916" stroke="#202327" stroke-width="1.4" stroke-linecap="round"/>
<path d="M26.0479 9.03925H25.6916" stroke="black" stroke-opacity="0.2" stroke-width="1.4" stroke-linecap="round"/>
</svg>
