<svg width="47" height="47" viewBox="0 0 47 47" fill="none" xmlns="http://www.w3.org/2000/svg">
<g clip-path="url(#clip0_776_11392)">
<path d="M10.8932 46.9256L10.9899 46.5711C10.9963 46.5389 11.873 43.522 13.1687 38.9195C10.5258 34.2073 8.88843 28.0576 8.88843 22.8427C8.88843 19.8903 9.41702 17.4085 10.4613 15.4811C11.396 13.76 12.769 12.4321 14.5546 11.5103C14.6964 8.55792 14.7996 6.43713 14.7996 6.43713H16.7528C17.204 3.27849 19.905 0.919189 23.1281 0.919189C26.3512 0.919189 29.0521 3.27849 29.5033 6.43713H31.4565C31.4565 6.43713 31.5597 8.5966 31.7015 11.6134C33.4226 12.5481 34.757 13.8825 35.6594 15.5972C36.6651 17.5052 37.1743 19.9419 37.1743 22.8427C37.1743 25.376 36.7875 28.1801 36.0591 30.952C35.3436 33.6723 34.3122 36.3088 33.0681 38.5907C34.3702 43.2771 35.2533 46.5453 35.2598 46.5775L35.35 46.9256H10.8932ZM33.1777 45.2496C32.9327 44.3472 32.6104 43.1868 32.2172 41.7687H14.0905C13.6779 43.2513 13.3363 44.4116 13.0978 45.2496H33.1777ZM31.8175 40.2861C31.695 39.8993 31.3212 38.494 31.3212 38.494L31.2954 38.3909L31.5726 37.8881C34.0092 33.4467 35.5241 27.6838 35.5241 22.8427C35.5241 17.892 33.9834 14.6689 30.8055 12.9993L30.0964 12.6513L29.8772 8.11958H28.0143L27.8789 6.84324C27.621 4.41302 25.5712 2.56297 23.1216 2.56297C20.6721 2.56297 18.6286 4.41302 18.3643 6.84324L18.229 8.11313H16.366L16.1533 12.561L15.4184 12.9155C12.1309 14.5593 10.5322 17.8018 10.5322 22.8362C10.5322 27.8127 12.1115 33.6852 14.6513 38.1782L14.935 38.681L14.7802 39.2482C14.6836 39.5963 14.5869 39.9509 14.4902 40.2732H31.8175V40.2861ZM28.3624 35.5159L28.4977 35.142C28.5235 35.0775 30.9537 28.5862 30.9537 23.2359C30.9537 19.4971 28.5557 16.216 28.53 16.1838L28.227 15.797H30.0126L30.0899 15.8808C30.1866 16.0162 32.417 19.2328 32.417 23.0554C32.417 28.5282 30.1415 35.2645 30.1222 35.3289L30.0642 35.5223H28.3624V35.5159Z" fill="#666666"/>
</g>
<defs>
<clipPath id="clip0_776_11392">
<rect width="46" height="46" fill="white" transform="translate(0.0310059 0.926025)"/>
</clipPath>
</defs>
</svg>
