<svg width="40" height="43" viewBox="0 0 40 43" fill="none" xmlns="http://www.w3.org/2000/svg">
<path d="M38.4599 42.0964H39.16V41.3964V39.9964C39.16 38.8366 38.2197 37.8964 37.0599 37.8964H3.73985C2.58005 37.8964 1.63984 38.8366 1.63984 39.9964V41.3964V42.0964H2.33984H38.4599Z" stroke="#202327" stroke-width="1.4"/>
<path d="M38.4599 42.0964H39.16V41.3964V39.9964C39.16 38.8366 38.2197 37.8964 37.0599 37.8964H3.73985C2.58005 37.8964 1.63984 38.8366 1.63984 39.9964V41.3964V42.0964H2.33984H38.4599Z" stroke="black" stroke-opacity="0.2" stroke-width="1.4"/>
<path d="M35.6599 37.8964H36.3599V37.1964V36.3564C36.3599 35.1966 35.4197 34.2564 34.2599 34.2564H5.97984C4.82004 34.2564 3.87983 35.1966 3.87983 36.3564V37.1964V37.8964H4.57983H35.6599Z" stroke="#202327" stroke-width="1.4"/>
<path d="M35.6599 37.8964H36.3599V37.1964V36.3564C36.3599 35.1966 35.4197 34.2564 34.2599 34.2564H5.97984C4.82004 34.2564 3.87983 35.1966 3.87983 36.3564V37.1964V37.8964H4.57983H35.6599Z" stroke="black" stroke-opacity="0.2" stroke-width="1.4"/>
<path d="M33.14 34.2564H33.84V33.5564V14.7963C33.84 7.29625 27.76 1.21626 20.2599 1.21626C12.7599 1.21626 6.67988 7.29625 6.67988 14.7963V33.5564V34.2564H7.37988H33.14Z" stroke="#202327" stroke-width="1.4"/>
<path d="M33.14 34.2564H33.84V33.5564V14.7963C33.84 7.29625 27.76 1.21626 20.2599 1.21626C12.7599 1.21626 6.67988 7.29625 6.67988 14.7963V33.5564V34.2564H7.37988H33.14Z" stroke="black" stroke-opacity="0.2" stroke-width="1.4"/>
<path d="M31.32 26.5693V15.2163C31.32 9.18534 26.4309 4.29627 20.4 4.29627C14.369 4.29627 9.47993 9.18535 9.47993 15.2163V26.708C9.47993 27.2428 9.91347 27.6763 10.4483 27.6763C11.6918 27.6763 12.6999 28.6845 12.6999 29.928C12.6999 30.4628 13.1335 30.8964 13.6683 30.8964H27.036C27.7783 30.8964 28.38 30.2946 28.38 29.5523V29.3283C28.38 28.416 29.1196 27.6763 30.032 27.6763H30.213C30.8244 27.6763 31.32 27.1807 31.32 26.5693Z" stroke="#202327" stroke-width="1.4"/>
<path d="M31.32 26.5693V15.2163C31.32 9.18534 26.4309 4.29627 20.4 4.29627C14.369 4.29627 9.47993 9.18535 9.47993 15.2163V26.708C9.47993 27.2428 9.91347 27.6763 10.4483 27.6763C11.6918 27.6763 12.6999 28.6845 12.6999 29.928C12.6999 30.4628 13.1335 30.8964 13.6683 30.8964H27.036C27.7783 30.8964 28.38 30.2946 28.38 29.5523V29.3283C28.38 28.416 29.1196 27.6763 30.032 27.6763H30.213C30.8244 27.6763 31.32 27.1807 31.32 26.5693Z" stroke="black" stroke-opacity="0.2" stroke-width="1.4"/>
<path d="M20.2504 27.4729C18.132 26.6256 13.7682 23.8532 13.2598 19.5422C13.2598 15.2311 13.2598 12.391 13.2598 11.5098L20.2504 9.47626" stroke="#202327" stroke-width="1.4" stroke-linecap="round" stroke-linejoin="round"/>
<path d="M20.2504 27.4729C18.132 26.6256 13.7682 23.8532 13.2598 19.5422C13.2598 15.2311 13.2598 12.391 13.2598 11.5098L20.2504 9.47626" stroke="black" stroke-opacity="0.2" stroke-width="1.4" stroke-linecap="round" stroke-linejoin="round"/>
<path d="M20.2506 27.4729C22.369 26.6256 26.7328 23.8532 27.2412 19.5422C27.2412 15.2311 27.2412 12.391 27.2412 11.5098L20.2506 9.47626" stroke="#202327" stroke-width="1.4" stroke-linecap="round" stroke-linejoin="round"/>
<path d="M20.2506 27.4729C22.369 26.6256 26.7328 23.8532 27.2412 19.5422C27.2412 15.2311 27.2412 12.391 27.2412 11.5098L20.2506 9.47626" stroke="black" stroke-opacity="0.2" stroke-width="1.4" stroke-linecap="round" stroke-linejoin="round"/>
<path d="M20.2664 24.6762C18.8221 24.0792 15.8467 22.1259 15.5 19.0884C15.5 16.051 15.5 14.0499 15.5 13.429L20.2664 11.9963" stroke="#202327" stroke-width="1.4" stroke-linecap="round" stroke-linejoin="round"/>
<path d="M20.2664 24.6762C18.8221 24.0792 15.8467 22.1259 15.5 19.0884C15.5 16.051 15.5 14.0499 15.5 13.429L20.2664 11.9963" stroke="black" stroke-opacity="0.2" stroke-width="1.4" stroke-linecap="round" stroke-linejoin="round"/>
<path d="M20.2668 24.6762C21.7111 24.0792 24.6866 22.1259 25.0332 19.0884C25.0332 16.051 25.0332 14.0499 25.0332 13.429L20.2668 11.9963" stroke="#202327" stroke-width="1.4" stroke-linecap="round" stroke-linejoin="round"/>
<path d="M20.2668 24.6762C21.7111 24.0792 24.6866 22.1259 25.0332 19.0884C25.0332 16.051 25.0332 14.0499 25.0332 13.429L20.2668 11.9963" stroke="black" stroke-opacity="0.2" stroke-width="1.4" stroke-linecap="round" stroke-linejoin="round"/>
<line x1="20.1199" y1="24.8763" x2="20.1199" y2="27.3964" stroke="#202327" stroke-width="1.4"/>
<line x1="20.1199" y1="24.8763" x2="20.1199" y2="27.3964" stroke="black" stroke-opacity="0.2" stroke-width="1.4"/>
<path d="M17.74 18.4891L19.3712 20.1163L23.06 16.1963" stroke="#202327" stroke-width="1.4" stroke-linecap="round" stroke-linejoin="round"/>
<path d="M17.74 18.4891L19.3712 20.1163L23.06 16.1963" stroke="black" stroke-opacity="0.2" stroke-width="1.4" stroke-linecap="round" stroke-linejoin="round"/>
<line x1="20.3108" y1="9.19629" x2="20.3108" y2="11.7163" stroke="#202327" stroke-width="1.4"/>
<line x1="20.3108" y1="9.19629" x2="20.3108" y2="11.7163" stroke="black" stroke-opacity="0.2" stroke-width="1.4"/>
<line x1="26.8951" y1="11.7153" x2="25.1696" y2="13.4408" stroke="#202327" stroke-width="1.4"/>
<line x1="26.8951" y1="11.7153" x2="25.1696" y2="13.4408" stroke="black" stroke-opacity="0.2" stroke-width="1.4"/>
<line y1="-0.700002" x2="2.44022" y2="-0.700002" transform="matrix(0.707107 0.707107 0.707107 -0.707107 14.1497 11.2301)" stroke="#202327" stroke-width="1.4"/>
<line y1="-0.700002" x2="2.44022" y2="-0.700002" transform="matrix(0.707107 0.707107 0.707107 -0.707107 14.1497 11.2301)" stroke="black" stroke-opacity="0.2" stroke-width="1.4"/>
</svg>
