<svg width="42" height="40" viewBox="0 0 42 40" fill="none" xmlns="http://www.w3.org/2000/svg">
<circle cx="8.99751" cy="35.2292" r="4.04542" stroke="#202327" stroke-width="1.4"/>
<circle cx="8.99751" cy="35.2292" r="4.04542" stroke="black" stroke-opacity="0.2" stroke-width="1.4"/>
<circle cx="31.8542" cy="35.2292" r="4.04542" stroke="#202327" stroke-width="1.4"/>
<circle cx="31.8542" cy="35.2292" r="4.04542" stroke="black" stroke-opacity="0.2" stroke-width="1.4"/>
<circle cx="8.99755" cy="35.2292" r="1.37357" stroke="#202327" stroke-width="1.4"/>
<circle cx="8.99755" cy="35.2292" r="1.37357" stroke="black" stroke-opacity="0.2" stroke-width="1.4"/>
<circle cx="31.8542" cy="35.2292" r="1.37357" stroke="#202327" stroke-width="1.4"/>
<circle cx="31.8542" cy="35.2292" r="1.37357" stroke="black" stroke-opacity="0.2" stroke-width="1.4"/>
<rect x="13.043" y="33.7817" width="14.7659" height="2.67616" stroke="#202327" stroke-width="1.4"/>
<rect x="13.043" y="33.7817" width="14.7659" height="2.67616" stroke="black" stroke-opacity="0.2" stroke-width="1.4"/>
<path d="M0.940725 33.7817H4.95206V36.4578H1.36073C1.12877 36.4578 0.940725 36.2698 0.940725 36.0378V33.7817Z" stroke="#202327" stroke-width="1.4"/>
<path d="M0.940725 33.7817H4.95206V36.4578H1.36073C1.12877 36.4578 0.940725 36.2698 0.940725 36.0378V33.7817Z" stroke="black" stroke-opacity="0.2" stroke-width="1.4"/>
<path d="M0.940725 33.7817H4.95206V36.4578H1.36073C1.12877 36.4578 0.940725 36.2698 0.940725 36.0378V33.7817Z" stroke="#202327" stroke-width="1.4"/>
<path d="M0.940725 33.7817H4.95206V36.4578H1.36073C1.12877 36.4578 0.940725 36.2698 0.940725 36.0378V33.7817Z" stroke="black" stroke-opacity="0.2" stroke-width="1.4"/>
<path d="M3.76924 33.0383H0.94079V30.7292H3.34923C3.5812 30.7292 3.76924 30.9172 3.76924 31.1492V33.0383Z" stroke="#202327" stroke-width="1.4"/>
<path d="M3.76924 33.0383H0.94079V30.7292H3.34923C3.5812 30.7292 3.76924 30.9172 3.76924 31.1492V33.0383Z" stroke="black" stroke-opacity="0.2" stroke-width="1.4"/>
<path d="M37.8729 33.8557H41.2703V30.5876H38.2929C38.0609 30.5876 37.8729 30.7756 37.8729 31.0076V33.8557Z" stroke="#202327" stroke-width="1.4"/>
<path d="M37.8729 33.8557H41.2703V30.5876H38.2929C38.0609 30.5876 37.8729 30.7756 37.8729 31.0076V33.8557Z" stroke="black" stroke-opacity="0.2" stroke-width="1.4"/>
<path d="M11.197 28.5566C11.5836 28.5566 11.897 28.2432 11.897 27.8566V26.32C11.897 25.9334 11.5836 25.62 11.197 25.62H9.67124C9.28464 25.62 8.97123 25.9334 8.97123 26.32V27.8566C8.97123 28.2432 9.28464 28.5566 9.67124 28.5566H11.197Z" stroke="#202327" stroke-width="1.4" stroke-linejoin="round"/>
<path d="M11.197 28.5566C11.5836 28.5566 11.897 28.2432 11.897 27.8566V26.32C11.897 25.9334 11.5836 25.62 11.197 25.62H9.67124C9.28464 25.62 8.97123 25.9334 8.97123 26.32V27.8566C8.97123 28.2432 9.28464 28.5566 9.67124 28.5566H11.197Z" stroke="black" stroke-opacity="0.2" stroke-width="1.4" stroke-linejoin="round"/>
<path d="M35.8997 33.8912H41.2703V35.8673C41.2703 36.2539 40.9569 36.5673 40.5703 36.5673H35.8997V33.8912Z" stroke="#202327" stroke-width="1.4"/>
<path d="M35.8997 33.8912H41.2703V35.8673C41.2703 36.2539 40.9569 36.5673 40.5703 36.5673H35.8997V33.8912Z" stroke="black" stroke-opacity="0.2" stroke-width="1.4"/>
<path d="M0.938965 30.1309V30.1309C0.938965 29.4578 1.21927 28.8151 1.71257 28.3572L2.16378 27.9383C2.63346 27.5023 3.20499 27.191 3.82607 27.033L7.38321 26.1281C8.36899 25.8773 9.21562 25.2517 9.76507 24.3957C10.8338 22.7306 12.1761 20.7563 12.4703 20.7563C12.8237 20.7563 29.0785 20.7563 39.0231 20.7563C40.2602 20.7563 41.2583 21.7592 41.2583 22.9963V34.851" stroke="#202327" stroke-width="1.4"/>
<path d="M0.938965 30.1309V30.1309C0.938965 29.4578 1.21927 28.8151 1.71257 28.3572L2.16378 27.9383C2.63346 27.5023 3.20499 27.191 3.82607 27.033L7.38321 26.1281C8.36899 25.8773 9.21562 25.2517 9.76507 24.3957C10.8338 22.7306 12.1761 20.7563 12.4703 20.7563C12.8237 20.7563 29.0785 20.7563 39.0231 20.7563C40.2602 20.7563 41.2583 21.7592 41.2583 22.9963V34.851" stroke="black" stroke-opacity="0.2" stroke-width="1.4"/>
<path d="M27.1479 28.4655L40.8972 28.4655" stroke="#202327" stroke-width="1.4"/>
<path d="M27.1479 28.4655L40.8972 28.4655" stroke="black" stroke-opacity="0.2" stroke-width="1.4"/>
<path d="M35.1997 8.97009L35.1997 21.0109" stroke="#202327" stroke-width="1.4"/>
<path d="M35.1997 8.97009L35.1997 21.0109" stroke="black" stroke-opacity="0.2" stroke-width="1.4"/>
<path d="M7.18628 8.97009L7.18628 25.7801" stroke="#202327" stroke-width="1.4"/>
<path d="M7.18628 8.97009L7.18628 25.7801" stroke="black" stroke-opacity="0.2" stroke-width="1.4"/>
<path d="M19.1819 23.2687L19.1819 33.7274" stroke="#202327" stroke-width="1.4"/>
<path d="M19.1819 23.2687L19.1819 33.7274" stroke="black" stroke-opacity="0.2" stroke-width="1.4"/>
<path d="M26.4639 27.0883H12.177" stroke="#202327" stroke-width="1.4"/>
<path d="M26.4639 27.0883H12.177" stroke="black" stroke-opacity="0.2" stroke-width="1.4"/>
<path d="M10.2522 31.0481L10.2522 28.4655" stroke="#202327" stroke-width="1.4"/>
<path d="M10.2522 31.0481L10.2522 28.4655" stroke="black" stroke-opacity="0.2" stroke-width="1.4"/>
<path d="M14.2922 29.7568H17.1456" stroke="#202327" stroke-width="1.4"/>
<path d="M14.2922 29.7568H17.1456" stroke="black" stroke-opacity="0.2" stroke-width="1.4"/>
<path d="M21.6882 29.7568H24.5416" stroke="#202327" stroke-width="1.4"/>
<path d="M21.6882 29.7568H24.5416" stroke="black" stroke-opacity="0.2" stroke-width="1.4"/>
<path d="M11.8999 25.2725L13.6592 22.9918H26.4637V33.7762L13.0076 34.0043" stroke="#202327" stroke-width="1.4" stroke-linejoin="round"/>
<path d="M11.8999 25.2725L13.6592 22.9918H26.4637V33.7762L13.0076 34.0043" stroke="black" stroke-opacity="0.2" stroke-width="1.4" stroke-linejoin="round"/>
<path d="M3.36255 26.8613V8.68573H38.8455V20.6823" stroke="#202327" stroke-width="1.4" stroke-linejoin="round"/>
<path d="M3.36255 26.8613V8.68573H38.8455V20.6823" stroke="black" stroke-opacity="0.2" stroke-width="1.4" stroke-linejoin="round"/>
<path d="M3.36255 26.8613V8.68573H38.8455V20.6823" stroke="#202327" stroke-width="1.4" stroke-linejoin="round"/>
<path d="M3.36255 26.8613V8.68573H38.8455V20.6823" stroke="black" stroke-opacity="0.2" stroke-width="1.4" stroke-linejoin="round"/>
<path d="M4.81148 5.1403L4.4253 5.57663V6.50195H3.44983V2.90598H4.4253V4.29271L5.60641 2.90598H6.73736L5.45344 4.39553L6.84017 6.50195H5.70922L4.81148 5.1403ZM10.8996 2.90598V6.50195H9.92157V3.78115H9.10157V4.03693C9.10157 4.43481 9.07984 4.78338 9.03637 5.08262C8.99458 5.38187 8.93774 5.62762 8.86585 5.81987C8.79396 6.01045 8.70202 6.16509 8.59001 6.28379C8.478 6.40248 8.36014 6.48524 8.23643 6.53204C8.11439 6.58053 7.9748 6.60477 7.81765 6.60477C7.73239 6.60477 7.6463 6.59557 7.55937 6.57718C7.47411 6.56046 7.40974 6.54375 7.36628 6.52703L7.30359 6.50195V5.60421C7.38885 5.63765 7.46575 5.65437 7.53429 5.65437C7.62624 5.65437 7.70481 5.63347 7.77001 5.59168C7.83521 5.54821 7.89623 5.47131 7.95307 5.36097C8.00991 5.24896 8.05254 5.08346 8.08096 4.86446C8.11105 4.64546 8.12609 4.37129 8.12609 4.04195V2.90598H10.8996ZM14.0587 4.96226L13.7252 3.90904L13.3917 4.96226H14.0587ZM14.3145 5.7321H13.1334L12.8776 6.50195H11.8244L13.186 2.90598H14.2643L15.626 6.50195H14.5728L14.3145 5.7321ZM16.1395 5.62929H16.3452L16.4003 5.57412C16.4254 5.54905 16.4664 5.4897 16.5232 5.39608C16.5817 5.30079 16.6335 5.19798 16.6787 5.08764C16.7238 4.97563 16.7648 4.82601 16.8016 4.63877C16.84 4.44986 16.8592 4.24925 16.8592 4.03693V2.90598H19.5299V5.62929H19.9411V7.22165H18.9632V6.50195H17.115V7.22165H16.1395V5.62929ZM17.8347 4.03693C17.8347 4.24925 17.8163 4.44902 17.7795 4.63626C17.7444 4.82183 17.7018 4.97312 17.6517 5.09015C17.6015 5.2055 17.5513 5.30664 17.5012 5.39357C17.4527 5.47883 17.4101 5.53985 17.3733 5.57663L17.3206 5.62929H18.5544V3.78115H17.8347V4.03693ZM21.9417 5.67944H22.5837C22.6823 5.67944 22.7668 5.64684 22.837 5.58165C22.9072 5.51645 22.9423 5.43787 22.9423 5.34593C22.9423 5.25064 22.908 5.17123 22.8395 5.1077C22.7709 5.04417 22.6857 5.01241 22.5837 5.01241H21.9417V5.67944ZM22.6339 6.50195H20.9663V2.90598H23.5843V3.72849H21.9417V4.1899H22.6339C23.02 4.1899 23.3301 4.30274 23.5642 4.52843C23.7999 4.75245 23.9178 5.02578 23.9178 5.34843C23.9178 5.66941 23.7999 5.94191 23.5642 6.16593C23.3301 6.38994 23.02 6.50195 22.6339 6.50195ZM25.0507 2.90598H26.0262V4.9096L27.5659 2.90598H28.4135V6.50195H27.438V4.49834L25.8933 6.50195H25.0507V2.90598ZM34.4765 2.90598V5.62929H34.8877V7.21663H33.9123V6.50195H29.7521V2.90598H30.7275V5.62929H31.6253V2.90598H32.6008V5.62929H33.501V2.90598H34.4765ZM36.9184 5.67944H38.7666V6.50195H35.943V2.90598H38.7164V3.72849H36.9184V4.29271H38.3052V5.06507H36.9184V5.67944Z" fill="#202327"/>
<path d="M4.81148 5.1403L4.4253 5.57663V6.50195H3.44983V2.90598H4.4253V4.29271L5.60641 2.90598H6.73736L5.45344 4.39553L6.84017 6.50195H5.70922L4.81148 5.1403ZM10.8996 2.90598V6.50195H9.92157V3.78115H9.10157V4.03693C9.10157 4.43481 9.07984 4.78338 9.03637 5.08262C8.99458 5.38187 8.93774 5.62762 8.86585 5.81987C8.79396 6.01045 8.70202 6.16509 8.59001 6.28379C8.478 6.40248 8.36014 6.48524 8.23643 6.53204C8.11439 6.58053 7.9748 6.60477 7.81765 6.60477C7.73239 6.60477 7.6463 6.59557 7.55937 6.57718C7.47411 6.56046 7.40974 6.54375 7.36628 6.52703L7.30359 6.50195V5.60421C7.38885 5.63765 7.46575 5.65437 7.53429 5.65437C7.62624 5.65437 7.70481 5.63347 7.77001 5.59168C7.83521 5.54821 7.89623 5.47131 7.95307 5.36097C8.00991 5.24896 8.05254 5.08346 8.08096 4.86446C8.11105 4.64546 8.12609 4.37129 8.12609 4.04195V2.90598H10.8996ZM14.0587 4.96226L13.7252 3.90904L13.3917 4.96226H14.0587ZM14.3145 5.7321H13.1334L12.8776 6.50195H11.8244L13.186 2.90598H14.2643L15.626 6.50195H14.5728L14.3145 5.7321ZM16.1395 5.62929H16.3452L16.4003 5.57412C16.4254 5.54905 16.4664 5.4897 16.5232 5.39608C16.5817 5.30079 16.6335 5.19798 16.6787 5.08764C16.7238 4.97563 16.7648 4.82601 16.8016 4.63877C16.84 4.44986 16.8592 4.24925 16.8592 4.03693V2.90598H19.5299V5.62929H19.9411V7.22165H18.9632V6.50195H17.115V7.22165H16.1395V5.62929ZM17.8347 4.03693C17.8347 4.24925 17.8163 4.44902 17.7795 4.63626C17.7444 4.82183 17.7018 4.97312 17.6517 5.09015C17.6015 5.2055 17.5513 5.30664 17.5012 5.39357C17.4527 5.47883 17.4101 5.53985 17.3733 5.57663L17.3206 5.62929H18.5544V3.78115H17.8347V4.03693ZM21.9417 5.67944H22.5837C22.6823 5.67944 22.7668 5.64684 22.837 5.58165C22.9072 5.51645 22.9423 5.43787 22.9423 5.34593C22.9423 5.25064 22.908 5.17123 22.8395 5.1077C22.7709 5.04417 22.6857 5.01241 22.5837 5.01241H21.9417V5.67944ZM22.6339 6.50195H20.9663V2.90598H23.5843V3.72849H21.9417V4.1899H22.6339C23.02 4.1899 23.3301 4.30274 23.5642 4.52843C23.7999 4.75245 23.9178 5.02578 23.9178 5.34843C23.9178 5.66941 23.7999 5.94191 23.5642 6.16593C23.3301 6.38994 23.02 6.50195 22.6339 6.50195ZM25.0507 2.90598H26.0262V4.9096L27.5659 2.90598H28.4135V6.50195H27.438V4.49834L25.8933 6.50195H25.0507V2.90598ZM34.4765 2.90598V5.62929H34.8877V7.21663H33.9123V6.50195H29.7521V2.90598H30.7275V5.62929H31.6253V2.90598H32.6008V5.62929H33.501V2.90598H34.4765ZM36.9184 5.67944H38.7666V6.50195H35.943V2.90598H38.7164V3.72849H36.9184V4.29271H38.3052V5.06507H36.9184V5.67944Z" fill="black" fill-opacity="0.2"/>
<rect x="1.22651" y="0.801951" width="39.7443" height="7.76647" stroke="#202327" stroke-width="1.4" stroke-linejoin="round"/>
<rect x="1.22651" y="0.801951" width="39.7443" height="7.76647" stroke="black" stroke-opacity="0.2" stroke-width="1.4" stroke-linejoin="round"/>
</svg>
