<svg width="47" height="47" viewBox="0 0 47 47" fill="none" xmlns="http://www.w3.org/2000/svg">
<g clip-path="url(#clip0_776_11385)">
<path d="M5.93462 44.9661C5.96157 43.304 5.96157 43.268 6.22212 42.7559C6.54556 42.118 7.11157 41.5879 7.7854 41.2735C8.22563 41.0668 8.44126 41.0309 9.35767 41.004L10.4088 40.968V40.6176C10.4088 40.429 10.0225 33.3223 9.54634 24.8411C9.07915 16.3508 8.70181 9.10044 8.72876 8.73208C8.7647 7.9145 8.98931 7.37544 9.52837 6.79145C10.337 5.91099 10.9749 5.67739 12.5471 5.67739H13.6612L14.7124 4.67114C16.4913 2.95513 18.4768 1.64341 20.112 1.09536C21.8909 0.502393 25.1612 0.502393 26.9401 1.09536C28.5752 1.64341 30.5608 2.95513 32.3397 4.67114L33.3909 5.67739H34.5049C36.0772 5.67739 36.7151 5.91099 37.5237 6.79145C38.0627 7.37544 38.2873 7.9145 38.3233 8.73208C38.3502 9.10044 37.9729 16.3508 37.5057 24.8411C37.0295 33.3223 36.6432 40.429 36.6432 40.6176V40.968L37.7034 41.004C38.6108 41.0309 38.8264 41.0668 39.2666 41.2735C39.9405 41.5879 40.5065 42.118 40.8299 42.7559C41.0905 43.268 41.0905 43.304 41.1174 44.9661L41.1534 46.6461H5.89868L5.93462 44.9661ZM39.069 44.427C39.069 43.9868 38.8893 43.5106 38.6467 43.3219C38.4131 43.1422 38.3862 43.1422 23.526 43.1422C8.66587 43.1422 8.63892 43.1422 8.40532 43.3219C8.16274 43.5106 7.98306 43.9868 7.98306 44.427V44.6696H39.069V44.427ZM34.487 40.968C34.487 40.95 34.8913 33.7086 35.3854 24.859C36.2389 9.41489 36.2748 8.76802 36.1221 8.47153C35.8166 7.85161 35.637 7.78872 33.9748 7.76177L32.4924 7.72583L31.2077 6.49497C30.5069 5.81216 29.6264 5.03052 29.2581 4.752C26.8592 2.98208 24.5592 2.33521 22.1514 2.75747C19.9952 3.13481 18.1983 4.20395 15.8624 6.48599L14.6135 7.69888L13.1041 7.7438C11.4151 7.7977 11.2354 7.85161 10.9299 8.47153C10.7772 8.76802 10.8131 9.41489 11.6666 24.859C12.1608 33.7086 12.5651 40.95 12.5651 40.968C12.5651 40.977 17.4975 40.986 23.526 40.986C29.5545 40.986 34.487 40.977 34.487 40.968Z" fill="#CC0029"/>
<path d="M15.7183 22.7203C14.9636 22.334 14.9636 21.2739 15.7183 20.8875C15.889 20.7977 17.6319 20.7797 23.6335 20.7977L31.3241 20.8157L31.5577 21.0313C32.0339 21.4805 32.0159 22.1723 31.5218 22.6125C31.3241 22.7922 31.1804 22.7922 23.6245 22.8102C17.6319 22.8282 15.889 22.8102 15.7183 22.7203ZM15.844 16.3325C15.0354 15.9731 14.8917 15.0657 15.5476 14.5625L15.844 14.3469L23.346 14.32C28.503 14.302 30.9558 14.32 31.1804 14.3918C32.1058 14.6614 32.1417 15.8383 31.2433 16.2965C30.9558 16.4493 30.4077 16.4582 23.5257 16.4582C17.5511 16.4493 16.0597 16.4313 15.844 16.3325Z" fill="#CC0029"/>
</g>
<defs>
<clipPath id="clip0_776_11385">
<rect width="46" height="46" fill="white" transform="translate(0.525635 0.645752)"/>
</clipPath>
</defs>
</svg>
