<svg width="47" height="47" viewBox="0 0 47 47" fill="none" xmlns="http://www.w3.org/2000/svg">
<g clip-path="url(#clip0_776_3083)">
<path d="M5.91362 44.4294C5.94058 42.7673 5.94058 42.7314 6.20112 42.2193C6.52456 41.5814 7.09058 41.0513 7.7644 40.7369C8.20464 40.5302 8.42026 40.4943 9.33667 40.4673L10.3878 40.4314V40.081C10.3878 39.8923 10.0015 32.7857 9.52534 24.3044C9.05815 15.8142 8.68081 8.56382 8.70776 8.19546C8.7437 7.37788 8.96831 6.83882 9.50737 6.25483C10.316 5.37437 10.9539 5.14077 12.5261 5.14077H13.6402L14.6914 4.13452C16.4703 2.41851 18.4558 1.10679 20.091 0.55874C21.8699 -0.0342285 25.1402 -0.0342285 26.9191 0.55874C28.5542 1.10679 30.5398 2.41851 32.3187 4.13452L33.3699 5.14077H34.4839C36.0562 5.14077 36.6941 5.37437 37.5027 6.25483C38.0417 6.83882 38.2664 7.37788 38.3023 8.19546C38.3292 8.56382 37.9519 15.8142 37.4847 24.3044C37.0085 32.7857 36.6222 39.8923 36.6222 40.081V40.4314L37.6824 40.4673C38.5898 40.4943 38.8054 40.5302 39.2457 40.7369C39.9195 41.0513 40.4855 41.5814 40.8089 42.2193C41.0695 42.7314 41.0695 42.7673 41.0964 44.4294L41.1324 46.1095H5.87769L5.91362 44.4294ZM39.048 43.8904C39.048 43.4501 38.8683 42.974 38.6257 42.7853C38.3921 42.6056 38.3652 42.6056 23.505 42.6056C8.64487 42.6056 8.61792 42.6056 8.38433 42.7853C8.14175 42.974 7.96206 43.4501 7.96206 43.8904V44.133H39.048V43.8904ZM34.466 40.4314C34.466 40.4134 34.8703 33.172 35.3644 24.3224C36.2179 8.87827 36.2539 8.2314 36.1011 7.93491C35.7957 7.31499 35.616 7.2521 33.9539 7.22515L32.4714 7.18921L31.1867 5.95835C30.4859 5.27554 29.6054 4.4939 29.2371 4.21538C26.8382 2.44546 24.5382 1.79858 22.1304 2.22085C19.9742 2.59819 18.1773 3.66733 15.8414 5.94937L14.5925 7.16226L13.0832 7.20718C11.3941 7.26108 11.2144 7.31499 10.9089 7.93491C10.7562 8.2314 10.7921 8.87827 11.6457 24.3224C12.1398 33.172 12.5441 40.4134 12.5441 40.4314C12.5441 40.4404 17.4765 40.4494 23.505 40.4494C29.5335 40.4494 34.466 40.4404 34.466 40.4314Z" fill="#666666"/>
<path d="M15.6972 22.1837C14.9425 21.7974 14.9425 20.7372 15.6972 20.3509C15.8679 20.2611 17.6109 20.2431 23.6124 20.2611L31.3031 20.279L31.5367 20.4947C32.0128 20.9439 31.9949 21.6357 31.5007 22.0759C31.3031 22.2556 31.1593 22.2556 23.6034 22.2736C17.6109 22.2915 15.8679 22.2736 15.6972 22.1837ZM15.823 15.7958C15.0144 15.4365 14.8706 14.529 15.5265 14.0259L15.823 13.8103L23.3249 13.7833C28.482 13.7654 30.9347 13.7833 31.1593 13.8552C32.0847 14.1247 32.1206 15.3017 31.2222 15.7599C30.9347 15.9126 30.3867 15.9216 23.5046 15.9216C17.53 15.9126 16.0386 15.8947 15.823 15.7958Z" fill="#666666"/>
</g>
<defs>
<clipPath id="clip0_776_3083">
<rect width="46" height="46" fill="white" transform="translate(0.504639 0.109131)"/>
</clipPath>
</defs>
</svg>
