<svg width="140" height="33" viewBox="0 0 140 33" fill="none" xmlns="http://www.w3.org/2000/svg">
<path fill-rule="evenodd" clip-rule="evenodd" d="M107.323 12.9234H108.917C108.974 12.9234 109.019 12.9756 109.019 13.0242V14.5878C109.019 14.6363 108.966 14.6882 108.917 14.6882H107.323C107.274 14.6882 107.222 14.6433 107.222 14.5878V13.0242C107.222 12.9687 107.268 12.9234 107.323 12.9234ZM120.544 8.61599C120.906 8.54429 121.226 8.44229 121.5 8.30879C121.97 8.08069 122.344 7.77989 122.61 7.41469C122.872 7.05449 123.069 6.63019 123.176 6.17459C123.282 5.71909 123.337 5.02449 123.335 4.51399C123.331 3.70139 123.234 2.82469 123.05 2.30329C122.865 1.77889 122.591 1.35529 122.247 1.05949C121.9 0.760988 121.478 0.530388 121.001 0.395388C120.523 0.260888 119.984 0.173188 119.393 0.136488C118.805 0.100488 118.165 0.0889893 117.499 0.0889893H112.486V14.688H114.461V8.87419H118.32H118.387L118.406 8.91349L121.52 14.688H123.871L120.544 8.61599ZM121.404 4.53619C121.404 5.10889 121.34 5.76649 121.219 6.08739C121.098 6.40779 120.893 6.64849 120.635 6.78759C120.373 6.92869 120.021 7.02699 119.607 7.05779C119.194 7.08799 118.678 7.10099 118.098 7.10099H114.461V1.83989H117.699C118.165 1.83989 118.597 1.84569 118.978 1.85509C119.362 1.86369 119.712 1.90839 120.01 1.97859C120.31 2.04979 120.569 2.17959 120.772 2.35099C120.975 2.52179 121.139 2.77379 121.241 3.09139C121.345 3.40849 121.404 4.02569 121.404 4.53619ZM23.6167 8.61679C23.9783 8.54519 24.2985 8.44269 24.5731 8.30969C25.0431 8.08119 25.4136 7.78389 25.6824 7.41519C25.9484 7.05149 26.1382 6.63459 26.2478 6.17539C26.3586 5.71639 26.4098 5.02489 26.4074 4.51479C26.4036 3.70219 26.3101 2.82919 26.1223 2.30429C25.9334 1.77569 25.667 1.35889 25.3197 1.05999C24.969 0.758088 24.5543 0.534288 24.0738 0.396288C23.5931 0.257788 23.0564 0.173589 22.4657 0.136889C21.8776 0.101089 21.2441 0.0893879 20.5719 0.0893879H15.5581V14.6882H17.5323V8.87439H21.3923H21.4594L21.4785 8.91369L24.5917 14.6882H26.9436L23.6167 8.61679ZM24.4767 4.53659C24.4767 5.10979 24.4169 5.76319 24.2918 6.08829C24.1668 6.41209 23.9694 6.64549 23.7077 6.78779C23.4413 6.93229 23.0972 7.02429 22.6794 7.05839C22.2625 7.09279 21.7584 7.10179 21.1709 7.10179H17.5323V1.84069H20.7722C21.2374 1.84069 21.6664 1.84259 22.0511 1.85529C22.4382 1.86789 22.7842 1.90899 23.0828 1.97899C23.3823 2.05019 23.6378 2.17669 23.8448 2.35139C24.0518 2.52659 24.2074 2.77119 24.3144 3.09159C24.4208 3.41249 24.4767 4.02589 24.4767 4.53659ZM55.0461 1.81849V0.0893879H43.8422V1.81849H48.4562V14.6882H50.4312V1.81849H55.0461ZM71.6736 7.35629V0.0893879H69.7211V7.35629C69.7211 8.06539 69.7265 8.70999 69.725 9.27119C69.7231 9.83309 69.6936 10.3291 69.6475 10.7454C69.5999 11.1617 69.5033 11.515 69.3659 11.7991C69.2299 12.0838 69.0268 12.3226 68.7594 12.5143C68.4944 12.7051 68.1485 12.8485 67.7245 12.945C67.2986 13.0414 66.7814 13.0911 66.1715 13.0911C65.5684 13.0911 65.0508 13.0387 64.6327 12.9411C64.2136 12.844 63.8697 12.6889 63.6047 12.4963C63.3427 12.3048 63.1307 12.0599 62.9987 11.7776C62.8628 11.4891 62.7646 11.1294 62.718 10.7121C62.6709 10.2998 62.6439 9.80549 62.6439 9.25319C62.6439 8.69709 62.6439 8.06419 62.6439 7.35629V0.0893879H60.6694V7.35629C60.6694 7.85739 60.6728 8.31789 60.6728 8.70999C60.6728 9.10139 60.6817 9.45289 60.6841 9.75269C60.6871 10.0522 60.6988 10.322 60.7141 10.5518C60.7356 10.9088 60.7744 11.2346 60.8313 11.5224C60.8883 11.8067 60.9707 12.0803 61.0683 12.3243C61.3048 12.9136 61.664 13.3969 62.1331 13.7694C62.6066 14.1441 63.1842 14.4238 63.8638 14.6008C64.5399 14.7768 65.3098 14.8633 66.1715 14.8633C67.0331 14.8633 67.8025 14.7778 68.4821 14.6008C69.1593 14.4247 69.7388 14.1418 70.2089 13.7694C70.6755 13.4002 71.0381 12.9136 71.2741 12.3243C71.3718 12.0803 71.4537 11.8067 71.5107 11.5224C71.5686 11.2346 71.6068 10.9088 71.6289 10.5518C71.6431 10.322 71.6534 10.0553 71.6588 9.75269C71.6637 9.45019 71.6716 9.10369 71.6736 8.70999C71.6745 8.31579 71.6736 7.86369 71.6736 7.35629ZM89.7735 14.6882L84.0718 0.0893879H82.0972L76.3734 14.6882H78.4367L79.923 10.6612H86.113L87.6219 14.6882H89.7735ZM85.4918 8.97589H80.5668L83.0295 2.43209L85.4918 8.97589ZM103.764 14.6882V12.9375H96.969V0.0893879H94.994V14.6882H103.764ZM139.652 7.35629V0.0893879H137.7V7.35629C137.703 8.07109 137.703 8.70999 137.703 9.27119C137.7 9.83309 137.674 10.3258 137.626 10.7454C137.574 11.164 137.482 11.5148 137.345 11.7991C137.208 12.0838 137.005 12.321 136.738 12.5143C136.472 12.7039 136.129 12.8497 135.703 12.945C135.278 13.0433 134.76 13.0911 134.15 13.0911C133.547 13.0911 133.034 13.0395 132.612 12.9411C132.191 12.839 131.85 12.6933 131.584 12.4963C131.318 12.3031 131.114 12.062 130.977 11.7776C130.841 11.4855 130.748 11.1321 130.696 10.7121C130.648 10.2967 130.623 9.80749 130.623 9.25319C130.618 8.69539 130.618 8.06419 130.623 7.35629V0.0893879H128.648V7.35629C128.648 7.85549 128.648 8.31579 128.652 8.70999C128.652 9.10369 128.655 9.45019 128.662 9.75269C128.666 10.0558 128.677 10.322 128.692 10.5518C128.715 10.9093 128.755 11.2337 128.811 11.5224C128.87 11.8067 128.947 12.0765 129.047 12.3243C129.288 12.9157 129.643 13.3969 130.112 13.7694C130.585 14.1448 131.163 14.4223 131.843 14.6008C132.519 14.7755 133.288 14.8633 134.15 14.8633C135.011 14.8633 135.781 14.7755 136.461 14.6008C137.138 14.4223 137.714 14.1448 138.187 13.7694C138.657 13.3969 139.013 12.9157 139.252 12.3243C139.353 12.0765 139.43 11.8067 139.49 11.5224C139.545 11.2337 139.586 10.9093 139.608 10.5518C139.622 10.322 139.634 10.0558 139.638 9.75269C139.645 9.45019 139.648 9.10369 139.652 8.70999C139.652 8.31579 139.652 7.86369 139.652 7.35629Z" fill="#CC0029"/>
<mask id="mask0_2259_18308" style="mask-type:luminance" maskUnits="userSpaceOnUse" x="0" y="0" width="40" height="33">
<path d="M27.6232 32.1826H0.574097L37.2252 17.7223V1.32309L29.5438 0.0388927V0.00189209H39.2161V18.2663L27.6232 32.1826Z" fill="white"/>
</mask>
<g mask="url(#mask0_2259_18308)">
<path d="M43.478 -3.48932H4.06604V29.4851H43.478V-3.48932Z" fill="url(#paint0_linear_2259_18308)"/>
</g>
<defs>
<linearGradient id="paint0_linear_2259_18308" x1="33.7458" y1="-2.32532" x2="18.324" y2="36.9566" gradientUnits="userSpaceOnUse">
<stop stop-color="#CC0029"/>
<stop offset="1" stop-color="#CC0029"/>
</linearGradient>
</defs>
</svg>
