<svg width="16" height="16" viewBox="0 0 16 16" fill="none" xmlns="http://www.w3.org/2000/svg">
<g clip-path="url(#clip0_438_110220)">
<path d="M12.5712 5.89618C12.5712 8.61811 7.65207 15.1879 7.65207 15.1879C7.65207 15.1879 2.73291 8.61811 2.73291 5.89618C2.73291 4.59153 3.25118 3.34032 4.1737 2.4178C5.09622 1.49528 6.34743 0.977013 7.65207 0.977013C8.95672 0.977013 10.2079 1.49528 11.1304 2.4178C12.053 3.34032 12.5712 4.59153 12.5712 5.89618V5.89618Z" stroke="#BDBDBD" stroke-width="1.09315" stroke-linecap="round" stroke-linejoin="round"/>
<path d="M7.65242 7.53596C8.55801 7.53596 9.29214 6.80183 9.29214 5.89624C9.29214 4.99065 8.55801 4.25652 7.65242 4.25652C6.74682 4.25652 6.0127 4.99065 6.0127 5.89624C6.0127 6.80183 6.74682 7.53596 7.65242 7.53596Z" stroke="#BDBDBD" stroke-width="1.09315" stroke-linecap="round" stroke-linejoin="round"/>
</g>
<defs>
<clipPath id="clip0_438_110220">
<rect width="15.3041" height="15.3041" fill="white" transform="translate(0 0.43047)"/>
</clipPath>
</defs>
</svg>
