<svg width="47" height="46" viewBox="0 0 47 46" fill="none" xmlns="http://www.w3.org/2000/svg">
<g clip-path="url(#clip0_438_110211)">
<path d="M20.0612 45.9393L19.3159 45.1939C19.2662 45.1442 16.3343 42.2621 11.5142 42.2621H7.09162C3.71256 42.2621 0.979492 38.8333 0.979492 34.6592V1.31582H34.0247V3.50227H3.21564V34.6592C3.21564 37.6407 4.95486 40.0259 7.09162 40.0259H11.5142C15.7877 40.0259 18.8189 41.9142 20.1109 42.9578C21.5023 41.9142 24.6329 40.0259 28.658 40.0259H33.0806C35.2173 40.0259 36.9565 37.591 36.9565 34.6592V23.0809H39.2424V34.6592C39.2424 38.8333 36.5093 42.2621 33.1303 42.2621H28.7077C24.1857 42.2621 20.906 45.1939 20.8563 45.2436L20.0612 45.9393Z" fill="#CC0029"/>
<path d="M20.0114 31.2801L7.78711 20.0497L9.27787 18.4596L19.8623 28.1495L44.6089 0.222597L46.2985 1.71336L20.0114 31.2801Z" fill="#244B90"/>
</g>
<defs>
<clipPath id="clip0_438_110211">
<rect width="45.7167" height="45.7167" fill="white" transform="translate(0.979492 0.222614)"/>
</clipPath>
</defs>
</svg>
