<svg width="18" height="17" viewBox="0 0 18 17" fill="none" xmlns="http://www.w3.org/2000/svg">
<g clip-path="url(#clip0_693_26070)">
<path d="M6.22224 10.9396C3.2044 10.9396 0.757952 8.63711 0.757952 5.79679C0.757952 2.95647 3.2044 0.653931 6.22224 0.653931C9.24008 0.653931 11.6865 2.95647 11.6865 5.79679C11.6865 8.63711 9.24008 10.9396 6.22224 10.9396Z" stroke="#BDBDBD" stroke-linecap="round" stroke-linejoin="round"/>
<path d="M16.5439 15.5107L9.76823 9.71643" stroke="#BDBDBD" stroke-linecap="round" stroke-linejoin="round"/>
<path d="M6.82938 4.65421C6.49406 4.65421 6.22224 4.39837 6.22224 4.08278C6.22224 3.76719 6.49406 3.51135 6.82938 3.51135C7.1647 3.51135 7.43652 3.76719 7.43652 4.08278C7.43652 4.39837 7.1647 4.65421 6.82938 4.65421Z" stroke="#BDBDBD" stroke-linecap="round" stroke-linejoin="round"/>
</g>
<defs>
<clipPath id="clip0_693_26070">
<rect width="17" height="16" fill="white" transform="matrix(-1 0 0 1 17.1514 0.0825195)"/>
</clipPath>
</defs>
</svg>
