<svg width="26" height="38" viewBox="0 0 26 38" fill="none" xmlns="http://www.w3.org/2000/svg">
<path d="M25.0954 16.8133C25.0954 23.5193 19.6591 35.7605 12.9531 35.7605C6.24714 35.7605 0.810853 23.5193 0.810853 16.8133C0.810853 10.1073 -0.131895 11.0936 12.9529 11.0178C26.0377 10.942 25.0954 10.1073 25.0954 16.8133Z" fill="white"/>
<path d="M4.0896 35.123C4.0896 34.5054 4.52625 33.974 5.1321 33.8543L7.90062 33.3073C7.96672 33.2942 8.0317 33.276 8.09496 33.2528L12.5141 31.6331C12.7977 31.5292 13.1087 31.5278 13.3932 31.6292L18.0466 33.2877L20.7828 33.8485C21.3844 33.9718 21.8163 34.5012 21.8163 35.1153V37.4606H4.0896V35.123Z" fill="white"/>
<path d="M3.02979 4.73339C3.02979 4.11584 3.46644 3.58446 4.07228 3.46474L7.3893 2.80931C7.40161 2.80688 7.4137 2.80349 7.42548 2.79917C10.9975 1.48994 14.9152 1.47242 18.4988 2.74964L18.656 2.80566L21.8431 3.4589C22.4447 3.58221 22.8766 4.11163 22.8766 4.72574V6.61558C22.8766 7.09171 22.4906 7.4777 22.0145 7.4777H3.8919C3.41577 7.4777 3.02979 7.09171 3.02979 6.61558V4.73339Z" fill="white"/>
<rect x="1.68823" y="8.16923" width="22.5294" height="2.08542" rx="0.862119" fill="white"/>
<rect x="11.7466" y="13.2477" width="2.41271" height="15.2325" fill="#7494E7"/>
<rect x="18.572" y="16.6905" width="2.41271" height="11.2376" transform="rotate(90 18.572 16.6905)" fill="#7494E7"/>
</svg>
