<svg width="63" height="22" viewBox="0 0 63 22" fill="none" xmlns="http://www.w3.org/2000/svg">
<path d="M60.2942 8.34155L60.2942 19.4163C60.2942 20.4331 59.4699 21.2574 58.4531 21.2574L4.18462 21.2574C3.16782 21.2574 2.34354 20.4331 2.34354 19.4163L2.34354 8.34155L60.2942 8.34155Z" fill="white"/>
<path d="M60.8969 4.31616C61.5747 4.31616 62.1243 4.86568 62.1243 5.54355L62.1243 5.88905C62.1243 6.56692 61.5747 7.11644 60.8969 7.11644L1.54664 7.11644C0.868774 7.11644 0.319252 6.56692 0.319252 5.88905L0.319252 5.54355C0.319252 4.86568 0.868774 4.31616 1.54664 4.31616L60.8969 4.31616Z" fill="white"/>
<path d="M54.099 0.290771L60.2942 3.09105L1.39983 3.09105L5.65456 0.290769L54.099 0.290771Z" fill="white"/>
<rect x="43.7371" y="7.11694" width="1.25701" height="10.6085" rx="0.628505" fill="#A9BFFA"/>
<rect x="51.6189" y="12.0002" width="1.25701" height="4.29171" rx="0.628505" fill="#A9BFFA"/>
<rect x="9.76196" y="12.0002" width="1.25701" height="4.29171" rx="0.628505" fill="#A9BFFA"/>
<rect x="16.6995" y="7.11646" width="1.25701" height="10.6085" rx="0.628505" fill="#A9BFFA"/>
<rect x="9.76196" y="14.7747" width="1.25701" height="43.1146" rx="0.628505" transform="rotate(-90 9.76196 14.7747)" fill="#A9BFFA"/>
</svg>
