<svg width="280" height="60" viewBox="0 0 280 60" fill="none" xmlns="http://www.w3.org/2000/svg">
<path d="M54.7343 13V4.91889H60.2175V6.47988H56.47V13H54.7343ZM63.2212 7.07723C62.7178 7.58817 62.466 8.21745 62.466 8.96508C62.466 9.70895 62.7178 10.3364 63.2212 10.8473C63.7246 11.3582 64.337 11.6137 65.0583 11.6137C65.7834 11.6137 66.3976 11.3582 66.9011 10.8473C67.4045 10.3364 67.6562 9.70895 67.6562 8.96508C67.6562 8.21745 67.4045 7.58817 66.9011 7.07723C66.3976 6.56254 65.7834 6.30519 65.0583 6.30519C64.337 6.30519 63.7246 6.56254 63.2212 7.07723ZM61.942 11.9406C61.0967 11.114 60.674 10.1203 60.674 8.95944C60.674 7.79856 61.0967 6.80674 61.942 5.98397C62.791 5.16121 63.8298 4.74983 65.0583 4.74983C66.2906 4.74983 67.3294 5.16121 68.1747 5.98397C69.0237 6.80674 69.4483 7.79856 69.4483 8.95944C69.4483 10.1203 69.0237 11.114 68.1747 11.9406C67.3294 12.7633 66.2906 13.1747 65.0583 13.1747C63.8298 13.1747 62.791 12.7633 61.942 11.9406ZM71.0656 4.91889H74.4694C75.2996 4.91889 75.9872 5.17999 76.5319 5.7022C77.0804 6.22066 77.3547 6.86497 77.3547 7.63513C77.3547 8.40154 77.0823 9.04585 76.5375 9.56806C75.9928 10.0865 75.3034 10.3457 74.4694 10.3457H72.8013V13H71.0656V4.91889ZM74.413 6.47988H72.8013V8.78475H74.413C74.7587 8.78475 75.0461 8.67392 75.2752 8.45226C75.5082 8.2306 75.6246 7.95823 75.6246 7.63513C75.6246 7.31204 75.5082 7.03966 75.2752 6.81801C75.0461 6.59259 74.7587 6.47988 74.413 6.47988ZM80.9951 7.07723C80.4917 7.58817 80.24 8.21745 80.24 8.96508C80.24 9.70895 80.4917 10.3364 80.9951 10.8473C81.4985 11.3582 82.1109 11.6137 82.8322 11.6137C83.5573 11.6137 84.1716 11.3582 84.675 10.8473C85.1784 10.3364 85.4301 9.70895 85.4301 8.96508C85.4301 8.21745 85.1784 7.58817 84.675 7.07723C84.1716 6.56254 83.5573 6.30519 82.8322 6.30519C82.1109 6.30519 81.4985 6.56254 80.9951 7.07723ZM79.7159 11.9406C78.8706 11.114 78.4479 10.1203 78.4479 8.95944C78.4479 7.79856 78.8706 6.80674 79.7159 5.98397C80.565 5.16121 81.6037 4.74983 82.8322 4.74983C84.0645 4.74983 85.1033 5.16121 85.9486 5.98397C86.7977 6.80674 87.2222 7.79856 87.2222 8.95944C87.2222 10.1203 86.7977 11.114 85.9486 11.9406C85.1033 12.7633 84.0645 13.1747 82.8322 13.1747C81.6037 13.1747 80.565 12.7633 79.7159 11.9406ZM87.566 11.4446H88.0281C88.0581 11.4146 88.1013 11.3676 88.1577 11.3038C88.2178 11.2361 88.3211 11.0859 88.4676 10.8529C88.6141 10.6162 88.7419 10.357 88.8508 10.0752C88.9635 9.79348 89.065 9.41215 89.1551 8.93127C89.249 8.45038 89.296 7.94132 89.296 7.40408V4.91889H94.8919V11.4446H95.8781V14.6737H94.1424V13H89.296V14.6737H87.566V11.4446ZM91.0261 7.40408C91.0261 7.94132 90.981 8.4485 90.8908 8.92563C90.8044 9.40276 90.6992 9.78784 90.5752 10.0809C90.455 10.3739 90.3329 10.6275 90.2089 10.8417C90.085 11.0558 89.9816 11.2098 89.899 11.3038L89.7581 11.4446H93.1619V6.47988H91.0261V7.40408ZM101.13 4.74983C101.555 4.74983 101.959 4.80618 102.342 4.91889C102.725 5.02784 103.039 5.16121 103.283 5.319C103.531 5.47679 103.749 5.63458 103.937 5.79237C104.128 5.95016 104.265 6.08353 104.348 6.19248L104.478 6.36154L103.379 7.46044C103.356 7.43038 103.324 7.38906 103.283 7.33646C103.245 7.28011 103.157 7.18618 103.018 7.05469C102.883 6.9232 102.734 6.80861 102.573 6.71093C102.411 6.6095 102.199 6.51745 101.936 6.4348C101.673 6.34839 101.405 6.30519 101.13 6.30519C100.375 6.30519 99.744 6.55878 99.2368 7.06596C98.7296 7.57314 98.476 8.20431 98.476 8.95944C98.476 9.71458 98.7296 10.3457 99.2368 10.8529C99.744 11.3601 100.375 11.6137 101.13 11.6137C101.423 11.6137 101.703 11.5743 101.97 11.4954C102.24 11.4127 102.464 11.3169 102.641 11.208C102.817 11.0952 102.973 10.9825 103.108 10.8698C103.244 10.7571 103.341 10.6594 103.401 10.5768L103.491 10.4585L104.534 11.5573C104.504 11.6024 104.457 11.6625 104.393 11.7377C104.333 11.8091 104.196 11.9387 103.982 12.1265C103.771 12.3106 103.544 12.474 103.3 12.6168C103.059 12.7558 102.742 12.8835 102.348 13C101.957 13.1165 101.551 13.1747 101.13 13.1747C99.898 13.1747 98.8573 12.7633 98.0083 11.9406C97.163 11.114 96.7403 10.1203 96.7403 8.95944C96.7403 7.79856 97.163 6.80674 98.0083 5.98397C98.8573 5.16121 99.898 4.74983 101.13 4.74983ZM107.65 4.91889V8.44099L110.823 4.91889H112.841L109.843 8.26629L113.072 13H111.054L108.687 9.53989L107.65 10.6895V13H105.915V4.91889H107.65ZM118.267 9.59624L117.287 6.94198L116.301 9.59624H118.267ZM118.842 11.0952H115.726L115.033 13H113.184L116.363 4.91889H118.205L121.384 13H119.535L118.842 11.0952ZM128.541 4.91889V13H126.811V10.171H125.312L123.751 13H121.908L123.638 9.94C123.6 9.92497 123.548 9.90055 123.48 9.86674C123.416 9.83293 123.302 9.74652 123.136 9.60751C122.971 9.46851 122.825 9.31823 122.697 9.15668C122.569 8.99513 122.453 8.7716 122.347 8.48607C122.246 8.20055 122.195 7.89624 122.195 7.57314C122.195 6.82552 122.456 6.19624 122.979 5.6853C123.501 5.17436 124.162 4.91889 124.962 4.91889H128.541ZM123.925 7.57314C123.925 7.86618 124.029 8.11414 124.235 8.31701C124.446 8.51613 124.709 8.61569 125.024 8.61569H126.811V6.47988H125.024C124.709 6.47988 124.446 6.5832 124.235 6.78983C124.029 6.99646 123.925 7.25756 123.925 7.57314ZM58.6622 17.7498C59.0867 17.7498 59.4906 17.8062 59.8738 17.9189C60.257 18.0278 60.5707 18.1612 60.8149 18.319C61.0628 18.4768 61.2807 18.6346 61.4686 18.7924C61.6602 18.9502 61.7973 19.0835 61.88 19.1925L62.0096 19.3615L60.9107 20.4604C60.8881 20.4304 60.8562 20.3891 60.8149 20.3365C60.7773 20.2801 60.689 20.1862 60.55 20.0547C60.4148 19.9232 60.2664 19.8086 60.1048 19.7109C59.9433 19.6095 59.731 19.5175 59.468 19.4348C59.205 19.3484 58.9364 19.3052 58.6622 19.3052C57.907 19.3052 57.2759 19.5588 56.7687 20.066C56.2615 20.5731 56.0079 21.2043 56.0079 21.9594C56.0079 22.7146 56.2615 23.3457 56.7687 23.8529C57.2759 24.3601 57.907 24.6137 58.6622 24.6137C58.9552 24.6137 59.2351 24.5743 59.5018 24.4954C59.7723 24.4127 59.9959 24.3169 60.1725 24.208C60.349 24.0952 60.5049 23.9825 60.6402 23.8698C60.7754 23.7571 60.8731 23.6594 60.9332 23.5768L61.0234 23.4585L62.0659 24.5573C62.0359 24.6024 61.9889 24.6625 61.925 24.7377C61.8649 24.8091 61.7278 24.9387 61.5137 25.1265C61.3033 25.3106 61.076 25.474 60.8318 25.6168C60.5913 25.7558 60.2739 25.8835 59.8794 26C59.4887 26.1165 59.0829 26.1747 58.6622 26.1747C57.4299 26.1747 56.3892 25.7633 55.5402 24.9406C54.6949 24.114 54.2722 23.1203 54.2722 21.9594C54.2722 20.7986 54.6949 19.8067 55.5402 18.984C56.3892 18.1612 57.4299 17.7498 58.6622 17.7498ZM70.3161 17.9189V26H68.586V19.4799H65.1823V26H63.4466V17.9189H70.3161ZM74.1312 24.4446H78.4592V26H72.3956V17.9189H78.3409V19.4799H74.1312V21.0972H77.4167V22.6526H74.1312V24.4446ZM80.0709 26V17.9189H81.8066V24.4446H85.092V17.9189H86.8221V24.4446H87.8026V27.6737H86.0726V26H80.0709ZM96.3458 26H94.6158V20.8662L90.6372 26H89.1326V17.9189H90.8683V23.0583L94.8468 17.9189H96.3458V26ZM102.579 22.5962L101.598 19.942L100.612 22.5962H102.579ZM103.153 24.0952H100.037L99.3439 26H97.4955L100.674 17.9189H102.517L105.695 26H103.847L103.153 24.0952ZM113.601 17.9189V26H111.871V19.4799H109.504V20.4041C109.504 21.5424 109.441 22.4986 109.313 23.2725C109.189 24.0427 109.003 24.6344 108.755 25.0476C108.511 25.4609 108.236 25.752 107.932 25.9211C107.628 26.0902 107.267 26.1747 106.85 26.1747C106.681 26.1747 106.51 26.1559 106.337 26.1183C106.165 26.0845 106.037 26.0526 105.954 26.0225L105.813 25.9775V24.3263C106.005 24.4014 106.196 24.4409 106.388 24.4446C106.689 24.4446 106.931 24.3545 107.115 24.1741C107.303 23.9901 107.459 23.5937 107.583 22.9851C107.71 22.3727 107.774 21.5161 107.774 20.4154V17.9189H113.601ZM122.888 26H121.158V20.8662L117.18 26H115.675V17.9189H117.411V23.0583L121.389 17.9189H122.888V26ZM129.121 21.7284C129.159 21.7434 129.211 21.766 129.279 21.796C129.35 21.8223 129.472 21.8918 129.645 22.0045C129.818 22.1135 129.968 22.2375 130.096 22.3765C130.228 22.5155 130.348 22.7089 130.457 22.9569C130.566 23.2011 130.62 23.466 130.62 23.7515C130.62 24.4277 130.331 25.0007 129.752 25.4703C129.177 25.9399 128.389 26.1747 127.385 26.1747C127.002 26.1747 126.628 26.1259 126.264 26.0282C125.903 25.9343 125.605 25.8197 125.368 25.6844C125.131 25.5492 124.921 25.4139 124.737 25.2787C124.556 25.1434 124.425 25.0307 124.342 24.9406L124.213 24.7884L125.255 23.7515L125.345 23.8417C125.383 23.8792 125.468 23.9487 125.599 24.0502C125.731 24.1516 125.87 24.2399 126.016 24.315C126.163 24.3902 126.349 24.4597 126.574 24.5235C126.799 24.5836 127.032 24.6137 127.273 24.6137C127.75 24.6137 128.118 24.5141 128.377 24.315C128.64 24.1159 128.772 23.8698 128.772 23.5768C128.772 23.2762 128.65 23.0283 128.405 22.8329C128.165 22.6376 127.806 22.5399 127.329 22.5399H126.292V21.0352H127.273C127.663 21.0352 127.962 20.9545 128.169 20.7929C128.379 20.6314 128.484 20.4247 128.484 20.173C128.484 19.9251 128.373 19.7184 128.152 19.5531C127.934 19.3878 127.622 19.3052 127.216 19.3052C126.923 19.3052 126.638 19.3672 126.36 19.4912C126.082 19.6151 125.879 19.7372 125.751 19.8575L125.543 20.0547L124.5 18.9614C124.523 18.9314 124.56 18.89 124.613 18.8375C124.669 18.7811 124.788 18.6815 124.968 18.5388C125.148 18.396 125.34 18.2739 125.543 18.1725C125.749 18.0673 126.02 17.9715 126.354 17.8851C126.689 17.7949 127.032 17.7498 127.385 17.7498C128.272 17.7498 128.984 17.9734 129.521 18.4204C130.062 18.8638 130.333 19.3897 130.333 19.9983C130.333 20.2538 130.29 20.4867 130.203 20.6971C130.12 20.9075 130.019 21.0728 129.899 21.193C129.779 21.3133 129.66 21.4184 129.544 21.5086C129.431 21.595 129.332 21.6533 129.245 21.6833L129.121 21.7284ZM139.445 26H137.715V20.8662L133.736 26H132.232V17.9189H133.968V23.0583L137.946 17.9189H139.445V26ZM141.519 17.9189H144.923C145.753 17.9189 146.44 18.18 146.985 18.7022C147.534 19.2207 147.808 19.865 147.808 20.6351C147.808 21.4015 147.536 22.0459 146.991 22.5681C146.446 23.0865 145.757 23.3457 144.923 23.3457H143.255V26H141.519V17.9189ZM144.866 19.4799H143.255V21.7847H144.866C145.212 21.7847 145.499 21.6739 145.729 21.4523C145.961 21.2306 146.078 20.9582 146.078 20.6351C146.078 20.312 145.961 20.0397 145.729 19.818C145.499 19.5926 145.212 19.4799 144.866 19.4799ZM151.448 20.0772C150.945 20.5882 150.693 21.2175 150.693 21.9651C150.693 22.7089 150.945 23.3364 151.448 23.8473C151.952 24.3582 152.564 24.6137 153.286 24.6137C154.011 24.6137 154.625 24.3582 155.128 23.8473C155.632 23.3364 155.883 22.7089 155.883 21.9651C155.883 21.2175 155.632 20.5882 155.128 20.0772C154.625 19.5625 154.011 19.3052 153.286 19.3052C152.564 19.3052 151.952 19.5625 151.448 20.0772ZM150.169 24.9406C149.324 24.114 148.901 23.1203 148.901 21.9594C148.901 20.7986 149.324 19.8067 150.169 18.984C151.018 18.1612 152.057 17.7498 153.286 17.7498C154.518 17.7498 155.557 18.1612 156.402 18.984C157.251 19.8067 157.676 20.7986 157.676 21.9594C157.676 23.1203 157.251 24.114 156.402 24.9406C155.557 25.7633 154.518 26.1747 153.286 26.1747C152.057 26.1747 151.018 25.7633 150.169 24.9406ZM162.956 26H159.293V17.9189H162.759C163.491 17.9189 164.096 18.133 164.573 18.5613C165.054 18.9896 165.295 19.4874 165.295 20.0547C165.295 20.2688 165.264 20.4736 165.204 20.6689C165.144 20.8605 165.067 21.0202 164.973 21.148C164.879 21.2757 164.785 21.3865 164.692 21.4804C164.601 21.5706 164.526 21.6345 164.466 21.672L164.37 21.7284C164.408 21.7434 164.455 21.766 164.511 21.796C164.571 21.8223 164.678 21.8918 164.832 22.0045C164.986 22.1135 165.122 22.2337 165.238 22.3652C165.355 22.4967 165.46 22.677 165.554 22.9062C165.651 23.1316 165.7 23.3739 165.7 23.6331C165.7 24.2793 165.443 24.8354 164.928 25.3012C164.414 25.7671 163.756 26 162.956 26ZM161.029 24.5573H162.871C163.187 24.5573 163.448 24.4578 163.655 24.2587C163.865 24.0596 163.97 23.8135 163.97 23.5204C163.97 23.2274 163.865 22.9813 163.655 22.7822C163.448 22.5793 163.187 22.4779 162.871 22.4779H161.029V24.5573ZM162.64 19.3615H161.029V21.0972H162.64C162.926 21.0972 163.151 21.0183 163.317 20.8605C163.482 20.7028 163.564 20.4924 163.564 20.2294C163.564 19.9664 163.482 19.756 163.317 19.5982C163.151 19.4404 162.926 19.3615 162.64 19.3615ZM171.24 22.5962L170.259 19.942L169.273 22.5962H171.24ZM171.815 24.0952H168.698L168.005 26H166.157L169.335 17.9189H171.178L174.356 26H172.508L171.815 24.0952ZM182.437 17.9189V26H180.707V22.7089H177.247V26H175.511V17.9189H177.247V21.1536H180.707V17.9189H182.437ZM191.443 17.9189V26H189.713V22.7089H186.252V26H184.517V17.9189H186.252V21.1536H189.713V17.9189H191.443ZM197.681 22.5962L196.7 19.942L195.714 22.5962H197.681ZM198.256 24.0952H195.139L194.446 26H192.598L195.776 17.9189H197.619L200.797 26H198.949L198.256 24.0952ZM207.954 17.9189V26H206.224V23.171H204.725L203.164 26H201.321L203.051 22.94C203.014 22.925 202.961 22.9006 202.894 22.8667C202.83 22.8329 202.715 22.7465 202.55 22.6075C202.385 22.4685 202.238 22.3182 202.11 22.1567C201.983 21.9951 201.866 21.7716 201.761 21.4861C201.66 21.2005 201.609 20.8962 201.609 20.5731C201.609 19.8255 201.87 19.1962 202.392 18.6853C202.914 18.1744 203.576 17.9189 204.376 17.9189H207.954ZM203.339 20.5731C203.339 20.8662 203.442 21.1141 203.649 21.317C203.859 21.5161 204.122 21.6157 204.438 21.6157H206.224V19.4799H204.438C204.122 19.4799 203.859 19.5832 203.649 19.7898C203.442 19.9965 203.339 20.2576 203.339 20.5731ZM216.328 17.7498C216.753 17.7498 217.157 17.8062 217.54 17.9189C217.923 18.0278 218.237 18.1612 218.481 18.319C218.729 18.4768 218.947 18.6346 219.135 18.7924C219.326 18.9502 219.464 19.0835 219.546 19.1925L219.676 19.3615L218.577 20.4604C218.554 20.4304 218.522 20.3891 218.481 20.3365C218.444 20.2801 218.355 20.1862 218.216 20.0547C218.081 19.9232 217.933 19.8086 217.771 19.7109C217.609 19.6095 217.397 19.5175 217.134 19.4348C216.871 19.3484 216.603 19.3052 216.328 19.3052C215.573 19.3052 214.942 19.5588 214.435 20.066C213.928 20.5731 213.674 21.2043 213.674 21.9594C213.674 22.7146 213.928 23.3457 214.435 23.8529C214.942 24.3601 215.573 24.6137 216.328 24.6137C216.621 24.6137 216.901 24.5743 217.168 24.4954C217.439 24.4127 217.662 24.3169 217.839 24.208C218.015 24.0952 218.171 23.9825 218.306 23.8698C218.442 23.7571 218.539 23.6594 218.599 23.5768L218.69 23.4585L219.732 24.5573C219.702 24.6024 219.655 24.6625 219.591 24.7377C219.531 24.8091 219.394 24.9387 219.18 25.1265C218.969 25.3106 218.742 25.474 218.498 25.6168C218.258 25.7558 217.94 25.8835 217.546 26C217.155 26.1165 216.749 26.1747 216.328 26.1747C215.096 26.1747 214.055 25.7633 213.206 24.9406C212.361 24.114 211.938 23.1203 211.938 21.9594C211.938 20.7986 212.361 19.8067 213.206 18.984C214.055 18.1612 215.096 17.7498 216.328 17.7498ZM227.864 17.9189V26H226.134V19.4799H223.767V20.4041C223.767 21.5424 223.703 22.4986 223.575 23.2725C223.451 24.0427 223.265 24.6344 223.018 25.0476C222.773 25.4609 222.499 25.752 222.195 25.9211C221.89 26.0902 221.53 26.1747 221.113 26.1747C220.944 26.1747 220.773 26.1559 220.6 26.1183C220.427 26.0845 220.299 26.0526 220.217 26.0225L220.076 25.9775V24.3263C220.267 24.4014 220.459 24.4409 220.651 24.4446C220.951 24.4446 221.194 24.3545 221.378 24.1741C221.565 23.9901 221.721 23.5937 221.845 22.9851C221.973 22.3727 222.037 21.5161 222.037 20.4154V17.9189H227.864ZM230.918 17.9189L232.823 21.7284L234.44 17.9189H236.289L233.46 23.9825C233.129 24.6813 232.74 25.211 232.293 25.5717C231.846 25.9324 231.292 26.1127 230.631 26.1127C230.477 26.1127 230.323 26.0977 230.169 26.0676C230.015 26.0376 229.9 26.0075 229.825 25.9775L229.707 25.9436V24.4446C229.898 24.5198 230.129 24.5573 230.4 24.5573C230.978 24.5573 231.422 24.2887 231.73 23.7515L231.961 23.3457L229.076 17.9189H230.918ZM241.361 23.2894L240.668 22.5399L238.301 26H236.283L239.512 21.2663L236.514 17.9189H238.532L241.361 21.0352V17.9189H243.091V21.0352L245.92 17.9189H247.937L244.939 21.2663L248.168 26H246.151L243.784 22.5399L243.091 23.2894V26H241.361V23.2894ZM250.946 24.4446H252.676C252.985 24.4446 253.244 24.347 253.454 24.1516C253.665 23.9525 253.77 23.7233 253.77 23.4641C253.77 23.2011 253.665 22.9719 253.454 22.7766C253.244 22.5775 252.985 22.4779 252.676 22.4779H250.946V24.4446ZM252.733 26H249.211V17.9189H254.812V19.4799H250.946V20.9225H252.733C253.526 20.9225 254.185 21.1705 254.711 21.6664C255.237 22.1623 255.5 22.7615 255.5 23.4641C255.5 24.1629 255.237 24.7602 254.711 25.2561C254.185 25.752 253.526 26 252.733 26ZM261.214 22.5962L260.233 19.942L259.247 22.5962H261.214ZM261.789 24.0952H258.672L257.979 26H256.131L259.309 17.9189H261.152L264.33 26H262.482L261.789 24.0952Z" fill="#CC0029"/>
<g clip-path="url(#clip0_25_32489)">
<g clip-path="url(#clip1_25_32489)">
<path d="M20.061 48.0727L19.3156 47.3274C19.2659 47.2777 16.3341 44.3955 11.5139 44.3955H7.09134C3.71228 44.3955 0.979218 40.9668 0.979218 36.7926V3.44926H34.0244V5.63572H3.21536V36.7926C3.21536 39.7742 4.95458 42.1594 7.09134 42.1594H11.5139C15.7875 42.1594 18.8187 44.0477 20.1107 45.0912C21.502 44.0477 24.6326 42.1594 28.6577 42.1594H33.0803C35.217 42.1594 36.9563 39.7245 36.9563 36.7926V25.2144H39.2421V36.7926C39.2421 40.9668 36.509 44.3955 33.13 44.3955H28.7074C24.1854 44.3955 20.9057 47.3274 20.856 47.377L20.061 48.0727Z" fill="#CC0029"/>
<path d="M20.0112 33.4136L7.78696 22.1832L9.27772 20.593L19.8621 30.283L44.6088 2.35604L46.2983 3.8468L20.0112 33.4136Z" fill="#244B90"/>
</g>
</g>
<path d="M56.8225 31.2501C57.0803 31.2501 57.3274 31.2844 57.5639 31.353C57.8003 31.4192 57.9954 31.5008 58.1492 31.5978C58.3052 31.6947 58.4412 31.7905 58.5571 31.8851C58.673 31.9797 58.7581 32.0613 58.8125 32.1298L58.8905 32.2292L58.3833 32.74C58.3691 32.721 58.3478 32.695 58.3194 32.6619C58.2934 32.6264 58.2319 32.5638 58.135 32.4739C58.038 32.3841 57.934 32.3072 57.8228 32.2433C57.7117 32.1771 57.5662 32.1168 57.3865 32.0624C57.2091 32.0057 57.0211 31.9773 56.8225 31.9773C56.2952 31.9773 55.8482 32.1606 55.4817 32.5271C55.1151 32.8913 54.9318 33.3371 54.9318 33.8644C54.9318 34.3918 55.1139 34.8387 55.4781 35.2053C55.8447 35.5718 56.2928 35.7551 56.8225 35.7551C57.0211 35.7551 57.2103 35.7279 57.3901 35.6735C57.5721 35.6167 57.7223 35.5493 57.8405 35.4713C57.9612 35.3933 58.0664 35.3164 58.1563 35.2407C58.2485 35.1627 58.3171 35.0965 58.362 35.0421L58.4187 34.9534L58.9295 35.4642C58.9106 35.4926 58.8811 35.5304 58.8409 35.5777C58.803 35.6226 58.7167 35.703 58.5819 35.8189C58.4495 35.9348 58.3076 36.0377 58.1563 36.1275C58.0073 36.2174 57.811 36.299 57.5674 36.3723C57.3262 36.4432 57.0779 36.4787 56.8225 36.4787C56.061 36.4787 55.4225 36.2257 54.907 35.7196C54.3915 35.2135 54.1337 34.5951 54.1337 33.8644C54.1337 33.1337 54.3915 32.5153 54.907 32.0092C55.4225 31.5032 56.061 31.2501 56.8225 31.2501ZM61.2118 32.5271C60.8476 32.8913 60.6655 33.3371 60.6655 33.8644C60.6655 34.3918 60.8476 34.8387 61.2118 35.2053C61.5784 35.5718 62.0253 35.7551 62.5527 35.7551C63.0824 35.7551 63.5293 35.5718 63.8935 35.2053C64.26 34.8387 64.4433 34.3918 64.4433 33.8644C64.4433 33.3371 64.26 32.8913 63.8935 32.5271C63.5293 32.1606 63.0824 31.9773 62.5527 31.9773C62.0253 31.9773 61.5784 32.1606 61.2118 32.5271ZM60.6407 35.7196C60.1252 35.2135 59.8674 34.5951 59.8674 33.8644C59.8674 33.1337 60.1252 32.5153 60.6407 32.0092C61.1562 31.5032 61.7936 31.2501 62.5527 31.2501C63.3141 31.2501 63.9526 31.5032 64.4681 32.0092C64.9837 32.5153 65.2414 33.1337 65.2414 33.8644C65.2414 34.5951 64.9837 35.2135 64.4681 35.7196C63.9526 36.2257 63.3141 36.4787 62.5527 36.4787C61.7936 36.4787 61.1562 36.2257 60.6407 35.7196ZM69.0916 33.719C69.1176 33.7284 69.1519 33.7414 69.1944 33.758C69.237 33.7769 69.3127 33.8195 69.4215 33.8857C69.5302 33.9495 69.626 34.024 69.7088 34.1092C69.7915 34.1943 69.866 34.3137 69.9323 34.4674C70.0008 34.6188 70.0351 34.7808 70.0351 34.9534C70.0351 35.3743 69.8566 35.7338 69.4995 36.0318C69.1448 36.3297 68.6694 36.4787 68.0735 36.4787C67.8323 36.4787 67.5994 36.4503 67.3747 36.3936C67.1501 36.3345 66.9644 36.2659 66.8178 36.1878C66.6736 36.1074 66.5447 36.0258 66.4312 35.9431C66.32 35.8603 66.2384 35.7905 66.1864 35.7338L66.1119 35.6451L66.6227 35.1379C66.6369 35.1521 66.6582 35.1733 66.6866 35.2017C66.7173 35.2301 66.7788 35.2798 66.871 35.3507C66.9656 35.4216 67.0649 35.4855 67.169 35.5422C67.273 35.5966 67.4078 35.6463 67.5734 35.6912C67.7389 35.7338 67.9056 35.7551 68.0735 35.7551C68.4377 35.7551 68.7227 35.6735 68.9284 35.5103C69.1341 35.3471 69.237 35.1497 69.237 34.9179C69.237 34.6862 69.1341 34.4899 68.9284 34.3291C68.7227 34.1659 68.4377 34.0843 68.0735 34.0843H67.4563V33.3572H68.0735C68.3691 33.3572 68.6009 33.2898 68.7688 33.155C68.9367 33.0178 69.0206 32.8523 69.0206 32.6584C69.0206 32.4692 68.9367 32.3084 68.7688 32.1759C68.6009 32.0435 68.3691 31.9773 68.0735 31.9773C67.8607 31.9773 67.6514 32.0234 67.4457 32.1156C67.2399 32.2079 67.0862 32.2966 66.9845 32.3817L66.8391 32.52L66.3318 32.0128C66.346 31.9939 66.3697 31.9678 66.4028 31.9347C66.4383 31.8993 66.5116 31.8366 66.6227 31.7467C66.7339 31.6569 66.8509 31.58 66.9739 31.5162C67.0969 31.45 67.2588 31.3897 67.4599 31.3353C67.6609 31.2785 67.8654 31.2501 68.0735 31.2501C68.6151 31.2501 69.0407 31.379 69.3505 31.6368C69.6627 31.8922 69.8187 32.2114 69.8187 32.5945C69.8187 32.7506 69.7927 32.896 69.7407 33.0308C69.691 33.1656 69.6307 33.2732 69.5598 33.3536C69.4912 33.434 69.4215 33.5038 69.3505 33.5629C69.2796 33.6197 69.2181 33.6599 69.1661 33.6835L69.0916 33.719ZM70.8347 35.6806H71.1255C71.1492 35.6617 71.1799 35.6297 71.2178 35.5848C71.258 35.5375 71.3277 35.4323 71.427 35.2691C71.5264 35.1036 71.6139 34.9227 71.6895 34.7264C71.7676 34.5301 71.8385 34.2629 71.9024 33.9247C71.9662 33.5842 71.9981 33.2247 71.9981 32.8464V31.3211H75.3041V35.6806H75.9213V37.4968H75.1197V36.4078H71.6328V37.4968H70.8347V35.6806ZM72.7963 32.8464C72.7963 33.2247 72.7655 33.5818 72.704 33.9176C72.6449 34.2511 72.5728 34.5206 72.4877 34.7264C72.4025 34.9321 72.3174 35.1118 72.2323 35.2656C72.1471 35.4169 72.0738 35.5245 72.0123 35.5884L71.9237 35.6806H74.5025V32.0482H72.7963V32.8464ZM76.6499 36.4078L78.757 31.3211H79.5551L81.6621 36.4078H80.8285L80.2823 35.0634H78.0298L77.4835 36.4078H76.6499ZM79.1578 32.2292L78.3207 34.3362H79.9914L79.1578 32.2292ZM87.0056 31.3211V36.4078H86.2075V34.1908H83.6997V36.4078H82.9015V31.3211H83.6997V33.4671H86.2075V31.3211H87.0056ZM89.8732 32.5271C89.509 32.8913 89.3269 33.3371 89.3269 33.8644C89.3269 34.3918 89.509 34.8387 89.8732 35.2053C90.2397 35.5718 90.6867 35.7551 91.214 35.7551C91.7438 35.7551 92.1907 35.5718 92.5549 35.2053C92.9214 34.8387 93.1047 34.3918 93.1047 33.8644C93.1047 33.3371 92.9214 32.8913 92.5549 32.5271C92.1907 32.1606 91.7438 31.9773 91.214 31.9773C90.6867 31.9773 90.2397 32.1606 89.8732 32.5271ZM89.3021 35.7196C88.7866 35.2135 88.5288 34.5951 88.5288 33.8644C88.5288 33.1337 88.7866 32.5153 89.3021 32.0092C89.8176 31.5032 90.4549 31.2501 91.214 31.2501C91.9755 31.2501 92.614 31.5032 93.1295 32.0092C93.6451 32.5153 93.9028 33.1337 93.9028 33.8644C93.9028 34.5951 93.6451 35.2135 93.1295 35.7196C92.614 36.2257 91.9755 36.4787 91.214 36.4787C90.4549 36.4787 89.8176 36.2257 89.3021 35.7196ZM99.4287 36.4078H97.2507V31.3211H99.3187C99.7302 31.3211 100.081 31.457 100.372 31.729C100.663 32.001 100.809 32.3131 100.809 32.6655C100.809 32.8688 100.766 33.0557 100.681 33.2259C100.598 33.3962 100.515 33.5144 100.433 33.5806L100.301 33.6835C100.32 33.693 100.346 33.7095 100.379 33.7332C100.415 33.7545 100.477 33.8029 100.567 33.8786C100.657 33.9519 100.734 34.0335 100.798 34.1234C100.864 34.2132 100.924 34.3303 100.979 34.4745C101.036 34.6164 101.064 34.7642 101.064 34.9179C101.064 35.3247 100.908 35.6747 100.596 35.9679C100.284 36.2611 99.8945 36.4078 99.4287 36.4078ZM98.0488 35.7161H99.4287C99.6651 35.7161 99.8638 35.6368 100.025 35.4784C100.185 35.3176 100.266 35.1189 100.266 34.8825C100.266 34.646 100.185 34.4473 100.025 34.2865C99.8661 34.1257 99.6675 34.0453 99.4287 34.0453H98.0488V35.7161ZM99.3187 32.0128H98.0488V33.3926H99.3187C99.5173 33.3926 99.6817 33.3276 99.8118 33.1975C99.9442 33.0651 100.01 32.9008 100.01 32.7045C100.01 32.5058 99.9442 32.3415 99.8118 32.2114C99.6817 32.079 99.5173 32.0128 99.3187 32.0128ZM106.803 31.2501C107.06 31.2501 107.307 31.2844 107.544 31.353C107.78 31.4192 107.976 31.5008 108.129 31.5978C108.285 31.6947 108.421 31.7905 108.537 31.8851C108.653 31.9797 108.738 32.0613 108.793 32.1298L108.871 32.2292L108.363 32.74C108.349 32.721 108.328 32.695 108.299 32.6619C108.273 32.6264 108.212 32.5638 108.115 32.4739C108.018 32.3841 107.914 32.3072 107.803 32.2433C107.692 32.1771 107.546 32.1168 107.367 32.0624C107.189 32.0057 107.001 31.9773 106.803 31.9773C106.275 31.9773 105.828 32.1606 105.462 32.5271C105.095 32.8913 104.912 33.3371 104.912 33.8644C104.912 34.3918 105.094 34.8387 105.458 35.2053C105.825 35.5718 106.273 35.7551 106.803 35.7551C107.001 35.7551 107.19 35.7279 107.37 35.6735C107.552 35.6167 107.702 35.5493 107.821 35.4713C107.941 35.3933 108.046 35.3164 108.136 35.2407C108.229 35.1627 108.297 35.0965 108.342 35.0421L108.399 34.9534L108.91 35.4642C108.891 35.4926 108.861 35.5304 108.821 35.5777C108.783 35.6226 108.697 35.703 108.562 35.8189C108.43 35.9348 108.288 36.0377 108.136 36.1275C107.987 36.2174 107.791 36.299 107.547 36.3723C107.306 36.4432 107.058 36.4787 106.803 36.4787C106.041 36.4787 105.403 36.2257 104.887 35.7196C104.372 35.2135 104.114 34.5951 104.114 33.8644C104.114 33.1337 104.372 32.5153 104.887 32.0092C105.403 31.5032 106.041 31.2501 106.803 31.2501ZM111.192 32.5271C110.828 32.8913 110.646 33.3371 110.646 33.8644C110.646 34.3918 110.828 34.8387 111.192 35.2053C111.558 35.5718 112.005 35.7551 112.533 35.7551C113.062 35.7551 113.509 35.5718 113.874 35.2053C114.24 34.8387 114.423 34.3918 114.423 33.8644C114.423 33.3371 114.24 32.8913 113.874 32.5271C113.509 32.1606 113.062 31.9773 112.533 31.9773C112.005 31.9773 111.558 32.1606 111.192 32.5271ZM110.621 35.7196C110.105 35.2135 109.847 34.5951 109.847 33.8644C109.847 33.1337 110.105 32.5153 110.621 32.0092C111.136 31.5032 111.774 31.2501 112.533 31.2501C113.294 31.2501 113.933 31.5032 114.448 32.0092C114.964 32.5153 115.222 33.1337 115.222 33.8644C115.222 34.5951 114.964 35.2135 114.448 35.7196C113.933 36.2257 113.294 36.4787 112.533 36.4787C111.774 36.4787 111.136 36.2257 110.621 35.7196ZM117.805 32.5271C117.441 32.8913 117.259 33.3371 117.259 33.8644C117.259 34.3918 117.441 34.8387 117.805 35.2053C118.172 35.5718 118.619 35.7551 119.146 35.7551C119.676 35.7551 120.123 35.5718 120.487 35.2053C120.854 34.8387 121.037 34.3918 121.037 33.8644C121.037 33.3371 120.854 32.8913 120.487 32.5271C120.123 32.1606 119.676 31.9773 119.146 31.9773C118.619 31.9773 118.172 32.1606 117.805 32.5271ZM117.234 35.7196C116.719 35.2135 116.461 34.5951 116.461 33.8644C116.461 33.1337 116.719 32.5153 117.234 32.0092C117.75 31.5032 118.387 31.2501 119.146 31.2501C119.908 31.2501 120.546 31.5032 121.062 32.0092C121.577 32.5153 121.835 33.1337 121.835 33.8644C121.835 34.5951 121.577 35.2135 121.062 35.7196C120.546 36.2257 119.908 36.4787 119.146 36.4787C118.387 36.4787 117.75 36.2257 117.234 35.7196ZM122.493 31.3211H126.341V32.0482H124.816V36.4078H124.018V32.0482H122.493V31.3211ZM129.759 36.4078H127.581V31.3211H129.649C130.06 31.3211 130.411 31.457 130.702 31.729C130.993 32.001 131.139 32.3131 131.139 32.6655C131.139 32.8688 131.096 33.0557 131.011 33.2259C130.928 33.3962 130.845 33.5144 130.763 33.5806L130.631 33.6835C130.65 33.693 130.676 33.7095 130.709 33.7332C130.745 33.7545 130.807 33.8029 130.897 33.8786C130.987 33.9519 131.064 34.0335 131.128 34.1234C131.194 34.2132 131.254 34.3303 131.309 34.4745C131.366 34.6164 131.394 34.7642 131.394 34.9179C131.394 35.3247 131.238 35.6747 130.926 35.9679C130.614 36.2611 130.225 36.4078 129.759 36.4078ZM128.379 35.7161H129.759C129.995 35.7161 130.194 35.6368 130.355 35.4784C130.515 35.3176 130.596 35.1189 130.596 34.8825C130.596 34.646 130.515 34.4473 130.355 34.2865C130.196 34.1257 129.997 34.0453 129.759 34.0453H128.379V35.7161ZM129.649 32.0128H128.379V33.3926H129.649C129.847 33.3926 130.012 33.3276 130.142 33.1975C130.274 33.0651 130.34 32.9008 130.34 32.7045C130.34 32.5058 130.274 32.3415 130.142 32.2114C130.012 32.079 129.847 32.0128 129.649 32.0128ZM133.715 35.6806H136.585V36.4078H132.917V31.3211H136.514V32.0482H133.715V33.3926H135.932V34.1198H133.715V35.6806ZM137.459 31.3211H141.308V32.0482H139.782V36.4078H138.984V32.0482H137.459V31.3211ZM144.654 31.2501C144.912 31.2501 145.159 31.2844 145.395 31.353C145.632 31.4192 145.827 31.5008 145.981 31.5978C146.137 31.6947 146.273 31.7905 146.389 31.8851C146.505 31.9797 146.59 32.0613 146.644 32.1298L146.722 32.2292L146.215 32.74C146.201 32.721 146.179 32.695 146.151 32.6619C146.125 32.6264 146.063 32.5638 145.967 32.4739C145.87 32.3841 145.766 32.3072 145.654 32.2433C145.543 32.1771 145.398 32.1168 145.218 32.0624C145.041 32.0057 144.853 31.9773 144.654 31.9773C144.127 31.9773 143.68 32.1606 143.313 32.5271C142.947 32.8913 142.763 33.3371 142.763 33.8644C142.763 34.3918 142.945 34.8387 143.31 35.2053C143.676 35.5718 144.124 35.7551 144.654 35.7551C144.853 35.7551 145.042 35.7279 145.222 35.6735C145.404 35.6167 145.554 35.5493 145.672 35.4713C145.793 35.3933 145.898 35.3164 145.988 35.2407C146.08 35.1627 146.149 35.0965 146.194 35.0421L146.25 34.9534L146.761 35.4642C146.742 35.4926 146.713 35.5304 146.672 35.5777C146.635 35.6226 146.548 35.703 146.413 35.8189C146.281 35.9348 146.139 36.0377 145.988 36.1275C145.839 36.2174 145.643 36.299 145.399 36.3723C145.158 36.4432 144.909 36.4787 144.654 36.4787C143.893 36.4787 143.254 36.2257 142.739 35.7196C142.223 35.2135 141.965 34.5951 141.965 33.8644C141.965 33.1337 142.223 32.5153 142.739 32.0092C143.254 31.5032 143.893 31.2501 144.654 31.2501ZM147.557 31.3211H151.406V32.0482H149.881V36.4078H149.082V32.0482H147.557V31.3211ZM154.823 36.4078H152.645V31.3211H154.713C155.125 31.3211 155.476 31.457 155.767 31.729C156.058 32.001 156.203 32.3131 156.203 32.6655C156.203 32.8688 156.16 33.0557 156.075 33.2259C155.993 33.3962 155.91 33.5144 155.827 33.5806L155.696 33.6835C155.715 33.693 155.741 33.7095 155.774 33.7332C155.809 33.7545 155.872 33.8029 155.962 33.8786C156.052 33.9519 156.129 34.0335 156.192 34.1234C156.259 34.2132 156.319 34.3303 156.373 34.4745C156.43 34.6164 156.458 34.7642 156.458 34.9179C156.458 35.3247 156.302 35.6747 155.99 35.9679C155.678 36.2611 155.289 36.4078 154.823 36.4078ZM153.443 35.7161H154.823C155.06 35.7161 155.258 35.6368 155.419 35.4784C155.58 35.3176 155.66 35.1189 155.66 34.8825C155.66 34.646 155.58 34.4473 155.419 34.2865C155.261 34.1257 155.062 34.0453 154.823 34.0453H153.443V35.7161ZM154.713 32.0128H153.443V33.3926H154.713C154.912 33.3926 155.076 33.3276 155.206 33.1975C155.339 33.0651 155.405 32.9008 155.405 32.7045C155.405 32.5058 155.339 32.3415 155.206 32.2114C155.076 32.079 154.912 32.0128 154.713 32.0128ZM162.302 36.4078H161.504V32.74L158.67 36.4078H157.982V31.3211H158.78V34.9924L161.614 31.3211H162.302V36.4078ZM168.44 36.4078H167.642V32.74L164.808 36.4078H164.12V31.3211H164.918V34.9924L167.752 31.3211H168.44V36.4078ZM174.473 31.2501C174.731 31.2501 174.978 31.2844 175.215 31.353C175.451 31.4192 175.646 31.5008 175.8 31.5978C175.956 31.6947 176.092 31.7905 176.208 31.8851C176.324 31.9797 176.409 32.0613 176.463 32.1298L176.541 32.2292L176.034 32.74C176.02 32.721 175.999 32.695 175.97 32.6619C175.944 32.6264 175.883 32.5638 175.786 32.4739C175.689 32.3841 175.585 32.3072 175.474 32.2433C175.362 32.1771 175.217 32.1168 175.037 32.0624C174.86 32.0057 174.672 31.9773 174.473 31.9773C173.946 31.9773 173.499 32.1606 173.132 32.5271C172.766 32.8913 172.583 33.3371 172.583 33.8644C172.583 34.3918 172.765 34.8387 173.129 35.2053C173.495 35.5718 173.944 35.7551 174.473 35.7551C174.672 35.7551 174.861 35.7279 175.041 35.6735C175.223 35.6167 175.373 35.5493 175.491 35.4713C175.612 35.3933 175.717 35.3164 175.807 35.2407C175.899 35.1627 175.968 35.0965 176.013 35.0421L176.07 34.9534L176.58 35.4642C176.561 35.4926 176.532 35.5304 176.492 35.5777C176.454 35.6226 176.367 35.703 176.233 35.8189C176.1 35.9348 175.958 36.0377 175.807 36.1275C175.658 36.2174 175.462 36.299 175.218 36.3723C174.977 36.4432 174.729 36.4787 174.473 36.4787C173.712 36.4787 173.073 36.2257 172.558 35.7196C172.042 35.2135 171.784 34.5951 171.784 33.8644C171.784 33.1337 172.042 32.5153 172.558 32.0092C173.073 31.5032 173.712 31.2501 174.473 31.2501ZM183.88 31.3211V36.4078H183.082V32.0482H180.574V36.4078H179.776V31.3211H183.88ZM186.747 32.5271C186.383 32.8913 186.201 33.3371 186.201 33.8644C186.201 34.3918 186.383 34.8387 186.747 35.2053C187.114 35.5718 187.561 35.7551 188.088 35.7551C188.618 35.7551 189.065 35.5718 189.429 35.2053C189.796 34.8387 189.979 34.3918 189.979 33.8644C189.979 33.3371 189.796 32.8913 189.429 32.5271C189.065 32.1606 188.618 31.9773 188.088 31.9773C187.561 31.9773 187.114 32.1606 186.747 32.5271ZM186.176 35.7196C185.661 35.2135 185.403 34.5951 185.403 33.8644C185.403 33.1337 185.661 32.5153 186.176 32.0092C186.692 31.5032 187.329 31.2501 188.088 31.2501C188.85 31.2501 189.488 31.5032 190.004 32.0092C190.519 32.5153 190.777 33.1337 190.777 33.8644C190.777 34.5951 190.519 35.2135 190.004 35.7196C189.488 36.2257 188.85 36.4787 188.088 36.4787C187.329 36.4787 186.692 36.2257 186.176 35.7196ZM194.705 31.2501C194.963 31.2501 195.21 31.2844 195.446 31.353C195.683 31.4192 195.878 31.5008 196.032 31.5978C196.188 31.6947 196.324 31.7905 196.44 31.8851C196.556 31.9797 196.641 32.0613 196.695 32.1298L196.773 32.2292L196.266 32.74C196.252 32.721 196.23 32.695 196.202 32.6619C196.176 32.6264 196.114 32.5638 196.018 32.4739C195.921 32.3841 195.817 32.3072 195.705 32.2433C195.594 32.1771 195.449 32.1168 195.269 32.0624C195.092 32.0057 194.904 31.9773 194.705 31.9773C194.178 31.9773 193.731 32.1606 193.364 32.5271C192.998 32.8913 192.814 33.3371 192.814 33.8644C192.814 34.3918 192.997 34.8387 193.361 35.2053C193.727 35.5718 194.175 35.7551 194.705 35.7551C194.904 35.7551 195.093 35.7279 195.273 35.6735C195.455 35.6167 195.605 35.5493 195.723 35.4713C195.844 35.3933 195.949 35.3164 196.039 35.2407C196.131 35.1627 196.2 35.0965 196.245 35.0421L196.301 34.9534L196.812 35.4642C196.793 35.4926 196.764 35.5304 196.723 35.5777C196.686 35.6226 196.599 35.703 196.464 35.8189C196.332 35.9348 196.19 36.0377 196.039 36.1275C195.89 36.2174 195.694 36.299 195.45 36.3723C195.209 36.4432 194.96 36.4787 194.705 36.4787C193.944 36.4787 193.305 36.2257 192.79 35.7196C192.274 35.2135 192.016 34.5951 192.016 33.8644C192.016 33.1337 192.274 32.5153 192.79 32.0092C193.305 31.5032 193.944 31.2501 194.705 31.2501ZM197.608 31.3211H201.457V32.0482H199.932V36.4078H199.133V32.0482H197.608V31.3211ZM201.675 36.4078L203.782 31.3211H204.58L206.687 36.4078H205.853L205.307 35.0634H203.054L202.508 36.4078H201.675ZM204.182 32.2292L203.345 34.3362H205.016L204.182 32.2292ZM212.03 31.3211V36.4078H211.232V34.1908H208.724V36.4078H207.926V31.3211H208.724V33.4671H211.232V31.3211H212.03ZM214.898 32.5271C214.534 32.8913 214.352 33.3371 214.352 33.8644C214.352 34.3918 214.534 34.8387 214.898 35.2053C215.264 35.5718 215.711 35.7551 216.239 35.7551C216.768 35.7551 217.215 35.5718 217.58 35.2053C217.946 34.8387 218.129 34.3918 218.129 33.8644C218.129 33.3371 217.946 32.8913 217.58 32.5271C217.215 32.1606 216.768 31.9773 216.239 31.9773C215.711 31.9773 215.264 32.1606 214.898 32.5271ZM214.327 35.7196C213.811 35.2135 213.553 34.5951 213.553 33.8644C213.553 33.1337 213.811 32.5153 214.327 32.0092C214.842 31.5032 215.48 31.2501 216.239 31.2501C217 31.2501 217.639 31.5032 218.154 32.0092C218.67 32.5153 218.928 33.1337 218.928 33.8644C218.928 34.5951 218.67 35.2135 218.154 35.7196C217.639 36.2257 217 36.4787 216.239 36.4787C215.48 36.4787 214.842 36.2257 214.327 35.7196ZM222.636 36.4078H220.458V31.3211H222.526C222.937 31.3211 223.288 31.457 223.579 31.729C223.87 32.001 224.016 32.3131 224.016 32.6655C224.016 32.8688 223.973 33.0557 223.888 33.2259C223.805 33.3962 223.722 33.5144 223.64 33.5806L223.508 33.6835C223.527 33.693 223.553 33.7095 223.586 33.7332C223.622 33.7545 223.685 33.8029 223.774 33.8786C223.864 33.9519 223.941 34.0335 224.005 34.1234C224.071 34.2132 224.131 34.3303 224.186 34.4745C224.243 34.6164 224.271 34.7642 224.271 34.9179C224.271 35.3247 224.115 35.6747 223.803 35.9679C223.491 36.2611 223.102 36.4078 222.636 36.4078ZM221.256 35.7161H222.636C222.872 35.7161 223.071 35.6368 223.232 35.4784C223.392 35.3176 223.473 35.1189 223.473 34.8825C223.473 34.646 223.392 34.4473 223.232 34.2865C223.073 34.1257 222.875 34.0453 222.636 34.0453H221.256V35.7161ZM222.526 32.0128H221.256V33.3926H222.526C222.724 33.3926 222.889 33.3276 223.019 33.1975C223.151 33.0651 223.217 32.9008 223.217 32.7045C223.217 32.5058 223.151 32.3415 223.019 32.2114C222.889 32.079 222.724 32.0128 222.526 32.0128ZM229.788 31.3211V36.4078H228.99V32.0482H227.139V32.8464C227.139 33.5771 227.103 34.1884 227.032 34.6803C226.961 35.1722 226.854 35.5458 226.709 35.8012C226.567 36.0566 226.41 36.2339 226.238 36.3333C226.067 36.4302 225.859 36.4787 225.613 36.4787C225.526 36.4787 225.434 36.4692 225.337 36.4503C225.24 36.4314 225.164 36.4125 225.11 36.3936L225.032 36.3723V35.6096C225.176 35.6569 225.308 35.6806 225.429 35.6806C225.568 35.6806 225.688 35.6463 225.787 35.5777C225.889 35.5068 225.985 35.3755 226.074 35.184C226.164 34.9924 226.23 34.7016 226.273 34.3114C226.316 33.9212 226.337 33.4328 226.337 32.8464V31.3211H229.788ZM232.404 35.6806H235.274V36.4078H231.606V31.3211H235.203V32.0482H232.404V33.3926H234.621V34.1198H232.404V35.6806ZM240.834 31.3211V36.4078H240.035V34.1908H237.528V36.4078H236.729V31.3211H237.528V33.4671H240.035V31.3211H240.834ZM246.968 36.4078H246.17V32.74L243.336 36.4078H242.648V31.3211H243.446V34.9924L246.28 31.3211H246.968V36.4078ZM249.584 35.6806H252.454V36.4078H248.786V31.3211H252.383V32.0482H249.584V33.3926H251.801V34.1198H249.584V35.6806ZM256.559 33.7935L258.521 31.3211H259.212V36.4078H258.414V32.7045L256.559 35.0279L254.707 32.7045V36.4078H253.909V31.3211H254.597L256.559 33.7935ZM58.5287 42.3211V47.4078H57.7306V43.0482H55.2227V47.4078H54.4246V42.3211H58.5287ZM60.3427 42.3211H62.3753C62.8601 42.3211 63.2656 42.4807 63.592 42.7999C63.9207 43.1168 64.085 43.5035 64.085 43.9599C64.085 44.4139 63.9207 44.7994 63.592 45.1163C63.2656 45.4332 62.8601 45.5916 62.3753 45.5916H61.1409V47.4078H60.3427V42.3211ZM62.3753 43.0482H61.1409V44.8644H62.3753C62.626 44.8644 62.84 44.7781 63.0173 44.6055C63.1947 44.4305 63.2834 44.2153 63.2834 43.9599C63.2834 43.7021 63.1947 43.4857 63.0173 43.3107C62.84 43.1357 62.626 43.0482 62.3753 43.0482ZM64.5866 47.4078L66.6937 42.3211H67.4918L69.5988 47.4078H68.7652L68.219 46.0634H65.9665L65.4202 47.4078H64.5866ZM67.0945 43.2292L66.2574 45.3362H67.9281L67.0945 43.2292ZM73.0162 47.4078H70.8382V42.3211H72.9062C73.3177 42.3211 73.6689 42.457 73.9597 42.729C74.2506 43.001 74.3961 43.3131 74.3961 43.6655C74.3961 43.8688 74.3535 44.0557 74.2684 44.2259C74.1856 44.3962 74.1028 44.5144 74.02 44.5806L73.8888 44.6835C73.9077 44.693 73.9337 44.7095 73.9668 44.7332C74.0023 44.7545 74.065 44.8029 74.1548 44.8786C74.2447 44.9519 74.3216 45.0335 74.3854 45.1234C74.4516 45.2132 74.5119 45.3303 74.5663 45.4745C74.6231 45.6164 74.6514 45.7642 74.6514 45.9179C74.6514 46.3247 74.4954 46.6747 74.1832 46.9679C73.8711 47.2611 73.4821 47.4078 73.0162 47.4078ZM71.6363 46.7161H73.0162C73.2527 46.7161 73.4513 46.6368 73.6121 46.4784C73.7729 46.3176 73.8533 46.1189 73.8533 45.8825C73.8533 45.646 73.7729 45.4473 73.6121 45.2865C73.4537 45.1257 73.255 45.0453 73.0162 45.0453H71.6363V46.7161ZM72.9062 43.0128H71.6363V44.3926H72.9062C73.1049 44.3926 73.2692 44.3276 73.3993 44.1975C73.5317 44.0651 73.5979 43.9008 73.5979 43.7045C73.5979 43.5058 73.5317 43.3415 73.3993 43.2114C73.2692 43.079 73.1049 43.0128 72.9062 43.0128ZM80.4951 47.4078H79.697V43.74L76.8628 47.4078H76.1746V42.3211H76.9727V45.9924L79.807 42.3211H80.4951V47.4078ZM81.731 42.3211H85.5797V43.0482H84.0544V47.4078H83.2563V43.0482H81.731V42.3211ZM87.6172 46.6806H90.4869V47.4078H86.8191V42.3211H90.4159V43.0482H87.6172V44.3926H89.8342V45.1198H87.6172V46.6806ZM95.9368 42.3211V47.4078H95.1387V43.0482H93.287V43.8464C93.287 44.5771 93.2516 45.1884 93.1806 45.6803C93.1097 46.1722 93.0021 46.5458 92.8578 46.8012C92.7159 47.0566 92.5587 47.2339 92.386 47.3333C92.2158 47.4302 92.0077 47.4787 91.7617 47.4787C91.6742 47.4787 91.582 47.4692 91.485 47.4503C91.3881 47.4314 91.3124 47.4125 91.258 47.3936L91.18 47.3723V46.6096C91.3242 46.6569 91.4567 46.6806 91.5773 46.6806C91.7168 46.6806 91.8362 46.6463 91.9355 46.5777C92.0372 46.5068 92.133 46.3755 92.2229 46.184C92.3127 45.9924 92.3789 45.7016 92.4215 45.3114C92.4641 44.9212 92.4854 44.4328 92.4854 43.8464V42.3211H95.9368ZM99.7869 47.4078H97.7544V42.3211H98.5525V44.1372H99.7869C100.272 44.1372 100.677 44.2969 101.004 44.6161C101.332 44.933 101.497 45.3196 101.497 45.776C101.497 46.2301 101.332 46.6156 101.004 46.9324C100.677 47.2493 100.272 47.4078 99.7869 47.4078ZM98.5525 46.6806H99.7869C100.038 46.6806 100.252 46.5943 100.429 46.4216C100.606 46.2466 100.695 46.0314 100.695 45.776C100.695 45.5183 100.606 45.3019 100.429 45.1269C100.254 44.9519 100.04 44.8644 99.7869 44.8644H98.5525V46.6806ZM105.418 42.2501C105.676 42.2501 105.923 42.2844 106.159 42.353C106.396 42.4192 106.591 42.5008 106.744 42.5978C106.9 42.6947 107.036 42.7905 107.152 42.8851C107.268 42.9797 107.353 43.0613 107.408 43.1298L107.486 43.2292L106.979 43.74C106.964 43.721 106.943 43.695 106.915 43.6619C106.889 43.6264 106.827 43.5638 106.73 43.4739C106.633 43.3841 106.529 43.3072 106.418 43.2433C106.307 43.1771 106.161 43.1168 105.982 43.0624C105.804 43.0057 105.616 42.9773 105.418 42.9773C104.89 42.9773 104.443 43.1606 104.077 43.5271C103.71 43.8913 103.527 44.3371 103.527 44.8644C103.527 45.3918 103.709 45.8387 104.073 46.2053C104.44 46.5718 104.888 46.7551 105.418 46.7551C105.616 46.7551 105.806 46.7279 105.985 46.6735C106.167 46.6167 106.318 46.5493 106.436 46.4713C106.556 46.3933 106.662 46.3164 106.751 46.2407C106.844 46.1627 106.912 46.0965 106.957 46.0421L107.014 45.9534L107.525 46.4642C107.506 46.4926 107.476 46.5304 107.436 46.5777C107.398 46.6226 107.312 46.703 107.177 46.8189C107.045 46.9348 106.903 47.0377 106.751 47.1275C106.603 47.2174 106.406 47.299 106.163 47.3723C105.921 47.4432 105.673 47.4787 105.418 47.4787C104.656 47.4787 104.018 47.2257 103.502 46.7196C102.987 46.2135 102.729 45.5951 102.729 44.8644C102.729 44.1337 102.987 43.5153 103.502 43.0092C104.018 42.5032 104.656 42.2501 105.418 42.2501ZM108.321 42.3211H112.169V43.0482H110.644V47.4078H109.846V43.0482H108.321V42.3211ZM115.587 47.4078H113.409V42.3211H115.477C115.888 42.3211 116.24 42.457 116.53 42.729C116.821 43.001 116.967 43.3131 116.967 43.6655C116.967 43.8688 116.924 44.0557 116.839 44.2259C116.756 44.3962 116.673 44.5144 116.591 44.5806L116.459 44.6835C116.478 44.693 116.504 44.7095 116.538 44.7332C116.573 44.7545 116.636 44.8029 116.726 44.8786C116.815 44.9519 116.892 45.0335 116.956 45.1234C117.022 45.2132 117.083 45.3303 117.137 45.4745C117.194 45.6164 117.222 45.7642 117.222 45.9179C117.222 46.3247 117.066 46.6747 116.754 46.9679C116.442 47.2611 116.053 47.4078 115.587 47.4078ZM114.207 46.7161H115.587C115.823 46.7161 116.022 46.6368 116.183 46.4784C116.344 46.3176 116.424 46.1189 116.424 45.8825C116.424 45.646 116.344 45.4473 116.183 45.2865C116.024 45.1257 115.826 45.0453 115.587 45.0453H114.207V46.7161ZM115.477 43.0128H114.207V44.3926H115.477C115.676 44.3926 115.84 44.3276 115.97 44.1975C116.102 44.0651 116.169 43.9008 116.169 43.7045C116.169 43.5058 116.102 43.3415 115.97 43.2114C115.84 43.079 115.676 43.0128 115.477 43.0128ZM118.015 47.4078L120.122 42.3211H120.92L123.027 47.4078H122.193L121.647 46.0634H119.394L118.848 47.4078H118.015ZM120.522 43.2292L119.685 45.3362H121.356L120.522 43.2292ZM128.734 44.7935L130.695 42.3211H131.387V47.4078H130.589V43.7045L128.734 46.0279L126.882 43.7045V47.4078H126.084V42.3211H126.772L128.734 44.7935ZM134.254 43.5271C133.89 43.8913 133.708 44.3371 133.708 44.8644C133.708 45.3918 133.89 45.8387 134.254 46.2053C134.621 46.5718 135.068 46.7551 135.595 46.7551C136.125 46.7551 136.572 46.5718 136.936 46.2053C137.303 45.8387 137.486 45.3918 137.486 44.8644C137.486 44.3371 137.303 43.8913 136.936 43.5271C136.572 43.1606 136.125 42.9773 135.595 42.9773C135.068 42.9773 134.621 43.1606 134.254 43.5271ZM133.683 46.7196C133.168 46.2135 132.91 45.5951 132.91 44.8644C132.91 44.1337 133.168 43.5153 133.683 43.0092C134.199 42.5032 134.836 42.2501 135.595 42.2501C136.357 42.2501 136.995 42.5032 137.511 43.0092C138.026 43.5153 138.284 44.1337 138.284 44.8644C138.284 45.5951 138.026 46.2135 137.511 46.7196C136.995 47.2257 136.357 47.4787 135.595 47.4787C134.836 47.4787 134.199 47.2257 133.683 46.7196ZM142.212 42.2501C142.47 42.2501 142.717 42.2844 142.954 42.353C143.19 42.4192 143.385 42.5008 143.539 42.5978C143.695 42.6947 143.831 42.7905 143.947 42.8851C144.063 42.9797 144.148 43.0613 144.202 43.1298L144.28 43.2292L143.773 43.74C143.759 43.721 143.737 43.695 143.709 43.6619C143.683 43.6264 143.622 43.5638 143.525 43.4739C143.428 43.3841 143.324 43.3072 143.212 43.2433C143.101 43.1771 142.956 43.1168 142.776 43.0624C142.599 43.0057 142.411 42.9773 142.212 42.9773C141.685 42.9773 141.238 43.1606 140.871 43.5271C140.505 43.8913 140.322 44.3371 140.322 44.8644C140.322 45.3918 140.504 45.8387 140.868 46.2053C141.234 46.5718 141.682 46.7551 142.212 46.7551C142.411 46.7551 142.6 46.7279 142.78 46.6735C142.962 46.6167 143.112 46.5493 143.23 46.4713C143.351 46.3933 143.456 46.3164 143.546 46.2407C143.638 46.1627 143.707 46.0965 143.752 46.0421L143.808 45.9534L144.319 46.4642C144.3 46.4926 144.271 46.5304 144.231 46.5777C144.193 46.6226 144.106 46.703 143.972 46.8189C143.839 46.9348 143.697 47.0377 143.546 47.1275C143.397 47.2174 143.201 47.299 142.957 47.3723C142.716 47.4432 142.468 47.4787 142.212 47.4787C141.451 47.4787 140.812 47.2257 140.297 46.7196C139.781 46.2135 139.523 45.5951 139.523 44.8644C139.523 44.1337 139.781 43.5153 140.297 43.0092C140.812 42.5032 141.451 42.2501 142.212 42.2501ZM146.495 42.3211V44.7935L148.783 42.3211H149.801L147.839 44.4281L149.946 47.4078H148.964L147.293 45.0099L146.495 45.8825V47.4078H145.697V42.3211H146.495ZM153.289 47.4078H151.111V42.3211H153.179C153.591 42.3211 153.942 42.457 154.233 42.729C154.524 43.001 154.669 43.3131 154.669 43.6655C154.669 43.8688 154.627 44.0557 154.542 44.2259C154.459 44.3962 154.376 44.5144 154.293 44.5806L154.162 44.6835C154.181 44.693 154.207 44.7095 154.24 44.7332C154.275 44.7545 154.338 44.8029 154.428 44.8786C154.518 44.9519 154.595 45.0335 154.659 45.1234C154.725 45.2132 154.785 45.3303 154.839 45.4745C154.896 45.6164 154.925 45.7642 154.925 45.9179C154.925 46.3247 154.769 46.6747 154.456 46.9679C154.144 47.2611 153.755 47.4078 153.289 47.4078ZM151.91 46.7161H153.289C153.526 46.7161 153.724 46.6368 153.885 46.4784C154.046 46.3176 154.127 46.1189 154.127 45.8825C154.127 45.646 154.046 45.4473 153.885 45.2865C153.727 45.1257 153.528 45.0453 153.289 45.0453H151.91V46.7161ZM153.179 43.0128H151.91V44.3926H153.179C153.378 44.3926 153.542 44.3276 153.672 44.1975C153.805 44.0651 153.871 43.9008 153.871 43.7045C153.871 43.5058 153.805 43.3415 153.672 43.2114C153.542 43.079 153.378 43.0128 153.179 43.0128ZM161.57 42.3211V47.4078H160.768V42.3211H161.57ZM158.409 47.4078H156.448V42.3211H157.246V44.1372H158.409C158.894 44.1372 159.3 44.2969 159.626 44.6161C159.952 44.933 160.116 45.3196 160.116 45.776C160.116 46.2301 159.952 46.6156 159.626 46.9324C159.3 47.2493 158.894 47.4078 158.409 47.4078ZM157.246 46.6806H158.409C158.66 46.6806 158.874 46.5943 159.051 46.4216C159.229 46.2466 159.317 46.0314 159.317 45.776C159.317 45.5183 159.229 45.3019 159.051 45.1269C158.874 44.9519 158.66 44.8644 158.409 44.8644H157.246V46.6806ZM172.47 46.7551V47.4078H170.217V46.7551H172.47ZM168.727 42.3211H169.526V47.4078H168.837L166.003 43.74V47.4078H165.205V42.3211H165.893L168.727 45.9924V42.3211ZM170.483 45.8399C170.256 45.6152 170.143 45.3386 170.143 45.0099C170.143 44.6811 170.256 44.4056 170.483 44.1834C170.713 43.9587 170.999 43.8464 171.342 43.8464C171.687 43.8464 171.973 43.9587 172.2 44.1834C172.427 44.4056 172.541 44.6811 172.541 45.0099C172.541 45.3386 172.427 45.6152 172.2 45.8399C171.973 46.0622 171.687 46.1733 171.342 46.1733C170.999 46.1733 170.713 46.0622 170.483 45.8399ZM171.785 45.4568C171.901 45.3433 171.959 45.1943 171.959 45.0099C171.959 44.8254 171.901 44.6764 171.785 44.5629C171.669 44.4494 171.522 44.3926 171.342 44.3926C171.164 44.3926 171.017 44.4494 170.898 44.5629C170.783 44.6764 170.725 44.8254 170.725 45.0099C170.725 45.1943 170.783 45.3433 170.898 45.4568C171.017 45.5703 171.164 45.6271 171.342 45.6271C171.522 45.6271 171.669 45.5703 171.785 45.4568ZM177.886 44.719C177.909 44.7284 177.941 44.7426 177.981 44.7615C178.024 44.7781 178.097 44.8207 178.201 44.8892C178.305 44.9555 178.398 45.0323 178.478 45.1198C178.558 45.2073 178.631 45.3291 178.694 45.4852C178.761 45.6389 178.794 45.808 178.794 45.9924C178.794 46.4086 178.627 46.761 178.294 47.0495C177.963 47.3356 177.524 47.4787 176.978 47.4787C176.746 47.4787 176.526 47.4515 176.318 47.3971C176.11 47.3404 175.937 47.2741 175.8 47.1985C175.665 47.1204 175.548 47.0424 175.449 46.9644C175.349 46.8863 175.277 46.8213 175.232 46.7693L175.161 46.6806L175.669 46.1733C175.678 46.1875 175.695 46.2088 175.718 46.2372C175.744 46.2632 175.799 46.3105 175.881 46.3791C175.964 46.4453 176.051 46.5044 176.14 46.5564C176.233 46.6061 176.353 46.6522 176.502 46.6948C176.654 46.735 176.812 46.7551 176.978 46.7551C177.292 46.7551 177.54 46.6794 177.722 46.5281C177.905 46.3743 177.996 46.184 177.996 45.957C177.996 45.7276 177.905 45.5372 177.722 45.3859C177.54 45.2321 177.292 45.1553 176.978 45.1553H176.47V44.4281H176.978C177.228 44.4281 177.423 44.3631 177.563 44.233C177.705 44.103 177.776 43.9268 177.776 43.7045C177.776 43.4798 177.705 43.3025 177.563 43.1724C177.423 43.0423 177.228 42.9773 176.978 42.9773C176.765 42.9773 176.564 43.0234 176.375 43.1156C176.185 43.2079 176.052 43.2966 175.974 43.3817L175.853 43.52L175.342 43.0128C175.357 42.9939 175.378 42.9678 175.406 42.9347C175.437 42.8993 175.503 42.8366 175.605 42.7467C175.706 42.6569 175.815 42.58 175.931 42.5162C176.047 42.45 176.2 42.3897 176.389 42.3353C176.578 42.2785 176.774 42.2501 176.978 42.2501C177.477 42.2501 177.868 42.379 178.152 42.6368C178.435 42.8922 178.577 43.2232 178.577 43.63C178.577 43.7695 178.553 43.9043 178.503 44.0344C178.456 44.1621 178.398 44.2661 178.329 44.3465C178.26 44.4269 178.193 44.4967 178.127 44.5558C178.063 44.6126 178.006 44.6528 177.957 44.6764L177.886 44.719ZM181.846 43.9918C182.286 43.9918 182.673 44.1656 183.009 44.5132C183.347 44.8585 183.516 45.2664 183.516 45.737C183.516 46.2124 183.339 46.6215 182.984 46.9644C182.632 47.3073 182.204 47.4787 181.7 47.4787C181.197 47.4787 180.767 47.3073 180.413 46.9644C180.06 46.6215 179.884 46.2124 179.884 45.737C179.884 45.5431 179.918 45.3492 179.987 45.1553C180.056 44.9614 180.123 44.8159 180.189 44.719L180.285 44.5735L181.739 42.3211H182.537L181.409 44.0663C181.53 44.0166 181.675 43.9918 181.846 43.9918ZM182.474 46.4819C182.686 46.2762 182.793 46.0279 182.793 45.737C182.793 45.4462 182.686 45.1979 182.474 44.9921C182.263 44.7864 182.005 44.6835 181.7 44.6835C181.395 44.6835 181.138 44.7864 180.927 44.9921C180.717 45.1979 180.611 45.4462 180.611 45.737C180.611 46.0279 180.717 46.2762 180.927 46.4819C181.138 46.6877 181.395 46.7905 181.7 46.7905C182.005 46.7905 182.263 46.6877 182.474 46.4819ZM187.04 44.719C187.064 44.7284 187.096 44.7426 187.136 44.7615C187.179 44.7781 187.252 44.8207 187.356 44.8892C187.46 44.9555 187.552 45.0323 187.633 45.1198C187.713 45.2073 187.785 45.3291 187.849 45.4852C187.915 45.6389 187.948 45.808 187.948 45.9924C187.948 46.4086 187.782 46.761 187.448 47.0495C187.117 47.3356 186.678 47.4787 186.132 47.4787C185.9 47.4787 185.681 47.4515 185.472 47.3971C185.264 47.3404 185.092 47.2741 184.955 47.1985C184.82 47.1204 184.703 47.0424 184.603 46.9644C184.504 46.8863 184.432 46.8213 184.387 46.7693L184.316 46.6806L184.823 46.1733C184.833 46.1875 184.849 46.2088 184.873 46.2372C184.899 46.2632 184.953 46.3105 185.036 46.3791C185.119 46.4453 185.205 46.5044 185.295 46.5564C185.387 46.6061 185.508 46.6522 185.657 46.6948C185.808 46.735 185.967 46.7551 186.132 46.7551C186.447 46.7551 186.695 46.6794 186.877 46.5281C187.059 46.3743 187.15 46.184 187.15 45.957C187.15 45.7276 187.059 45.5372 186.877 45.3859C186.695 45.2321 186.447 45.1553 186.132 45.1553H185.625V44.4281H186.132C186.383 44.4281 186.578 44.3631 186.717 44.233C186.859 44.103 186.93 43.9268 186.93 43.7045C186.93 43.4798 186.859 43.3025 186.717 43.1724C186.578 43.0423 186.383 42.9773 186.132 42.9773C185.919 42.9773 185.718 43.0234 185.529 43.1156C185.34 43.2079 185.206 43.2966 185.128 43.3817L185.008 43.52L184.497 43.0128C184.511 42.9939 184.532 42.9678 184.561 42.9347C184.592 42.8993 184.658 42.8366 184.759 42.7467C184.861 42.6569 184.97 42.58 185.086 42.5162C185.202 42.45 185.354 42.3897 185.543 42.3353C185.733 42.2785 185.929 42.2501 186.132 42.2501C186.631 42.2501 187.023 42.379 187.306 42.6368C187.59 42.8922 187.732 43.2232 187.732 43.63C187.732 43.7695 187.707 43.9043 187.657 44.0344C187.61 44.1621 187.552 44.2661 187.484 44.3465C187.415 44.4269 187.348 44.4967 187.281 44.5558C187.218 44.6126 187.161 44.6528 187.111 44.6764L187.04 44.719ZM192.275 43.5271C191.911 43.8913 191.729 44.3371 191.729 44.8644C191.729 45.3918 191.911 45.8387 192.275 46.2053C192.642 46.5718 193.089 46.7551 193.616 46.7551C194.146 46.7551 194.593 46.5718 194.957 46.2053C195.323 45.8387 195.507 45.3918 195.507 44.8644C195.507 44.3371 195.323 43.8913 194.957 43.5271C194.593 43.1606 194.146 42.9773 193.616 42.9773C193.089 42.9773 192.642 43.1606 192.275 43.5271ZM191.704 46.7196C191.189 46.2135 190.931 45.5951 190.931 44.8644C190.931 44.1337 191.189 43.5153 191.704 43.0092C192.22 42.5032 192.857 42.2501 193.616 42.2501C194.378 42.2501 195.016 42.5032 195.532 43.0092C196.047 43.5153 196.305 44.1337 196.305 44.8644C196.305 45.5951 196.047 46.2135 195.532 46.7196C195.016 47.2257 194.378 47.4787 193.616 47.4787C192.857 47.4787 192.22 47.2257 191.704 46.7196ZM196.963 42.3211H200.811V43.0482H199.286V47.4078H198.488V43.0482H196.963V42.3211ZM206.809 47.4078H203.432C203.432 47.0932 203.479 46.8083 203.574 46.5529C203.668 46.2951 203.791 46.0811 203.943 45.9108C204.096 45.7406 204.264 45.5845 204.446 45.4426C204.631 45.3007 204.814 45.1718 204.996 45.056C205.178 44.9377 205.345 44.8219 205.496 44.7083C205.65 44.5948 205.774 44.4624 205.869 44.3111C205.963 44.1573 206.011 43.9906 206.011 43.8109C206.011 43.5531 205.93 43.3498 205.77 43.2008C205.611 43.0518 205.389 42.9773 205.103 42.9773C204.963 42.9773 204.832 43.0033 204.709 43.0553C204.588 43.105 204.494 43.1653 204.425 43.2363C204.359 43.3048 204.3 43.3746 204.248 43.4455C204.198 43.5165 204.164 43.578 204.145 43.63L204.12 43.7045L203.467 43.4136C203.477 43.3805 203.49 43.3379 203.506 43.2859C203.525 43.2339 203.575 43.1417 203.655 43.0092C203.738 42.8768 203.834 42.7597 203.943 42.6581C204.051 42.5564 204.209 42.463 204.414 42.3778C204.62 42.2927 204.85 42.2501 205.103 42.2501C205.602 42.2501 206.011 42.4003 206.33 42.7006C206.649 43.001 206.809 43.371 206.809 43.8109C206.809 44.0426 206.762 44.2578 206.667 44.4565C206.572 44.6551 206.452 44.8219 206.305 44.9566C206.161 45.0891 205.994 45.2262 205.805 45.3681C205.618 45.5076 205.436 45.6353 205.259 45.7512C205.081 45.8671 204.906 46.0066 204.734 46.1698C204.563 46.3306 204.432 46.5009 204.34 46.6806H206.809V47.4078ZM208.669 46.7693C208.255 46.2939 208.048 45.659 208.048 44.8644C208.048 44.0698 208.255 43.4361 208.669 42.9631C209.083 42.4878 209.59 42.2501 210.191 42.2501C210.791 42.2501 211.299 42.4878 211.712 42.9631C212.126 43.4361 212.333 44.0698 212.333 44.8644C212.333 45.659 212.126 46.2939 211.712 46.7693C211.299 47.2422 210.791 47.4787 210.191 47.4787C209.59 47.4787 209.083 47.2422 208.669 46.7693ZM211.138 46.2514C211.403 45.9132 211.535 45.4509 211.535 44.8644C211.535 44.2779 211.403 43.8168 211.138 43.481C210.875 43.1452 210.56 42.9773 210.191 42.9773C209.822 42.9773 209.505 43.1452 209.24 43.481C208.978 43.8168 208.846 44.2779 208.846 44.8644C208.846 45.4509 208.978 45.9132 209.24 46.2514C209.505 46.5872 209.822 46.7551 210.191 46.7551C210.56 46.7551 210.875 46.5872 211.138 46.2514ZM214.3 46.677C214.394 46.7716 214.442 46.8828 214.442 47.0105C214.442 47.1358 214.394 47.2458 214.3 47.3404C214.205 47.4326 214.094 47.4787 213.966 47.4787C213.841 47.4787 213.731 47.4326 213.636 47.3404C213.542 47.2458 213.495 47.1358 213.495 47.0105C213.495 46.8828 213.542 46.7716 213.636 46.677C213.731 46.5824 213.841 46.5351 213.966 46.5351C214.094 46.5351 214.205 46.5824 214.3 46.677ZM216.227 46.7693C215.814 46.2939 215.607 45.659 215.607 44.8644C215.607 44.0698 215.814 43.4361 216.227 42.9631C216.641 42.4878 217.148 42.2501 217.749 42.2501C218.35 42.2501 218.857 42.4878 219.271 42.9631C219.685 43.4361 219.892 44.0698 219.892 44.8644C219.892 45.659 219.685 46.2939 219.271 46.7693C218.857 47.2422 218.35 47.4787 217.749 47.4787C217.148 47.4787 216.641 47.2422 216.227 46.7693ZM218.696 46.2514C218.961 45.9132 219.094 45.4509 219.094 44.8644C219.094 44.2779 218.961 43.8168 218.696 43.481C218.434 43.1452 218.118 42.9773 217.749 42.9773C217.38 42.9773 217.063 43.1452 216.798 43.481C216.536 43.8168 216.405 44.2779 216.405 44.8644C216.405 45.4509 216.536 45.9132 216.798 46.2514C217.063 46.5872 217.38 46.7551 217.749 46.7551C218.118 46.7551 218.434 46.5872 218.696 46.2514ZM224.253 45.6625H224.905V46.3897H224.253V47.4078H223.451V46.3897H220.982V45.5206L223.235 42.3211H224.253V45.6625ZM223.451 45.6625V43.2292L221.745 45.6625H223.451ZM226.655 46.677C226.75 46.7716 226.797 46.8828 226.797 47.0105C226.797 47.1358 226.75 47.2458 226.655 47.3404C226.561 47.4326 226.45 47.4787 226.322 47.4787C226.197 47.4787 226.087 47.4326 225.992 47.3404C225.898 47.2458 225.85 47.1358 225.85 47.0105C225.85 46.8828 225.898 46.7716 225.992 46.677C226.087 46.5824 226.197 46.5351 226.322 46.5351C226.45 46.5351 226.561 46.5824 226.655 46.677ZM228.906 42.3211H229.523V47.4078H228.725V43.559H227.817V43.0128C228.122 42.9797 228.354 42.9075 228.512 42.7964C228.673 42.6829 228.804 42.5244 228.906 42.3211ZM232.791 45.737C232.352 45.737 231.963 45.5644 231.624 45.2191C231.289 44.8715 231.121 44.4624 231.121 43.9918C231.121 43.5165 231.297 43.1074 231.649 42.7645C232.004 42.4216 232.433 42.2501 232.937 42.2501C233.441 42.2501 233.869 42.4228 234.221 42.768C234.576 43.1109 234.753 43.5188 234.753 43.9918C234.753 44.1857 234.719 44.3796 234.65 44.5735C234.584 44.7675 234.517 44.9129 234.448 45.0099L234.352 45.1553L232.901 47.4078H232.1L233.228 45.6625C233.107 45.7122 232.962 45.737 232.791 45.737ZM232.164 43.2504C231.953 43.4562 231.848 43.7045 231.848 43.9954C231.848 44.2839 231.953 44.531 232.164 44.7367C232.374 44.9425 232.632 45.0453 232.937 45.0453C233.242 45.0453 233.5 44.9425 233.71 44.7367C233.921 44.531 234.026 44.2839 234.026 43.9954C234.026 43.7045 233.921 43.4562 233.71 43.2504C233.5 43.0423 233.242 42.9383 232.937 42.9383C232.632 42.9383 232.374 43.0423 232.164 43.2504ZM237.589 45.737C237.149 45.737 236.76 45.5644 236.422 45.2191C236.086 44.8715 235.918 44.4624 235.918 43.9918C235.918 43.5165 236.094 43.1074 236.446 42.7645C236.801 42.4216 237.23 42.2501 237.734 42.2501C238.238 42.2501 238.666 42.4228 239.018 42.768C239.373 43.1109 239.55 43.5188 239.55 43.9918C239.55 44.1857 239.516 44.3796 239.447 44.5735C239.381 44.7675 239.314 44.9129 239.245 45.0099L239.149 45.1553L237.699 47.4078H236.897L238.025 45.6625C237.904 45.7122 237.759 45.737 237.589 45.737ZM236.961 43.2504C236.75 43.4562 236.645 43.7045 236.645 43.9954C236.645 44.2839 236.75 44.531 236.961 44.7367C237.171 44.9425 237.429 45.0453 237.734 45.0453C238.039 45.0453 238.297 44.9425 238.507 44.7367C238.718 44.531 238.823 44.2839 238.823 43.9954C238.823 43.7045 238.718 43.4562 238.507 43.2504C238.297 43.0423 238.039 42.9383 237.734 42.9383C237.429 42.9383 237.171 43.0423 236.961 43.2504ZM243 44.719C243.023 44.7284 243.055 44.7426 243.095 44.7615C243.138 44.7781 243.211 44.8207 243.315 44.8892C243.419 44.9555 243.512 45.0323 243.592 45.1198C243.672 45.2073 243.744 45.3291 243.808 45.4852C243.874 45.6389 243.908 45.808 243.908 45.9924C243.908 46.4086 243.741 46.761 243.407 47.0495C243.076 47.3356 242.638 47.4787 242.091 47.4787C241.86 47.4787 241.64 47.4515 241.432 47.3971C241.224 47.3404 241.051 47.2741 240.914 47.1985C240.779 47.1204 240.662 47.0424 240.563 46.9644C240.463 46.8863 240.391 46.8213 240.346 46.7693L240.275 46.6806L240.783 46.1733C240.792 46.1875 240.809 46.2088 240.832 46.2372C240.858 46.2632 240.913 46.3105 240.995 46.3791C241.078 46.4453 241.164 46.5044 241.254 46.5564C241.347 46.6061 241.467 46.6522 241.616 46.6948C241.767 46.735 241.926 46.7551 242.091 46.7551C242.406 46.7551 242.654 46.6794 242.836 46.5281C243.018 46.3743 243.109 46.184 243.109 45.957C243.109 45.7276 243.018 45.5372 242.836 45.3859C242.654 45.2321 242.406 45.1553 242.091 45.1553H241.584V44.4281H242.091C242.342 44.4281 242.537 44.3631 242.677 44.233C242.819 44.103 242.89 43.9268 242.89 43.7045C242.89 43.4798 242.819 43.3025 242.677 43.1724C242.537 43.0423 242.342 42.9773 242.091 42.9773C241.879 42.9773 241.678 43.0234 241.488 43.1156C241.299 43.2079 241.166 43.2966 241.088 43.3817L240.967 43.52L240.456 43.0128C240.47 42.9939 240.492 42.9678 240.52 42.9347C240.551 42.8993 240.617 42.8366 240.719 42.7467C240.82 42.6569 240.929 42.58 241.045 42.5162C241.161 42.45 241.313 42.3897 241.503 42.3353C241.692 42.2785 241.888 42.2501 242.091 42.2501C242.59 42.2501 242.982 42.379 243.266 42.6368C243.549 42.8922 243.691 43.2232 243.691 43.63C243.691 43.7695 243.666 43.9043 243.617 44.0344C243.569 44.1621 243.512 44.2661 243.443 44.3465C243.374 44.4269 243.307 44.4967 243.241 44.5558C243.177 44.6126 243.12 44.6528 243.07 44.6764L243 44.719Z" fill="#222222"/>
<defs>
<clipPath id="clip0_25_32489">
<rect width="45.7167" height="56.837" fill="white" transform="translate(0.979218 2.35606)"/>
</clipPath>
<clipPath id="clip1_25_32489">
<rect width="45.7167" height="45.7167" fill="white" transform="translate(0.979218 2.35606)"/>
</clipPath>
</defs>
</svg>
