<svg width="202" height="42" viewBox="0 0 202 42" fill="none" xmlns="http://www.w3.org/2000/svg">
<path d="M193.742 10.2682H201.967L201.55 12.2914H198.556L196.766 20.742H194.517L196.313 12.2914H193.326L193.742 10.2682Z" fill="#252525"/>
<path d="M185.292 18.7261H190.901L190.477 20.742H182.626L184.839 10.2682H192.544L192.128 12.2914H186.665L186.219 14.3876H190.477L190.046 16.4035H185.781L185.292 18.7261Z" fill="#252525"/>
<path d="M182.151 10.2682L179.938 20.742H177.696L179.492 12.2914H176.425L176.169 13.4892C175.862 14.9646 175.526 16.2038 175.161 17.2069C174.796 18.2051 174.404 18.972 173.985 19.5076C173.567 20.0433 173.143 20.4206 172.714 20.6397C172.286 20.8589 171.801 20.9684 171.261 20.9684C171.042 20.9684 170.813 20.9441 170.574 20.8954C170.336 20.8516 170.156 20.8102 170.034 20.7712L169.844 20.7128L170.29 18.5727C170.518 18.6701 170.759 18.7213 171.013 18.7261C171.402 18.7261 171.741 18.6093 172.028 18.3755C172.315 18.1369 172.622 17.6232 172.948 16.8344C173.279 16.0407 173.601 14.9305 173.912 13.5038L174.599 10.2682H182.151Z" fill="#252525"/>
<path d="M163.183 12.065C162.574 12.065 162.031 12.3255 161.554 12.8465C161.077 13.3626 160.731 13.9543 160.517 14.6214C160.303 15.2836 160.196 15.9117 160.196 16.5058C160.196 17.2848 160.361 17.8862 160.692 18.3098C161.028 18.7334 161.449 18.9453 161.956 18.9453C162.253 18.9453 162.572 18.8479 162.913 18.6531C163.253 18.4583 163.577 18.1857 163.884 17.8351C164.196 17.4796 164.451 17.0073 164.651 16.4181C164.851 15.8289 164.95 15.1862 164.95 14.4899C164.95 13.7205 164.782 13.1241 164.446 12.7004C164.11 12.2768 163.689 12.065 163.183 12.065ZM167.237 14.4168C167.237 14.9865 167.159 15.5757 167.003 16.1844C166.852 16.7882 166.618 17.3749 166.302 17.9446C165.99 18.5143 165.622 19.0232 165.199 19.4711C164.775 19.9191 164.271 20.2819 163.687 20.5594C163.103 20.8321 162.487 20.9684 161.839 20.9684C160.714 20.9684 159.779 20.5619 159.034 19.7487C158.294 18.9355 157.924 17.8765 157.924 16.5715C157.924 15.7924 158.031 15.0547 158.245 14.3584C158.46 13.6572 158.747 13.051 159.107 12.5397C159.472 12.0236 159.886 11.5756 160.349 11.1958C160.816 10.8112 161.306 10.5239 161.817 10.334C162.328 10.1441 162.835 10.0491 163.336 10.0491C164.461 10.0491 165.391 10.4508 166.126 11.2543C166.866 12.0577 167.237 13.1119 167.237 14.4168Z" fill="#252525"/>
<path d="M154.849 15.2787C154.888 15.2982 154.936 15.325 154.995 15.359C155.058 15.3883 155.17 15.4662 155.331 15.5928C155.491 15.7145 155.63 15.8508 155.747 16.0018C155.869 16.1527 155.978 16.3524 156.076 16.6007C156.178 16.849 156.229 17.1168 156.229 17.4041C156.229 18.3829 155.837 19.2228 155.053 19.924C154.269 20.6203 153.22 20.9684 151.905 20.9684C151.409 20.9684 150.931 20.91 150.474 20.7931C150.021 20.6811 149.648 20.5448 149.356 20.3841C149.069 20.2234 148.818 20.0652 148.604 19.9094C148.39 19.7487 148.234 19.6075 148.136 19.4857L147.998 19.3178L149.553 17.9738C149.573 18.0031 149.605 18.042 149.648 18.0907C149.697 18.1345 149.792 18.2173 149.933 18.339C150.079 18.4559 150.235 18.563 150.401 18.6604C150.566 18.7529 150.78 18.8357 151.043 18.9087C151.306 18.9818 151.579 19.0183 151.861 19.0183C152.499 19.0183 152.998 18.8625 153.359 18.5508C153.724 18.2343 153.907 17.8472 153.907 17.3895C153.907 17.0682 153.782 16.8125 153.534 16.6226C153.286 16.4278 152.928 16.3305 152.46 16.3305H151.321L151.723 14.4607H152.738C153.215 14.4607 153.627 14.3243 153.972 14.0516C154.318 13.7741 154.491 13.4211 154.491 12.9926C154.491 12.7053 154.381 12.4667 154.162 12.2768C153.943 12.0869 153.644 11.992 153.264 11.992C152.884 11.992 152.511 12.0747 152.146 12.2403C151.786 12.4058 151.516 12.5665 151.336 12.7223L151.065 12.978L150.006 11.6195C150.035 11.5805 150.082 11.5269 150.145 11.4588C150.208 11.3857 150.352 11.2567 150.576 11.0717C150.805 10.8866 151.046 10.7284 151.299 10.5969C151.552 10.4606 151.888 10.3364 152.307 10.2244C152.726 10.1075 153.164 10.0491 153.622 10.0491C154.547 10.0491 155.321 10.3023 155.944 10.8087C156.572 11.3103 156.887 11.9043 156.887 12.5909C156.887 12.8684 156.848 13.1338 156.77 13.387C156.697 13.6353 156.599 13.8496 156.477 14.0297C156.361 14.205 156.227 14.3682 156.076 14.5191C155.925 14.67 155.776 14.7918 155.63 14.8843C155.489 14.9719 155.358 15.0474 155.236 15.1107C155.119 15.174 155.026 15.2154 154.958 15.2349L154.849 15.2787Z" fill="#252525"/>
<path d="M138.547 18.7261H144.156L143.733 20.742H135.881L138.094 10.2682H145.8L145.383 12.2914H139.92L139.475 14.3876H143.733L143.302 16.4035H139.036L138.547 18.7261Z" fill="#252525"/>
<path d="M135.413 10.2682L133.193 20.742H120.031L122.244 10.2682H124.487L122.697 18.7261H125.911L127.708 10.2682H129.95L128.153 18.7261H131.374L133.164 10.2682H135.413Z" fill="#252525"/>
<path d="M112.53 18.7261H114.699C115.206 18.7261 115.639 18.5557 116 18.2149C116.36 17.874 116.54 17.465 116.54 16.9878C116.54 16.6469 116.409 16.3524 116.146 16.104C115.888 15.8557 115.569 15.7315 115.189 15.7315H113.173L112.53 18.7261ZM114.502 20.742H109.864L112.077 10.2682H114.32L113.589 13.7084H115.532C116.457 13.7084 117.239 14.0127 117.877 14.6213C118.519 15.23 118.841 15.9433 118.841 16.7614C118.841 17.9105 118.422 18.8625 117.584 19.6172C116.747 20.3671 115.72 20.742 114.502 20.742Z" fill="#252525"/>
<path d="M109.39 10.2682L107.176 20.742H104.934L106.731 12.2914H103.663L103.408 13.4892C103.101 14.9646 102.765 16.2038 102.4 17.2069C102.035 18.2051 101.643 18.972 101.224 19.5076C100.805 20.0433 100.381 20.4206 99.9529 20.6397C99.5245 20.8589 99.04 20.9684 98.4995 20.9684C98.2804 20.9684 98.0515 20.9441 97.8129 20.8954C97.5743 20.8516 97.3942 20.8102 97.2724 20.7712L97.0825 20.7128L97.5281 18.5727C97.7569 18.6701 97.9979 18.7213 98.2511 18.7261C98.6407 18.7261 98.9791 18.6093 99.2664 18.3755C99.5537 18.1369 99.8604 17.6232 100.187 16.8344C100.518 16.0407 100.839 14.9305 101.151 13.5038L101.837 10.2682H109.39Z" fill="#252525"/>
<path d="M92.4447 12.0504C91.4465 12.0504 90.5554 12.4424 89.7715 13.2263C88.9924 14.0103 88.6028 14.9111 88.6028 15.9287C88.6028 16.7857 88.8877 17.504 89.4574 18.0834C90.032 18.658 90.7697 18.9453 91.6705 18.9453C92.6589 18.9453 93.5451 18.563 94.3291 17.7985C95.1179 17.0292 95.5123 16.1162 95.5123 15.0596C95.5123 14.2026 95.2226 13.4868 94.6431 12.9122C94.0637 12.3377 93.3309 12.0504 92.4447 12.0504ZM86.251 16.0602C86.251 14.4826 86.8888 13.0875 88.1646 11.8751C89.4452 10.6578 90.923 10.0491 92.5981 10.0491C94.1416 10.0491 95.4052 10.5263 96.3888 11.4807C97.3724 12.4302 97.8642 13.5818 97.8642 14.9354C97.8642 15.9921 97.5696 16.9878 96.9804 17.9227C96.3912 18.8527 95.6097 19.5929 94.6358 20.1431C93.6669 20.6933 92.637 20.9684 91.5463 20.9684C90.0027 20.9684 88.7343 20.4937 87.741 19.5442C86.7476 18.5898 86.251 17.4285 86.251 16.0602Z" fill="#252525"/>
<path d="M78.3627 18.7261H80.6926C81.1503 18.7261 81.535 18.5825 81.8467 18.2952C82.1632 18.003 82.3214 17.6622 82.3214 17.2726C82.3214 16.9756 82.2094 16.72 81.9854 16.5057C81.7614 16.2866 81.4766 16.1771 81.1309 16.1771H78.8959L78.3627 18.7261ZM80.4516 20.742H75.6968L77.9099 10.2682H85.1699L84.7463 12.2914H79.7358L79.3341 14.1612H81.5472C82.4334 14.1612 83.1662 14.4485 83.7457 15.0231C84.3251 15.5928 84.6148 16.2623 84.6148 17.0316C84.6148 18.0688 84.2131 18.9477 83.4097 19.6683C82.6063 20.3841 81.6202 20.742 80.4516 20.742Z" fill="#252525"/>
<path d="M57.913 34.2926L61.4937 30.729H63.1643L61.4367 38.9054H59.6862L60.8437 33.4659L57.5025 36.8014L55.5753 33.4887L54.4292 38.9054H52.6787L54.4064 30.729H55.866L57.913 34.2926ZM74.1973 30.729L72.4697 38.9054H70.7192L72.4469 30.729H74.1973ZM65.6161 37.3317H67.1898C67.5851 37.3317 67.9234 37.1986 68.2047 36.9326C68.486 36.6665 68.6267 36.3472 68.6267 35.9747C68.6267 35.7086 68.5259 35.4786 68.3245 35.2847C68.123 35.0909 67.874 34.994 67.5775 34.994H66.1179L65.6161 37.3317ZM67.0416 38.9054H63.535L65.2626 30.729H67.0131L66.4429 33.4146H67.8455C68.5678 33.4146 69.1778 33.6521 69.6758 34.1273C70.1738 34.6024 70.4227 35.1593 70.4227 35.7979C70.4227 36.695 70.0958 37.4381 69.442 38.0273C68.792 38.6127 67.9919 38.9054 67.0416 38.9054ZM85.6465 30.729L83.9189 38.9054H82.1684L83.5654 32.3084H80.1215L78.7189 38.9054H76.9684L78.696 30.729H85.6465ZM91.1602 32.1202C90.3809 32.1202 89.6853 32.4262 89.0733 33.0382C88.4651 33.6502 88.161 34.3535 88.161 35.1479C88.161 35.8169 88.3834 36.3776 88.8281 36.8299C89.2767 37.2785 89.8526 37.5027 90.5558 37.5027C91.3274 37.5027 92.0192 37.2044 92.6312 36.6076C93.247 36.007 93.5549 35.2942 93.5549 34.4694C93.5549 33.8004 93.3288 33.2416 92.8764 32.7931C92.4241 32.3445 91.852 32.1202 91.1602 32.1202ZM86.325 35.2505C86.325 34.0189 86.823 32.9299 87.8189 31.9834C88.8186 31.0331 89.9723 30.558 91.2799 30.558C92.4849 30.558 93.4713 30.9305 94.2391 31.6755C95.007 32.4167 95.3909 33.3157 95.3909 34.3725C95.3909 35.1973 95.1609 35.9747 94.701 36.7045C94.241 37.4305 93.631 38.0083 92.8707 38.4378C92.1143 38.8674 91.3103 39.0821 90.4589 39.0821C89.2539 39.0821 88.2637 38.7115 87.4882 37.9703C86.7128 37.2253 86.325 36.3187 86.325 35.2505ZM101.304 34.2926L104.884 30.729H106.555L104.827 38.9054H103.077L104.234 33.4659L100.893 36.8014L98.9659 33.4887L97.8199 38.9054H96.0694L97.7971 30.729H99.2567L101.304 34.2926ZM112.063 32.1202C111.284 32.1202 110.588 32.4262 109.976 33.0382C109.368 33.6502 109.064 34.3535 109.064 35.1479C109.064 35.8169 109.286 36.3776 109.731 36.8299C110.179 37.2785 110.755 37.5027 111.459 37.5027C112.23 37.5027 112.922 37.2044 113.534 36.6076C114.15 36.007 114.458 35.2942 114.458 34.4694C114.458 33.8004 114.232 33.2416 113.779 32.7931C113.327 32.3445 112.755 32.1202 112.063 32.1202ZM107.228 35.2505C107.228 34.0189 107.726 32.9299 108.722 31.9834C109.721 31.0331 110.875 30.558 112.183 30.558C113.388 30.558 114.374 30.9305 115.142 31.6755C115.91 32.4167 116.294 33.3157 116.294 34.3725C116.294 35.1973 116.064 35.9747 115.604 36.7045C115.144 37.4305 114.534 38.0083 113.774 38.4378C113.017 38.8674 112.213 39.0821 111.362 39.0821C110.157 39.0821 109.166 38.7115 108.391 37.9703C107.616 37.2253 107.228 36.3187 107.228 35.2505ZM116.972 38.9054L118.7 30.729H124.248L123.923 32.3084H120.125L118.723 38.9054H116.972ZM127.96 35.4615L127.538 32.776L125.97 35.4615H127.96ZM128.228 36.9782H125.074L123.963 38.9054H122.047L126.99 30.729H128.855L130.337 38.9054H128.518L128.228 36.9782ZM133.593 37.3317H137.972L137.641 38.9054H131.512L133.239 30.729H139.255L138.93 32.3084H134.665L134.317 33.9448H137.641L137.305 35.5185H133.975L133.593 37.3317ZM144.512 34.2926L148.093 30.729H149.763L148.036 38.9054H146.285L147.443 33.4659L144.101 36.8014L142.174 33.4887L141.028 38.9054H139.278L141.005 30.729H142.465L144.512 34.2926ZM161.087 30.729L159.359 38.9054H157.609L159.012 32.3084H156.617L156.417 33.2435C156.178 34.3953 155.915 35.3627 155.63 36.1457C155.345 36.925 155.039 37.5237 154.712 37.9418C154.386 38.3599 154.055 38.6545 153.72 38.8256C153.386 38.9966 153.008 39.0821 152.586 39.0821C152.415 39.0821 152.236 39.0631 152.05 39.0251C151.863 38.9909 151.723 38.9586 151.628 38.9282L151.479 38.8826L151.827 37.212C152.006 37.288 152.194 37.3279 152.392 37.3317C152.696 37.3317 152.96 37.2405 153.184 37.058C153.409 36.8717 153.648 36.4707 153.903 35.8549C154.161 35.2353 154.412 34.3687 154.655 33.2549L155.191 30.729H161.087ZM168.79 39.0821C167.817 39.0821 166.96 38.7533 166.219 38.0957C165.481 37.4381 165.082 36.5981 165.021 35.5755H163.909L163.208 38.9054H161.458L163.185 30.729H164.936L164.263 33.9448H165.244C165.563 32.9641 166.152 32.1545 167.011 31.5159C167.87 30.8773 168.786 30.558 169.759 30.558C170.85 30.558 171.749 30.9172 172.456 31.6356C173.167 32.3502 173.523 33.2321 173.523 34.2812C173.523 35.1441 173.295 35.95 172.838 36.6988C172.382 37.4476 171.789 38.033 171.059 38.4549C170.333 38.8731 169.577 39.0821 168.79 39.0821ZM168.898 37.5141C169.663 37.5141 170.328 37.191 170.894 36.5448C171.46 35.8986 171.744 35.1821 171.744 34.3953C171.744 33.7415 171.54 33.1998 171.134 32.7703C170.731 32.3369 170.227 32.1202 169.623 32.1202C168.923 32.1202 168.273 32.4243 167.673 33.0325C167.072 33.6407 166.772 34.3763 166.772 35.2391C166.772 35.8929 166.973 36.4365 167.376 36.8698C167.783 37.2994 168.29 37.5141 168.898 37.5141ZM173.22 37.3317H173.688C173.726 37.3013 173.781 37.2538 173.853 37.1891C173.929 37.1207 174.066 36.9687 174.264 36.733C174.465 36.4935 174.652 36.2312 174.823 35.9462C174.994 35.6611 175.178 35.2752 175.376 34.7887C175.573 34.3021 175.731 33.7871 175.849 33.2435L176.374 30.729H182.035L180.638 37.3317H181.631L180.941 40.5988H179.19L179.549 38.9054H174.646L174.287 40.5988H172.542L173.22 37.3317ZM177.599 33.2435C177.482 33.7871 177.333 34.3002 177.155 34.783C176.976 35.2657 176.799 35.6554 176.624 35.9519C176.45 36.2484 176.286 36.5049 176.134 36.7216C175.982 36.9383 175.857 37.0941 175.758 37.1891L175.615 37.3317H178.882L179.96 32.3084H177.799L177.599 33.2435ZM190.446 30.729L188.718 38.9054H186.967L187.572 36.0431H186.141L183.94 38.9054H182.007L184.407 35.8093C184.377 35.7865 184.341 35.758 184.299 35.7238C184.257 35.6896 184.176 35.6059 184.054 35.4729C183.932 35.3399 183.826 35.1992 183.735 35.051C183.647 34.9027 183.565 34.7127 183.489 34.4808C183.417 34.2451 183.381 34.0037 183.381 33.7567C183.381 32.8862 183.689 32.164 184.305 31.59C184.921 31.016 185.686 30.729 186.603 30.729H190.446ZM186.466 32.3084C186.116 32.3084 185.814 32.43 185.559 32.6733C185.308 32.9128 185.183 33.2112 185.183 33.5685C185.183 33.8194 185.274 34.0323 185.457 34.2071C185.639 34.382 185.867 34.4694 186.141 34.4694H187.903L188.37 32.3084H186.466ZM196.056 34.2926L199.637 30.729H201.308L199.58 38.9054H197.829L198.987 33.4659L195.646 36.8014L193.718 33.4887L192.572 38.9054H190.822L192.55 30.729H194.009L196.056 34.2926Z" fill="#2A2929"/>
<path d="M39.0133 24.6571C37.9745 27.0177 26.705 27.4824 23.6789 26.5593L24.6675 23.9106C27.6323 25.0171 38.7887 24.5151 39.7168 21.8306L39.0133 24.6571Z" fill="url(#paint0_linear_25_32506)"/>
<path d="M39.7168 21.838C38.6596 24.6026 27.6403 25.0585 24.6676 23.918L25.6259 21.4368C25.8211 21.5273 26.065 21.6026 26.3438 21.679C26.6227 21.7553 26.9191 21.8323 27.2689 21.8772L28.3748 22.0307L29.6195 22.0706C30.1191 22.0866 30.6187 22.1026 31.1183 22.1186C31.6179 22.1347 32.135 22.1512 32.6816 22.0339C33.2283 21.9166 33.7454 21.9332 34.2777 21.8659L35.885 21.5972L36.4842 21.4815L37.0269 21.3472C37.1846 21.3522 37.3623 21.2568 37.513 21.1942L37.9592 21.0568C38.2916 20.9403 38.6289 20.7935 38.9697 20.6171C39.1994 20.4947 39.4318 20.3444 39.6646 20.1674C39.8104 20.0539 39.9555 19.9111 40.0958 19.7429C40.1739 19.659 40.2472 19.5515 40.3094 19.4294C40.3525 19.2791 40.3572 19.2624 40.3668 19.229L39.6977 21.9048" fill="url(#paint1_linear_25_32506)"/>
<path d="M38.2768 27.5985C38.2385 27.7322 38.2337 27.7489 38.2289 27.7656C38.165 27.8556 38.0959 27.9283 38.0265 27.9782C37.8888 28.0872 37.7514 28.1733 37.6169 28.2348C37.4391 28.3303 37.2088 28.4241 36.9212 28.5328C36.6335 28.6416 36.2892 28.7317 35.8749 28.8196L35.4207 28.923L34.9051 29.0245L34.3417 29.1076L33.721 29.2057L32.0205 29.3366L30.3328 29.4848L28.6778 29.5498L27.0499 29.5818L25.7176 29.5391L24.4993 29.5001L23.4714 29.3828C23.1559 29.3727 22.8667 29.3634 22.6284 29.2378L23.645 26.5225C27.1986 27.5805 38.3216 26.8245 38.9794 24.6203L38.2425 27.5637" fill="url(#paint2_linear_25_32506)"/>
<path d="M38.7833 24.785C38.8815 24.0463 37.0482 23.7177 35.3615 23.9165C32.4236 24.2776 31.0744 23.6442 31.2713 22.858L32.1757 19.7003C31.8742 20.7529 33.547 21.2955 35.9509 20.9679C38.3548 20.6403 39.4886 21.2837 39.4235 21.956L38.7833 24.785Z" fill="white"/>
<path d="M39.4321 21.9502C39.5498 21.0941 37.7918 20.7005 36.1376 20.9341C33.2696 21.348 31.9821 20.5985 32.2405 19.6963L33.0827 16.7558C33.0553 16.8278 33.0344 16.9006 33.0205 16.973C33.0111 17.0453 33.0155 17.1144 33.0333 17.1757C33.0456 17.2474 33.0639 17.3156 33.0882 17.3798C33.1178 17.4508 33.1567 17.5144 33.2041 17.569C33.3532 17.7428 33.5341 17.8795 33.74 17.974C33.9922 18.0897 34.2651 18.1664 34.5533 18.2024C34.8798 18.2475 35.2181 18.2584 35.5644 18.2348C35.9514 18.2282 36.3459 18.1901 36.7449 18.1209C37.0696 18.067 37.3904 18.0379 37.7053 18.0337C38.0024 18.0177 38.2934 18.027 38.576 18.0616C38.8295 18.097 39.0721 18.1612 39.3005 18.2535C39.4852 18.3332 39.6542 18.4404 39.8042 18.5731L39.9296 18.7289L40.013 18.8833C40.0303 18.9345 40.0379 18.9919 40.0353 19.0526C40.0276 19.1082 40.0114 19.1647 39.9875 19.2197L39.3811 21.8812" fill="#048F17"/>
<path d="M38.1291 27.7183C38.1291 27.7183 38.1291 27.7183 38.1578 27.6181L38.1865 27.5178L38.0748 27.4131C38.0356 27.3706 37.9864 27.3403 37.9302 27.3241C37.7491 27.2329 37.5552 27.1645 37.3509 27.1201C37.0916 27.0588 36.8246 27.0165 36.5511 26.9933L35.6102 26.9631L34.5844 27.0314C34.1631 27.0179 33.7131 27.1046 33.3151 27.1087C32.9171 27.1128 32.5568 27.0844 32.2197 27.0736C31.9143 27.0456 31.616 26.9967 31.3264 26.9269C31.0991 26.8725 30.8861 26.7865 30.6912 26.6705L30.5421 26.5477C30.5036 26.5157 30.4723 26.4748 30.4492 26.4267C30.4268 26.3864 30.4113 26.3404 30.4033 26.2903C30.411 26.2403 30.4255 26.1895 30.4463 26.1399L31.4034 22.7984C31.1402 23.7173 32.8931 24.1782 35.3436 23.8858C37.7941 23.5935 39.0083 24.1045 38.9155 24.7254L38.2558 27.6718" fill="url(#paint3_linear_25_32506)"/>
<path fill-rule="evenodd" clip-rule="evenodd" d="M5.69007 28.52L0.137939 35.4047C3.50623 38.884 8.05899 40.6237 13.7962 40.6237C18.1717 40.6237 21.716 39.6077 24.429 37.5756C26.6042 39.6077 29.7386 40.6237 33.8321 40.6237C36.4601 40.6237 38.8475 39.9944 40.9943 38.736C43.1411 37.4775 44.8808 35.8859 46.2133 33.9611C47.5829 31.9994 48.7303 29.7785 49.6557 27.2986C50.581 24.8186 51.2288 22.4127 51.5989 20.0808C51.969 17.7489 52.1541 15.5095 52.1541 13.3627C52.1541 4.18317 47.7679 0.303554 38.9956 0.303554C38.5736 0.303554 38.1577 0.293955 37.7479 0.284494C37.0606 0.268632 36.3903 0.253159 35.7368 0.283979L35.7501 0.259659H8.57718L6.96706 8.58786H16.017C17.6827 8.58786 18.9597 8.49533 19.848 8.31025V8.4213L19.2928 8.86547C18.9227 9.12457 18.386 9.56874 17.6827 10.198C16.9794 10.7902 16.2947 11.438 15.6284 12.1412L9.68761 18.4151L10.798 23.1345H14.0738C18.2934 23.1345 20.4032 24.3374 20.4032 26.7433C20.4032 28.0759 19.811 29.2048 18.6265 30.1301C17.4421 31.0185 15.7579 31.4627 13.5741 31.4627C12.0565 31.4627 10.576 31.2036 9.1324 30.6854C7.68884 30.1672 6.5414 29.4454 5.69007 28.52ZM34.1652 31.7403C31.9073 31.7403 30.7784 29.9266 30.7784 26.2992C30.7784 24.7076 30.945 22.9309 31.2781 20.9691C31.6112 19.0074 32.0739 17.0826 32.6661 15.1949C33.2954 13.2702 34.1282 11.6786 35.1646 10.4201C36.238 9.12457 37.4039 8.47682 38.6624 8.47682C40.9203 8.47682 42.0492 10.2905 42.0492 13.9179C42.0492 15.5465 41.8827 17.3417 41.5495 19.3035C41.2164 21.2652 40.7352 23.19 40.106 25.0777C39.5138 26.9654 38.6809 28.557 37.6075 29.8525C36.5711 31.111 35.4237 31.7403 34.1652 31.7403Z" fill="url(#paint4_linear_25_32506)"/>
<path d="M52.0592 19.1248C58.5174 18.6772 65.0753 17.7222 71.6881 16.2663L72.9298 11.832C66.0428 13.7197 59.2031 14.9343 52.4909 15.4616C40.9141 16.3898 33.8172 17.1821 32.1594 19.8694L31.2785 23.0152C32.7958 20.6782 40.1314 19.9933 52.0592 19.1248Z" fill="url(#paint5_linear_25_32506)"/>
<path d="M52.478 15.5012C59.1934 14.9545 66.0316 13.7402 72.9169 11.8716L74.0649 7.77202L72.7026 8.24211L69.7953 9.17752C68.8075 9.47198 67.8057 9.76607 66.7289 10.0245L64.7814 10.513L62.8246 10.9339L60.8912 11.2711C60.2545 11.3724 59.6085 11.4567 58.9671 11.5242L57.413 11.6691L55.9337 11.7484L54.3935 11.8936L52.8581 12.0221L48.2938 12.4591C46.838 12.6065 45.3821 12.7539 44.0432 12.9381C42.7043 13.1222 41.4404 13.2915 40.2747 13.5139C39.229 13.7007 38.1755 13.9546 37.1194 14.2743L36.141 14.5858L35.2936 14.9345C35.0433 15.0487 34.7948 15.1773 34.5492 15.3196C34.3411 15.4368 34.1374 15.5725 33.9405 15.7251C33.7288 15.8968 33.5278 16.0893 33.3412 16.2994C33.2095 16.4658 33.104 16.6528 33.0321 16.8476L32.2027 19.8093C33.561 17.0299 42.7363 16.2919 52.478 15.5012Z" fill="url(#paint6_linear_25_32506)"/>
<path d="M30.5552 25.9609C30.7431 25.8143 30.9395 25.6893 31.1404 25.5885C31.3475 25.4792 31.5574 25.3888 31.7678 25.3184C32.0172 25.2199 32.2673 25.1364 32.5168 25.0683L33.4203 24.8222L34.4596 24.5965C35.4614 24.4035 36.585 24.2306 37.8442 24.078C39.1035 23.9255 40.4845 23.793 41.9497 23.6627C43.415 23.5324 44.9879 23.4218 46.6029 23.3123L51.6165 22.9881L53.2456 22.8789L54.9449 22.7716L56.6723 22.665L58.4043 22.5417L60.5203 22.3609L62.655 22.1133L64.8599 21.8169L67.0367 21.4692L70.3745 20.8653L71.6771 16.2135C65.0977 17.6682 58.5726 18.6241 52.1465 19.0746C40.1953 19.9256 32.827 20.6265 31.2535 22.962L30.3163 26.3087C30.3163 26.3087 30.3398 26.225 30.5552 25.9609Z" fill="url(#paint7_linear_25_32506)"/>
<defs>
<linearGradient id="paint0_linear_25_32506" x1="39.4368" y1="23.1977" x2="25.0818" y2="20.1034" gradientUnits="userSpaceOnUse">
<stop offset="0.38" stop-color="#0076C2"/>
<stop offset="0.51" stop-color="#0070BA"/>
<stop offset="0.71" stop-color="#005FA4"/>
<stop offset="0.96" stop-color="#00437F"/>
<stop offset="1" stop-color="#003D78"/>
</linearGradient>
<linearGradient id="paint1_linear_25_32506" x1="26.3726" y1="19.0802" x2="34.4893" y2="22.1545" gradientUnits="userSpaceOnUse">
<stop offset="0.04" stop-color="#FF5252"/>
<stop offset="0.32" stop-color="#FE4F4F"/>
<stop offset="0.52" stop-color="#FA4646"/>
<stop offset="0.68" stop-color="#F33737"/>
<stop offset="0.84" stop-color="#EA2121"/>
<stop offset="0.98" stop-color="#DE0505"/>
<stop offset="1" stop-color="#DC0000"/>
</linearGradient>
<linearGradient id="paint2_linear_25_32506" x1="34.3318" y1="33.3724" x2="23.5688" y2="26.7155" gradientUnits="userSpaceOnUse">
<stop offset="0.14" stop-color="white"/>
<stop offset="0.36" stop-color="#F0F0F0"/>
<stop offset="0.8" stop-color="#C7C7C7"/>
<stop offset="1" stop-color="#B3B3B3"/>
</linearGradient>
<linearGradient id="paint3_linear_25_32506" x1="41.0528" y1="34.6813" x2="33.0782" y2="26.674" gradientUnits="userSpaceOnUse">
<stop offset="0.14" stop-color="white"/>
<stop offset="0.36" stop-color="#F0F0F0"/>
<stop offset="0.8" stop-color="#C7C7C7"/>
<stop offset="1" stop-color="#B3B3B3"/>
</linearGradient>
<linearGradient id="paint4_linear_25_32506" x1="41.777" y1="0.259659" x2="1.96987" y2="22.9223" gradientUnits="userSpaceOnUse">
<stop stop-color="#ED1C24"/>
<stop offset="1" stop-color="#E89598"/>
</linearGradient>
<linearGradient id="paint5_linear_25_32506" x1="101.325" y1="11.1378" x2="35.1039" y2="0.0819721" gradientUnits="userSpaceOnUse">
<stop offset="0.38" stop-color="#0076C2"/>
<stop offset="0.51" stop-color="#0070BA"/>
<stop offset="0.71" stop-color="#005FA4"/>
<stop offset="0.96" stop-color="#00437F"/>
<stop offset="1" stop-color="#003D78"/>
</linearGradient>
<linearGradient id="paint6_linear_25_32506" x1="99.0606" y1="7.96601" x2="35.9273" y2="-2.5744" gradientUnits="userSpaceOnUse">
<stop offset="0.04" stop-color="#FF5252"/>
<stop offset="0.32" stop-color="#FE4F4F"/>
<stop offset="0.52" stop-color="#FA4646"/>
<stop offset="0.68" stop-color="#F33737"/>
<stop offset="0.84" stop-color="#EA2121"/>
<stop offset="0.98" stop-color="#DE0505"/>
<stop offset="1" stop-color="#DC0000"/>
</linearGradient>
<linearGradient id="paint7_linear_25_32506" x1="45.8193" y1="32.6628" x2="53.9178" y2="6.96528" gradientUnits="userSpaceOnUse">
<stop offset="0.14" stop-color="white"/>
<stop offset="0.36" stop-color="#F0F0F0"/>
<stop offset="0.8" stop-color="#C7C7C7"/>
<stop offset="1" stop-color="#B3B3B3"/>
</linearGradient>
</defs>
</svg>
