<svg width="79" height="58" viewBox="0 0 79 58" fill="none" xmlns="http://www.w3.org/2000/svg">
<rect x="10.4754" y="1.05155" width="54.5583" height="55.3898" rx="1.50278" stroke="#182D40" stroke-width="1.89691"/>
<path d="M37.8715 2V1.05155H36.923H11.9782C11.1482 1.05155 10.4754 1.72436 10.4754 2.55433V20.0157V20.9642H11.4238H36.923H37.8715V20.0157V2Z" stroke="#182D40" stroke-width="1.89691"/>
<path d="M37.8715 21.4014V20.4529H36.923H11.9782C11.1482 20.4529 10.4754 21.1257 10.4754 21.9557V39.4171V40.3655H11.4238H36.923H37.8715V39.4171V21.4014Z" stroke="#182D40" stroke-width="1.89691"/>
<path d="M37.6378 2V1.05155H38.5863H63.5311C64.3611 1.05155 65.0339 1.72436 65.0339 2.55433V20.0157V20.9642H64.0854H38.5863H37.6378V20.0157V2Z" stroke="#182D40" stroke-width="1.89691"/>
<path d="M37.6378 21.4014V20.4529H38.5863H63.5311C64.3611 20.4529 65.0339 21.1257 65.0339 21.9557V39.4171V40.3655H64.0854H38.5863H37.6378V39.4171V21.4014Z" stroke="#182D40" stroke-width="1.89691"/>
<path d="M20.5703 3.94043H27.4994" stroke="#182D40" stroke-width="1.89691" stroke-linecap="round"/>
<path d="M47.7329 3.94043H54.662" stroke="#182D40" stroke-width="1.89691" stroke-linecap="round"/>
<path d="M20.5703 23.3413H27.4994" stroke="#182D40" stroke-width="1.89691" stroke-linecap="round"/>
<path d="M47.7329 23.3413H54.662" stroke="#182D40" stroke-width="1.89691" stroke-linecap="round"/>
<rect x="1.05155" y="36.5286" width="74.7913" height="5.50005" rx="1.50278" fill="#F3E8E8" stroke="#182D40" stroke-width="1.89691"/>
<path d="M8.92969 42.0247H7.98123V42.9731V55.4456C7.98123 56.2755 8.65405 56.9484 9.48402 56.9484H66.0257C66.8556 56.9484 67.5285 56.2755 67.5285 55.4456V42.9731V42.0247H66.58H8.92969Z" fill="#F3E8E8" stroke="#182D40" stroke-width="1.89691"/>
<circle cx="12.1172" cy="30.1319" r="5.84209" fill="#F3E8E8" stroke="#182D40" stroke-width="1.89691"/>
<path d="M17.84 25.748L16.5638 25.9298L17.117 27.0941L17.4931 27.8856C18.6092 30.2343 17.9207 33.044 15.8451 34.6106L13.5855 36.3161H16.4165H68.0124H68.3507L68.6126 36.1021C72.5915 32.8506 70.0074 26.41 64.8845 26.8104L58.6592 27.2969C57.2216 27.4093 55.7751 27.3052 54.3684 26.9882L43.9697 24.6448C39.2628 23.584 34.402 23.3891 29.6253 24.0694L17.84 25.748Z" fill="#F3E8E8" stroke="#182D40" stroke-width="1.89691"/>
<path d="M28.0661 24.3587L27.2288 24.4575V25.3006C27.2288 29.0893 30.3001 32.1606 34.0888 32.1606H38.2309C41.7928 32.1606 44.6804 29.2731 44.6804 25.7111V24.9109L43.8915 24.7762L40.8826 24.2625C37.6306 23.7073 34.3157 23.6216 31.0394 24.008L28.0661 24.3587Z" fill="#F3E8E8" stroke="#182D40" stroke-width="1.89691"/>
</svg>
