<svg width="61" height="61" viewBox="0 0 61 61" fill="none" xmlns="http://www.w3.org/2000/svg">
<g clip-path="url(#clip0_418_35814)">
<g clip-path="url(#clip1_418_35814)">
<g clip-path="url(#clip2_418_35814)">
<path d="M7.15527 58.376C7.19043 56.208 7.19043 56.1611 7.53027 55.4932C7.95215 54.6611 8.69043 53.9697 9.56934 53.5596C10.1436 53.29 10.4248 53.2432 11.6201 53.208L12.9912 53.1611V52.7041C12.9912 52.458 12.4873 43.1885 11.8662 32.126C11.2568 21.0518 10.7646 11.5947 10.7998 11.1143C10.8467 10.0479 11.1396 9.34473 11.8428 8.58301C12.8975 7.43457 13.7295 7.12988 15.7803 7.12988H17.2334L18.6045 5.81738C20.9248 3.5791 23.5146 1.86816 25.6475 1.15332C27.9678 0.379883 32.2334 0.379883 34.5537 1.15332C36.6865 1.86816 39.2764 3.5791 41.5967 5.81738L42.9678 7.12988H44.4209C46.4717 7.12988 47.3037 7.43457 48.3584 8.58301C49.0615 9.34473 49.3545 10.0479 49.4014 11.1143C49.4365 11.5947 48.9443 21.0518 48.335 32.126C47.7139 43.1885 47.21 52.458 47.21 52.7041V53.1611L48.5928 53.208C49.7764 53.2432 50.0576 53.29 50.6318 53.5596C51.5107 53.9697 52.249 54.6611 52.6709 55.4932C53.0107 56.1611 53.0107 56.208 53.0459 58.376L53.0928 60.5674H7.1084L7.15527 58.376ZM50.374 57.6729C50.374 57.0986 50.1396 56.4775 49.8232 56.2314C49.5186 55.9971 49.4834 55.9971 30.1006 55.9971C10.7178 55.9971 10.6826 55.9971 10.3779 56.2314C10.0615 56.4775 9.82715 57.0986 9.82715 57.6729V57.9893H50.374V57.6729ZM44.3975 53.1611C44.3975 53.1377 44.9248 43.6924 45.5693 32.1494C46.6826 12.0049 46.7295 11.1611 46.5303 10.7744C46.1318 9.96582 45.8975 9.88379 43.7295 9.84863L41.7959 9.80176L40.1201 8.19629C39.2061 7.30566 38.0576 6.28613 37.5771 5.92285C34.4482 3.61426 31.4482 2.77051 28.3076 3.32129C25.4951 3.81348 23.1514 5.20801 20.1045 8.18457L18.4756 9.7666L16.5068 9.8252C14.3037 9.89551 14.0693 9.96582 13.6709 10.7744C13.4717 11.1611 13.5186 12.0049 14.6318 32.1494C15.2764 43.6924 15.8037 53.1377 15.8037 53.1611C15.8037 53.1729 22.2373 53.1846 30.1006 53.1846C37.9639 53.1846 44.3975 53.1729 44.3975 53.1611Z" fill="black"/>
<path d="M19.917 29.3605C18.9326 28.8566 18.9326 27.4738 19.917 26.9699C20.1396 26.8527 22.4131 26.8293 30.2412 26.8527L40.2725 26.8761L40.5771 27.1574C41.1982 27.7433 41.1748 28.6457 40.5303 29.2199C40.2725 29.4543 40.085 29.4543 30.2295 29.4777C22.4131 29.5011 20.1396 29.4777 19.917 29.3605ZM20.0811 21.0285C19.0264 20.5597 18.8389 19.3761 19.6943 18.7199L20.0811 18.4386L29.8662 18.4035C36.5928 18.38 39.792 18.4035 40.085 18.4972C41.292 18.8488 41.3389 20.3839 40.167 20.9816C39.792 21.1808 39.0771 21.1925 30.1006 21.1925C22.3076 21.1808 20.3623 21.1574 20.0811 21.0285Z" fill="black"/>
</g>
</g>
</g>
<defs>
<clipPath id="clip0_418_35814">
<rect width="60" height="60" fill="white" transform="translate(0.100586 0.567383)"/>
</clipPath>
<clipPath id="clip1_418_35814">
<rect width="60" height="60" fill="white" transform="translate(0.100586 0.567383)"/>
</clipPath>
<clipPath id="clip2_418_35814">
<rect width="60" height="60" fill="white" transform="translate(0.100586 0.567383)"/>
</clipPath>
</defs>
</svg>
