<svg width="51" height="62" viewBox="0 0 51 62" fill="none" xmlns="http://www.w3.org/2000/svg">
<g clip-path="url(#clip0_418_35825)">
<g clip-path="url(#clip1_418_35825)">
<g clip-path="url(#clip2_418_35825)">
<path fill-rule="evenodd" clip-rule="evenodd" d="M34.8468 59.5709H48.1347V46.1514C46.9506 46.8093 35.373 58.5184 34.8468 59.5709ZM23.1377 16.155C14.586 19.0494 18.6645 31.9426 27.3477 29.1798C30.6368 28.1273 33.1365 24.4435 31.8208 20.3651C30.8999 17.6022 27.3477 14.7078 23.1377 16.155ZM22.4798 59.5709C33.7943 59.5709 29.3211 61.2812 39.7146 51.0193C41.0302 49.7036 47.74 43.2571 48.2662 42.073V33.7845C47.0821 34.3108 23.0061 58.3868 22.4798 59.5709ZM2.48224 59.3078C4.32412 59.834 16.1648 59.5709 18.7961 59.4393L37.6096 40.7574C36.8202 36.6789 33.6627 32.0742 30.5052 30.4954C29.3211 30.3639 26.953 33.2583 21.4273 30.8901C21.2958 30.8901 21.2958 30.7586 21.1642 30.7586L20.3748 30.4954C17.7436 31.5479 15.507 34.5739 14.3229 37.2051C12.481 41.152 12.8757 43.5202 12.0863 47.7302L9.98134 47.5986C9.32352 41.6783 12.0863 33.6529 17.0857 29.5745L18.1383 28.6535C16.5595 25.6276 14.7176 22.8648 16.9542 18.3916C21.2958 9.44532 36.0308 12.866 34.3205 24.1804C34.0574 26.2854 33.0049 27.0748 32.2155 28.6535C34.8468 31.1532 36.6887 31.8111 38.6621 37.0736C38.7937 37.3367 38.7937 37.4683 38.9252 37.7314C39.4515 38.7839 39.0568 37.9945 39.4515 38.5208L43.7931 34.3108C44.4509 33.6529 47.8715 30.4954 48.0031 29.706V2.7356H2.35067L2.48224 59.3078ZM0.508789 61.8075H50.5028V0.630587L26.4267 0.499023H18.2698L0.508789 0.630587V61.8075Z" fill="black"/>
</g>
</g>
</g>
<defs>
<clipPath id="clip0_418_35825">
<rect width="50" height="61.44" fill="white" transform="translate(0.505859 0.499023)"/>
</clipPath>
<clipPath id="clip1_418_35825">
<rect width="50" height="61.44" fill="white" transform="translate(0.505859 0.499023)"/>
</clipPath>
<clipPath id="clip2_418_35825">
<rect width="49.994" height="61.44" fill="white" transform="translate(0.508789 0.499023)"/>
</clipPath>
</defs>
</svg>
