<svg width="209" height="128" viewBox="0 0 209 128" fill="none" xmlns="http://www.w3.org/2000/svg">
<g clip-path="url(#clip0_464_39022)">
<rect x="0.288086" y="0.500122" width="207.967" height="127" rx="9.08042" fill="#BBBBBB"/>
<rect x="-4.18848" y="-4.86023" width="216.921" height="47.6722" fill="#CC0029"/>
<path d="M13.2556 17.2994V22.7094L18.262 17.2994H20.4897L16.1973 21.9099L20.8079 28.4299H18.6579L15.002 23.1829L13.2556 25.0923V28.4299H11.5092V17.2994H13.2556ZM21.2891 28.4299L25.8997 17.2994H27.6461L32.2567 28.4299H30.4327L29.2373 25.4882H24.3085L23.1132 28.4299H21.2891ZM26.7768 19.2864L24.945 23.897H28.6008L26.7768 19.2864ZM34.1739 17.2994H38.6215C39.6822 17.2994 40.5697 17.6487 41.2838 18.3472C42.0031 19.0406 42.3627 19.8867 42.3627 20.8854C42.3627 21.8789 42.0031 22.7224 41.2838 23.4157C40.5697 24.1091 39.6822 24.4558 38.6215 24.4558H35.9203V28.4299H34.1739V17.2994ZM38.6215 18.8906H35.9203V22.8647H38.6215C39.17 22.8647 39.6383 22.6758 40.0264 22.298C40.4145 21.9151 40.6085 21.4442 40.6085 20.8854C40.6085 20.3213 40.4145 19.8479 40.0264 19.4649C39.6383 19.082 39.17 18.8906 38.6215 18.8906ZM43.6279 17.2994H52.0495V18.8906H48.7119V28.4299H46.9655V18.8906H43.6279V17.2994ZM51.7313 28.4299L56.3419 17.2994H58.0883L62.6989 28.4299H60.8748L59.6795 25.4882H54.7507L53.5553 28.4299H51.7313ZM57.219 19.2864L55.3871 23.897H59.043L57.219 19.2864ZM73.5966 22.7094L77.8889 17.2994H79.4025V28.4299H77.656V20.3265L73.5966 25.4106L69.5448 20.3265V28.4299H67.7984V17.2994H69.3042L73.5966 22.7094ZM84.8823 19.9384C84.0855 20.7353 83.687 21.7107 83.687 22.8647C83.687 24.0186 84.0855 24.9966 84.8823 25.7986C85.6844 26.6007 86.6624 27.0017 87.8163 27.0017C88.9755 27.0017 89.9535 26.6007 90.7503 25.7986C91.5524 24.9966 91.9534 24.0186 91.9534 22.8647C91.9534 21.7107 91.5524 20.7353 90.7503 19.9384C89.9535 19.1364 88.9755 18.7353 87.8163 18.7353C86.6624 18.7353 85.6844 19.1364 84.8823 19.9384ZM83.6327 26.9241C82.5046 25.8168 81.9406 24.4636 81.9406 22.8647C81.9406 21.2657 82.5046 19.9125 83.6327 18.8052C84.7607 17.6978 86.1553 17.1441 87.8163 17.1441C89.4826 17.1441 90.8797 17.6978 92.0078 18.8052C93.1358 19.9125 93.6999 21.2657 93.6999 22.8647C93.6999 24.4636 93.1358 25.8168 92.0078 26.9241C90.8797 28.0315 89.4826 28.5852 87.8163 28.5852C86.1553 28.5852 84.7607 28.0315 83.6327 26.9241ZM101.501 17.1441C102.065 17.1441 102.605 17.2192 103.123 17.3692C103.64 17.5141 104.067 17.6926 104.404 17.9048C104.745 18.117 105.043 18.3265 105.296 18.5335C105.55 18.7405 105.736 18.919 105.855 19.0691L106.026 19.2864L104.916 20.4041C104.885 20.3627 104.838 20.3058 104.776 20.2334C104.719 20.1558 104.585 20.0186 104.372 19.822C104.16 19.6254 103.933 19.4572 103.689 19.3175C103.446 19.1726 103.128 19.0406 102.735 18.9216C102.347 18.7974 101.935 18.7353 101.501 18.7353C100.347 18.7353 99.3686 19.1364 98.5666 19.9384C97.7645 20.7353 97.3635 21.7107 97.3635 22.8647C97.3635 24.0186 97.7619 24.9966 98.5588 25.7986C99.3609 26.6007 100.341 27.0017 101.501 27.0017C101.935 27.0017 102.349 26.9422 102.742 26.8232C103.141 26.699 103.47 26.5516 103.728 26.3808C103.992 26.21 104.222 26.0419 104.419 25.8763C104.621 25.7055 104.771 25.5606 104.869 25.4416L104.993 25.2476L106.111 26.3653C106.07 26.4274 106.005 26.5102 105.917 26.6136C105.834 26.712 105.645 26.8879 105.35 27.1415C105.061 27.395 104.75 27.6201 104.419 27.8167C104.093 28.0134 103.664 28.1919 103.131 28.3523C102.603 28.5076 102.059 28.5852 101.501 28.5852C99.8343 28.5852 98.4372 28.0315 97.3091 26.9241C96.1811 25.8168 95.6171 24.4636 95.6171 22.8647C95.6171 21.2657 96.1811 19.9125 97.3091 18.8052C98.4372 17.6978 99.8343 17.1441 101.501 17.1441ZM110.077 17.2994V22.7094L115.084 17.2994H117.312L113.019 21.9099L117.63 28.4299H115.48L111.824 23.1829L110.077 25.0923V28.4299H108.331V17.2994H110.077ZM124.15 28.4299H119.384V17.2994H123.909C124.81 17.2994 125.578 17.5969 126.214 18.192C126.851 18.7871 127.169 19.4701 127.169 20.2411C127.169 20.6861 127.076 21.0949 126.89 21.4675C126.709 21.8401 126.528 22.0988 126.346 22.2437L126.059 22.4688C126.101 22.4895 126.158 22.5257 126.23 22.5775C126.308 22.624 126.445 22.7301 126.641 22.8957C126.838 23.0561 127.006 23.2346 127.146 23.4313C127.291 23.6279 127.423 23.884 127.542 24.1997C127.666 24.5102 127.728 24.8336 127.728 25.1699C127.728 26.06 127.386 26.8258 126.703 27.4675C126.02 28.1091 125.169 28.4299 124.15 28.4299ZM121.13 26.9164H124.15C124.667 26.9164 125.102 26.743 125.454 26.3963C125.806 26.0444 125.982 25.6098 125.982 25.0923C125.982 24.5749 125.806 24.1402 125.454 23.7883C125.107 23.4364 124.672 23.2605 124.15 23.2605H121.13V26.9164ZM123.909 18.8129H121.13V21.8323H123.909C124.344 21.8323 124.703 21.69 124.988 21.4054C125.278 21.1156 125.423 20.756 125.423 20.3265C125.423 19.8918 125.278 19.5322 124.988 19.2476C124.703 18.9578 124.344 18.8129 123.909 18.8129ZM139.72 28.4299H137.974V20.4041L131.772 28.4299H130.266V17.2994H132.013V25.3329L138.214 17.2994H139.72V28.4299ZM144.494 17.2994V20.637C144.494 21.4339 144.698 22.0445 145.107 22.4688C145.521 22.8931 146.111 23.1053 146.877 23.1053C147.342 23.1053 147.787 23.0173 148.212 22.8414C148.636 22.6654 148.944 22.4947 149.135 22.3291L149.415 22.0729V17.2994H151.169V28.4299H149.415V23.897C149.332 23.9591 149.213 24.0341 149.058 24.1221C148.908 24.2049 148.582 24.3213 148.08 24.4714C147.583 24.6214 147.076 24.6965 146.558 24.6965C145.363 24.6965 144.426 24.3472 143.749 23.6486C143.076 22.9449 142.74 21.941 142.74 20.637V17.2994H144.494ZM153.071 28.4299L157.681 17.2994H159.428L164.038 28.4299H162.214L161.019 25.4882H156.09L154.895 28.4299H153.071ZM158.558 19.2864L156.726 23.897H160.382L158.558 19.2864Z" fill="white"/>
<path d="M72.5931 100.573C34.2394 117.338 9.72644 120.06 -4.81603 118.959L-4.81227 122.67C-4.81193 123.546 -4.63862 124.414 -4.30228 125.224C-3.96593 126.033 -3.47317 126.768 -2.85222 127.387C-2.23126 128.006 -1.49432 128.496 -0.683616 128.829C0.127086 129.163 0.995605 129.333 1.8722 129.33L205.801 129.048C206.678 129.047 207.546 128.874 208.355 128.538C209.165 128.201 209.9 127.709 210.519 127.088C211.138 126.467 211.628 125.73 211.961 124.919C212.295 124.108 212.465 123.24 212.462 122.363L212.374 55.7542C154.06 53.1627 136.255 72.7433 72.5931 100.573Z" fill="#CC0029" stroke="#263238" stroke-width="0.0180677" stroke-linecap="round" stroke-linejoin="round"/>
<path d="M32.8563 53.2421L16.2164 53.2314C14.673 53.2304 13.4211 54.4808 13.4201 56.0242L13.4098 71.9267C13.4088 73.4701 14.6592 74.7221 16.2026 74.7231L32.8425 74.7338C34.3858 74.7348 35.6378 73.4845 35.6388 71.9411L35.6491 56.0385C35.6501 54.4951 34.3997 53.2431 32.8563 53.2421Z" fill="white" stroke="#263238" stroke-width="0.252234" stroke-linecap="round" stroke-linejoin="round"/>
<path d="M26.6064 60.648L22.4465 60.6453C21.6924 60.6448 21.0807 61.2557 21.0802 62.0098L21.0776 65.9422C21.0772 66.6963 21.6881 67.3081 22.4422 67.3085L26.6021 67.3112C27.3562 67.3117 27.968 66.7008 27.9684 65.9467L27.971 62.0143C27.9715 61.2602 27.3605 60.6485 26.6064 60.648Z" fill="white" stroke="#263238" stroke-width="0.252234" stroke-linecap="round" stroke-linejoin="round"/>
<path d="M13.4109 55.6362L19.9237 55.642C20.2257 55.6419 20.5248 55.7015 20.8037 55.8173C21.0827 55.9331 21.336 56.1029 21.5492 56.3168C21.7623 56.5308 21.9312 56.7847 22.0459 57.064C22.1607 57.3434 22.2192 57.6427 22.2181 57.9447L22.2218 60.6816" stroke="#263238" stroke-width="0.252234" stroke-linecap="round" stroke-linejoin="round"/>
<path d="M35.6407 55.6559L29.2102 55.6463C28.601 55.6464 28.0166 55.8879 27.585 56.3179C27.1534 56.7479 26.9098 57.3314 26.9075 57.9407L26.9112 60.6776" stroke="#263238" stroke-width="0.252234" stroke-linecap="round" stroke-linejoin="round"/>
<path d="M13.5566 72.5036L19.9552 72.5019C20.2512 72.5015 20.5444 72.4418 20.818 72.3261C21.0916 72.2105 21.3402 72.0411 21.5497 71.8278C21.7592 71.6144 21.9255 71.3613 22.039 71.0828C22.1525 70.8042 22.211 70.5058 22.2112 70.2045L22.2196 67.4684" stroke="#263238" stroke-width="0.252234" stroke-linecap="round" stroke-linejoin="round"/>
<path d="M35.4551 72.5015L29.1974 72.5033C28.9013 72.505 28.6079 72.447 28.3342 72.3327C28.0604 72.2184 27.8116 72.0499 27.6021 71.8371C27.3925 71.6242 27.2264 71.3711 27.1132 71.0922C26.9999 70.8134 26.9419 70.5144 26.9423 70.2123L26.9512 67.4762" stroke="#263238" stroke-width="0.252234" stroke-linecap="round" stroke-linejoin="round"/>
<path d="M13.4435 64.4959L21.0693 64.5014" stroke="#263238" stroke-width="0.252234" stroke-linecap="round" stroke-linejoin="round"/>
<path d="M28.0266 64.5103L35.6614 64.5164" stroke="#263238" stroke-width="0.252234" stroke-linecap="round" stroke-linejoin="round"/>
<path d="M194.024 96.8535H162.224C160.029 96.8535 158.249 98.6332 158.249 100.828V112.753C158.249 114.949 160.029 116.728 162.224 116.728H194.024C196.219 116.728 197.999 114.949 197.999 112.753V100.828C197.999 98.6332 196.219 96.8535 194.024 96.8535Z" fill="#F6F6F6"/>
<path fill-rule="evenodd" clip-rule="evenodd" d="M166.19 102.815C166.451 102.813 167.227 102.743 167.556 103.853C167.778 104.601 168.13 105.825 168.615 107.527H168.812C169.331 105.733 169.688 104.508 169.882 103.853C170.214 102.732 171.044 102.815 171.377 102.815L173.94 102.815V110.788H171.327V106.09H171.152L169.696 110.788H167.73L166.274 106.086H166.099V110.788H163.486V102.815L166.19 102.815ZM177.691 102.815V107.517H177.9L179.671 103.651C180.015 102.881 180.748 102.815 180.748 102.815H183.276V110.788H180.609V106.086H180.401L178.664 109.953C178.32 110.719 177.552 110.788 177.552 110.788H175.024V102.815H177.691ZM192.495 106.604C192.123 107.658 190.954 108.413 189.661 108.413H186.864V110.788H184.328V106.604H192.495Z" fill="#0F754E"/>
<path fill-rule="evenodd" clip-rule="evenodd" d="M189.784 102.815H184.195C184.328 104.59 185.857 106.11 187.44 106.11H192.671C192.973 104.635 191.934 102.815 189.784 102.815Z" fill="url(#paint0_linear_464_39022)"/>
<path d="M19.5318 86.8775C19.5318 87.592 19.4784 88.2285 19.3716 88.7869C19.2648 89.3454 19.0924 89.8217 18.8542 90.216C18.6242 90.602 18.3204 90.8976 17.9426 91.1029C17.573 91.3083 17.1254 91.4109 16.5998 91.4109C15.9428 91.4109 15.3966 91.2302 14.9614 90.8689C14.5343 90.5075 14.214 89.9901 14.0005 89.3167C13.7952 88.635 13.6925 87.8219 13.6925 86.8775C13.6925 85.9248 13.7869 85.1117 13.9758 84.4383C14.1729 83.7649 14.485 83.2516 14.9121 82.8984C15.3392 82.5371 15.9017 82.3564 16.5998 82.3564C17.2568 82.3564 17.803 82.5371 18.2383 82.8984C18.6735 83.2516 18.9979 83.7649 19.2115 84.4383C19.425 85.1117 19.5318 85.9248 19.5318 86.8775ZM14.7766 86.8775C14.7766 87.6823 14.8341 88.3517 14.9491 88.8855C15.0722 89.4193 15.2652 89.8217 15.528 90.0928C15.7991 90.3556 16.1563 90.487 16.5998 90.487C17.0433 90.487 17.3964 90.3556 17.6593 90.0928C17.9303 89.83 18.1274 89.4316 18.2506 88.8978C18.3738 88.3558 18.4354 87.6823 18.4354 86.8775C18.4354 86.0726 18.3738 85.4074 18.2506 84.8818C18.1274 84.348 17.9303 83.9496 17.6593 83.6868C17.3964 83.4158 17.0433 83.2803 16.5998 83.2803C16.1563 83.2803 15.7991 83.4158 15.528 83.6868C15.2652 83.9496 15.0722 84.348 14.9491 84.8818C14.8341 85.4074 14.7766 86.0726 14.7766 86.8775ZM29.0454 86.8775C29.0454 87.592 28.992 88.2285 28.8852 88.7869C28.7785 89.3454 28.606 89.8217 28.3678 90.216C28.1379 90.602 27.834 90.8976 27.4562 91.1029C27.0866 91.3083 26.639 91.4109 26.1134 91.4109C25.4564 91.4109 24.9103 91.2302 24.475 90.8689C24.0479 90.5075 23.7276 89.9901 23.5141 89.3167C23.3088 88.635 23.2061 87.8219 23.2061 86.8775C23.2061 85.9248 23.3006 85.1117 23.4895 84.4383C23.6866 83.7649 23.9986 83.2516 24.4257 82.8984C24.8528 82.5371 25.4153 82.3564 26.1134 82.3564C26.7704 82.3564 27.3166 82.5371 27.7519 82.8984C28.1871 83.2516 28.5115 83.7649 28.7251 84.4383C28.9386 85.1117 29.0454 85.9248 29.0454 86.8775ZM24.2902 86.8775C24.2902 87.6823 24.3477 88.3517 24.4627 88.8855C24.5859 89.4193 24.7789 89.8217 25.0417 90.0928C25.3127 90.3556 25.6699 90.487 26.1134 90.487C26.5569 90.487 26.9101 90.3556 27.1729 90.0928C27.4439 89.83 27.641 89.4316 27.7642 88.8978C27.8874 88.3558 27.949 87.6823 27.949 86.8775C27.949 86.0726 27.8874 85.4074 27.7642 84.8818C27.641 84.348 27.4439 83.9496 27.1729 83.6868C26.9101 83.4158 26.5569 83.2803 26.1134 83.2803C25.6699 83.2803 25.3127 83.4158 25.0417 83.6868C24.7789 83.9496 24.5859 84.348 24.4627 84.8818C24.3477 85.4074 24.2902 86.0726 24.2902 86.8775ZM38.559 86.8775C38.559 87.592 38.5056 88.2285 38.3988 88.7869C38.2921 89.3454 38.1196 89.8217 37.8814 90.216C37.6515 90.602 37.3476 90.8976 36.9698 91.1029C36.6003 91.3083 36.1527 91.4109 35.627 91.4109C34.97 91.4109 34.4239 91.2302 33.9886 90.8689C33.5615 90.5075 33.2412 89.9901 33.0277 89.3167C32.8224 88.635 32.7197 87.8219 32.7197 86.8775C32.7197 85.9248 32.8142 85.1117 33.0031 84.4383C33.2002 83.7649 33.5123 83.2516 33.9393 82.8984C34.3664 82.5371 34.929 82.3564 35.627 82.3564C36.2841 82.3564 36.8302 82.5371 37.2655 82.8984C37.7008 83.2516 38.0252 83.7649 38.2387 84.4383C38.4522 85.1117 38.559 85.9248 38.559 86.8775ZM33.8038 86.8775C33.8038 87.6823 33.8613 88.3517 33.9763 88.8855C34.0995 89.4193 34.2925 89.8217 34.5553 90.0928C34.8263 90.3556 35.1836 90.487 35.627 90.487C36.0705 90.487 36.4237 90.3556 36.6865 90.0928C36.9575 89.83 37.1546 89.4316 37.2778 88.8978C37.401 88.3558 37.4626 87.6823 37.4626 86.8775C37.4626 86.0726 37.401 85.4074 37.2778 84.8818C37.1546 84.348 36.9575 83.9496 36.6865 83.6868C36.4237 83.4158 36.0705 83.2803 35.627 83.2803C35.1836 83.2803 34.8263 83.4158 34.5553 83.6868C34.2925 83.9496 34.0995 84.348 33.9763 84.8818C33.8613 85.4074 33.8038 86.0726 33.8038 86.8775ZM48.0726 86.8775C48.0726 87.592 48.0192 88.2285 47.9125 88.7869C47.8057 89.3454 47.6332 89.8217 47.3951 90.216C47.1651 90.602 46.8612 90.8976 46.4834 91.1029C46.1139 91.3083 45.6663 91.4109 45.1407 91.4109C44.4836 91.4109 43.9375 91.2302 43.5022 90.8689C43.0752 90.5075 42.7549 89.9901 42.5413 89.3167C42.336 88.635 42.2334 87.8219 42.2334 86.8775C42.2334 85.9248 42.3278 85.1117 42.5167 84.4383C42.7138 83.7649 43.0259 83.2516 43.4529 82.8984C43.88 82.5371 44.4426 82.3564 45.1407 82.3564C45.7977 82.3564 46.3438 82.5371 46.7791 82.8984C47.2144 83.2516 47.5388 83.7649 47.7523 84.4383C47.9658 85.1117 48.0726 85.9248 48.0726 86.8775ZM43.3174 86.8775C43.3174 87.6823 43.3749 88.3517 43.4899 88.8855C43.6131 89.4193 43.8061 89.8217 44.0689 90.0928C44.3399 90.3556 44.6972 90.487 45.1407 90.487C45.5842 90.487 45.9373 90.3556 46.2001 90.0928C46.4711 89.83 46.6682 89.4316 46.7914 88.8978C46.9146 88.3558 46.9762 87.6823 46.9762 86.8775C46.9762 86.0726 46.9146 85.4074 46.7914 84.8818C46.6682 84.348 46.4711 83.9496 46.2001 83.6868C45.9373 83.4158 45.5842 83.2803 45.1407 83.2803C44.6972 83.2803 44.3399 83.4158 44.0689 83.6868C43.8061 83.9496 43.6131 84.348 43.4899 84.8818C43.3749 85.4074 43.3174 86.0726 43.3174 86.8775ZM68.914 86.8775C68.914 87.592 68.8606 88.2285 68.7539 88.7869C68.6471 89.3454 68.4746 89.8217 68.2365 90.216C68.0065 90.602 67.7026 90.8976 67.3249 91.1029C66.9553 91.3083 66.5077 91.4109 65.9821 91.4109C65.3251 91.4109 64.7789 91.2302 64.3436 90.8689C63.9166 90.5075 63.5963 89.9901 63.3827 89.3167C63.1774 88.635 63.0748 87.8219 63.0748 86.8775C63.0748 85.9248 63.1692 85.1117 63.3581 84.4383C63.5552 83.7649 63.8673 83.2516 64.2944 82.8984C64.7214 82.5371 65.284 82.3564 65.9821 82.3564C66.6391 82.3564 67.1852 82.5371 67.6205 82.8984C68.0558 83.2516 68.3802 83.7649 68.5937 84.4383C68.8073 85.1117 68.914 85.9248 68.914 86.8775ZM64.1589 86.8775C64.1589 87.6823 64.2163 88.3517 64.3313 88.8855C64.4545 89.4193 64.6475 89.8217 64.9103 90.0928C65.1813 90.3556 65.5386 90.487 65.9821 90.487C66.4256 90.487 66.7787 90.3556 67.0415 90.0928C67.3125 89.83 67.5096 89.4316 67.6328 88.8978C67.756 88.3558 67.8176 87.6823 67.8176 86.8775C67.8176 86.0726 67.756 85.4074 67.6328 84.8818C67.5096 84.348 67.3125 83.9496 67.0415 83.6868C66.7787 83.4158 66.4256 83.2803 65.9821 83.2803C65.5386 83.2803 65.1813 83.4158 64.9103 83.6868C64.6475 83.9496 64.4545 84.348 64.3313 84.8818C64.2163 85.4074 64.1589 86.0726 64.1589 86.8775ZM78.4276 86.8775C78.4276 87.592 78.3743 88.2285 78.2675 88.7869C78.1607 89.3454 77.9883 89.8217 77.7501 90.216C77.5201 90.602 77.2163 90.8976 76.8385 91.1029C76.4689 91.3083 76.0213 91.4109 75.4957 91.4109C74.8387 91.4109 74.2925 91.2302 73.8573 90.8689C73.4302 90.5075 73.1099 89.9901 72.8964 89.3167C72.691 88.635 72.5884 87.8219 72.5884 86.8775C72.5884 85.9248 72.6828 85.1117 72.8717 84.4383C73.0688 83.7649 73.3809 83.2516 73.808 82.8984C74.235 82.5371 74.7976 82.3564 75.4957 82.3564C76.1527 82.3564 76.6989 82.5371 77.1341 82.8984C77.5694 83.2516 77.8938 83.7649 78.1073 84.4383C78.3209 85.1117 78.4276 85.9248 78.4276 86.8775ZM73.6725 86.8775C73.6725 87.6823 73.73 88.3517 73.8449 88.8855C73.9681 89.4193 74.1611 89.8217 74.4239 90.0928C74.695 90.3556 75.0522 90.487 75.4957 90.487C75.9392 90.487 76.2923 90.3556 76.5551 90.0928C76.8262 89.83 77.0233 89.4316 77.1465 88.8978C77.2696 88.3558 77.3312 87.6823 77.3312 86.8775C77.3312 86.0726 77.2696 85.4074 77.1465 84.8818C77.0233 84.348 76.8262 83.9496 76.5551 83.6868C76.2923 83.4158 75.9392 83.2803 75.4957 83.2803C75.0522 83.2803 74.695 83.4158 74.4239 83.6868C74.1611 83.9496 73.9681 84.348 73.8449 84.8818C73.73 85.4074 73.6725 86.0726 73.6725 86.8775ZM87.9413 86.8775C87.9413 87.592 87.8879 88.2285 87.7811 88.7869C87.6743 89.3454 87.5019 89.8217 87.2637 90.216C87.0338 90.602 86.7299 90.8976 86.3521 91.1029C85.9825 91.3083 85.5349 91.4109 85.0093 91.4109C84.3523 91.4109 83.8061 91.2302 83.3709 90.8689C82.9438 90.5075 82.6235 89.9901 82.41 89.3167C82.2047 88.635 82.102 87.8219 82.102 86.8775C82.102 85.9248 82.1964 85.1117 82.3853 84.4383C82.5824 83.7649 82.8945 83.2516 83.3216 82.8984C83.7487 82.5371 84.3112 82.3564 85.0093 82.3564C85.6663 82.3564 86.2125 82.5371 86.6478 82.8984C87.083 83.2516 87.4074 83.7649 87.621 84.4383C87.8345 85.1117 87.9413 85.9248 87.9413 86.8775ZM83.1861 86.8775C83.1861 87.6823 83.2436 88.3517 83.3586 88.8855C83.4817 89.4193 83.6747 89.8217 83.9375 90.0928C84.2086 90.3556 84.5658 90.487 85.0093 90.487C85.4528 90.487 85.8059 90.3556 86.0688 90.0928C86.3398 89.83 86.5369 89.4316 86.6601 88.8978C86.7833 88.3558 86.8449 87.6823 86.8449 86.8775C86.8449 86.0726 86.7833 85.4074 86.6601 84.8818C86.5369 84.348 86.3398 83.9496 86.0688 83.6868C85.8059 83.4158 85.4528 83.2803 85.0093 83.2803C84.5658 83.2803 84.2086 83.4158 83.9375 83.6868C83.6747 83.9496 83.4817 84.348 83.3586 84.8818C83.2436 85.4074 83.1861 86.0726 83.1861 86.8775ZM97.4549 86.8775C97.4549 87.592 97.4015 88.2285 97.2947 88.7869C97.188 89.3454 97.0155 89.8217 96.7773 90.216C96.5474 90.602 96.2435 90.8976 95.8657 91.1029C95.4961 91.3083 95.0485 91.4109 94.5229 91.4109C93.8659 91.4109 93.3198 91.2302 92.8845 90.8689C92.4574 90.5075 92.1371 89.9901 91.9236 89.3167C91.7183 88.635 91.6156 87.8219 91.6156 86.8775C91.6156 85.9248 91.7101 85.1117 91.899 84.4383C92.0961 83.7649 92.4082 83.2516 92.8352 82.8984C93.2623 82.5371 93.8248 82.3564 94.5229 82.3564C95.1799 82.3564 95.7261 82.5371 96.1614 82.8984C96.5966 83.2516 96.921 83.7649 97.1346 84.4383C97.3481 85.1117 97.4549 85.9248 97.4549 86.8775ZM92.6997 86.8775C92.6997 87.6823 92.7572 88.3517 92.8722 88.8855C92.9954 89.4193 93.1884 89.8217 93.4512 90.0928C93.7222 90.3556 94.0794 90.487 94.5229 90.487C94.9664 90.487 95.3196 90.3556 95.5824 90.0928C95.8534 89.83 96.0505 89.4316 96.1737 88.8978C96.2969 88.3558 96.3585 87.6823 96.3585 86.8775C96.3585 86.0726 96.2969 85.4074 96.1737 84.8818C96.0505 84.348 95.8534 83.9496 95.5824 83.6868C95.3196 83.4158 94.9664 83.2803 94.5229 83.2803C94.0794 83.2803 93.7222 83.4158 93.4512 83.6868C93.1884 83.9496 92.9954 84.348 92.8722 84.8818C92.7572 85.4074 92.6997 86.0726 92.6997 86.8775ZM118.296 86.8775C118.296 87.592 118.243 88.2285 118.136 88.7869C118.029 89.3454 117.857 89.8217 117.619 90.216C117.389 90.602 117.085 90.8976 116.707 91.1029C116.338 91.3083 115.89 91.4109 115.364 91.4109C114.707 91.4109 114.161 91.2302 113.726 90.8689C113.299 90.5075 112.979 89.9901 112.765 89.3167C112.56 88.635 112.457 87.8219 112.457 86.8775C112.457 85.9248 112.551 85.1117 112.74 84.4383C112.937 83.7649 113.25 83.2516 113.677 82.8984C114.104 82.5371 114.666 82.3564 115.364 82.3564C116.021 82.3564 116.568 82.5371 117.003 82.8984C117.438 83.2516 117.762 83.7649 117.976 84.4383C118.19 85.1117 118.296 85.9248 118.296 86.8775ZM113.541 86.8775C113.541 87.6823 113.599 88.3517 113.714 88.8855C113.837 89.4193 114.03 89.8217 114.293 90.0928C114.564 90.3556 114.921 90.487 115.364 90.487C115.808 90.487 116.161 90.3556 116.424 90.0928C116.695 89.83 116.892 89.4316 117.015 88.8978C117.138 88.3558 117.2 87.6823 117.2 86.8775C117.2 86.0726 117.138 85.4074 117.015 84.8818C116.892 84.348 116.695 83.9496 116.424 83.6868C116.161 83.4158 115.808 83.2803 115.364 83.2803C114.921 83.2803 114.564 83.4158 114.293 83.6868C114.03 83.9496 113.837 84.348 113.714 84.8818C113.599 85.4074 113.541 86.0726 113.541 86.8775ZM127.81 86.8775C127.81 87.592 127.757 88.2285 127.65 88.7869C127.543 89.3454 127.371 89.8217 127.132 90.216C126.902 90.602 126.599 90.8976 126.221 91.1029C125.851 91.3083 125.404 91.4109 124.878 91.4109C124.221 91.4109 123.675 91.2302 123.24 90.8689C122.812 90.5075 122.492 89.9901 122.279 89.3167C122.073 88.635 121.971 87.8219 121.971 86.8775C121.971 85.9248 122.065 85.1117 122.254 84.4383C122.451 83.7649 122.763 83.2516 123.19 82.8984C123.617 82.5371 124.18 82.3564 124.878 82.3564C125.535 82.3564 126.081 82.5371 126.516 82.8984C126.952 83.2516 127.276 83.7649 127.49 84.4383C127.703 85.1117 127.81 85.9248 127.81 86.8775ZM123.055 86.8775C123.055 87.6823 123.112 88.3517 123.227 88.8855C123.35 89.4193 123.543 89.8217 123.806 90.0928C124.077 90.3556 124.434 90.487 124.878 90.487C125.321 90.487 125.675 90.3556 125.937 90.0928C126.208 89.83 126.406 89.4316 126.529 88.8978C126.652 88.3558 126.714 87.6823 126.714 86.8775C126.714 86.0726 126.652 85.4074 126.529 84.8818C126.406 84.348 126.208 83.9496 125.937 83.6868C125.675 83.4158 125.321 83.2803 124.878 83.2803C124.434 83.2803 124.077 83.4158 123.806 83.6868C123.543 83.9496 123.35 84.348 123.227 84.8818C123.112 85.4074 123.055 86.0726 123.055 86.8775ZM137.324 86.8775C137.324 87.592 137.27 88.2285 137.163 88.7869C137.057 89.3454 136.884 89.8217 136.646 90.216C136.416 90.602 136.112 90.8976 135.734 91.1029C135.365 91.3083 134.917 91.4109 134.392 91.4109C133.735 91.4109 133.188 91.2302 132.753 90.8689C132.326 90.5075 132.006 89.9901 131.792 89.3167C131.587 88.635 131.484 87.8219 131.484 86.8775C131.484 85.9248 131.579 85.1117 131.768 84.4383C131.965 83.7649 132.277 83.2516 132.704 82.8984C133.131 82.5371 133.693 82.3564 134.392 82.3564C135.049 82.3564 135.595 82.5371 136.03 82.8984C136.465 83.2516 136.79 83.7649 137.003 84.4383C137.217 85.1117 137.324 85.9248 137.324 86.8775ZM132.568 86.8775C132.568 87.6823 132.626 88.3517 132.741 88.8855C132.864 89.4193 133.057 89.8217 133.32 90.0928C133.591 90.3556 133.948 90.487 134.392 90.487C134.835 90.487 135.188 90.3556 135.451 90.0928C135.722 89.83 135.919 89.4316 136.042 88.8978C136.166 88.3558 136.227 87.6823 136.227 86.8775C136.227 86.0726 136.166 85.4074 136.042 84.8818C135.919 84.348 135.722 83.9496 135.451 83.6868C135.188 83.4158 134.835 83.2803 134.392 83.2803C133.948 83.2803 133.591 83.4158 133.32 83.6868C133.057 83.9496 132.864 84.348 132.741 84.8818C132.626 85.4074 132.568 86.0726 132.568 86.8775ZM146.837 86.8775C146.837 87.592 146.784 88.2285 146.677 88.7869C146.57 89.3454 146.398 89.8217 146.16 90.216C145.93 90.602 145.626 90.8976 145.248 91.1029C144.878 91.3083 144.431 91.4109 143.905 91.4109C143.248 91.4109 142.702 91.2302 142.267 90.8689C141.84 90.5075 141.519 89.9901 141.306 89.3167C141.101 88.635 140.998 87.8219 140.998 86.8775C140.998 85.9248 141.092 85.1117 141.281 84.4383C141.478 83.7649 141.79 83.2516 142.217 82.8984C142.645 82.5371 143.207 82.3564 143.905 82.3564C144.562 82.3564 145.108 82.5371 145.544 82.8984C145.979 83.2516 146.303 83.7649 146.517 84.4383C146.73 85.1117 146.837 85.9248 146.837 86.8775ZM142.082 86.8775C142.082 87.6823 142.139 88.3517 142.254 88.8855C142.378 89.4193 142.571 89.8217 142.833 90.0928C143.104 90.3556 143.462 90.487 143.905 90.487C144.349 90.487 144.702 90.3556 144.965 90.0928C145.236 89.83 145.433 89.4316 145.556 88.8978C145.679 88.3558 145.741 87.6823 145.741 86.8775C145.741 86.0726 145.679 85.4074 145.556 84.8818C145.433 84.348 145.236 83.9496 144.965 83.6868C144.702 83.4158 144.349 83.2803 143.905 83.2803C143.462 83.2803 143.104 83.4158 142.833 83.6868C142.571 83.9496 142.378 84.348 142.254 84.8818C142.139 85.4074 142.082 86.0726 142.082 86.8775ZM167.679 86.8775C167.679 87.592 167.625 88.2285 167.518 88.7869C167.412 89.3454 167.239 89.8217 167.001 90.216C166.771 90.602 166.467 90.8976 166.089 91.1029C165.72 91.3083 165.272 91.4109 164.747 91.4109C164.09 91.4109 163.543 91.2302 163.108 90.8689C162.681 90.5075 162.361 89.9901 162.147 89.3167C161.942 88.635 161.839 87.8219 161.839 86.8775C161.839 85.9248 161.934 85.1117 162.123 84.4383C162.32 83.7649 162.632 83.2516 163.059 82.8984C163.486 82.5371 164.049 82.3564 164.747 82.3564C165.404 82.3564 165.95 82.5371 166.385 82.8984C166.82 83.2516 167.145 83.7649 167.358 84.4383C167.572 85.1117 167.679 85.9248 167.679 86.8775ZM162.923 86.8775C162.923 87.6823 162.981 88.3517 163.096 88.8855C163.219 89.4193 163.412 89.8217 163.675 90.0928C163.946 90.3556 164.303 90.487 164.747 90.487C165.19 90.487 165.543 90.3556 165.806 90.0928C166.077 89.83 166.274 89.4316 166.397 88.8978C166.521 88.3558 166.582 87.6823 166.582 86.8775C166.582 86.0726 166.521 85.4074 166.397 84.8818C166.274 84.348 166.077 83.9496 165.806 83.6868C165.543 83.4158 165.19 83.2803 164.747 83.2803C164.303 83.2803 163.946 83.4158 163.675 83.6868C163.412 83.9496 163.219 84.348 163.096 84.8818C162.981 85.4074 162.923 86.0726 162.923 86.8775ZM177.192 86.8775C177.192 87.592 177.139 88.2285 177.032 88.7869C176.925 89.3454 176.753 89.8217 176.515 90.216C176.285 90.602 175.981 90.8976 175.603 91.1029C175.233 91.3083 174.786 91.4109 174.26 91.4109C173.603 91.4109 173.057 91.2302 172.622 90.8689C172.195 90.5075 171.874 89.9901 171.661 89.3167C171.456 88.635 171.353 87.8219 171.353 86.8775C171.353 85.9248 171.447 85.1117 171.636 84.4383C171.833 83.7649 172.145 83.2516 172.573 82.8984C173 82.5371 173.562 82.3564 174.26 82.3564C174.917 82.3564 175.463 82.5371 175.899 82.8984C176.334 83.2516 176.658 83.7649 176.872 84.4383C177.085 85.1117 177.192 85.9248 177.192 86.8775ZM172.437 86.8775C172.437 87.6823 172.494 88.3517 172.609 88.8855C172.733 89.4193 172.926 89.8217 173.188 90.0928C173.459 90.3556 173.817 90.487 174.26 90.487C174.704 90.487 175.057 90.3556 175.32 90.0928C175.591 89.83 175.788 89.4316 175.911 88.8978C176.034 88.3558 176.096 87.6823 176.096 86.8775C176.096 86.0726 176.034 85.4074 175.911 84.8818C175.788 84.348 175.591 83.9496 175.32 83.6868C175.057 83.4158 174.704 83.2803 174.26 83.2803C173.817 83.2803 173.459 83.4158 173.188 83.6868C172.926 83.9496 172.733 84.348 172.609 84.8818C172.494 85.4074 172.437 86.0726 172.437 86.8775ZM186.706 86.8775C186.706 87.592 186.652 88.2285 186.546 88.7869C186.439 89.3454 186.266 89.8217 186.028 90.216C185.798 90.602 185.494 90.8976 185.117 91.1029C184.747 91.3083 184.299 91.4109 183.774 91.4109C183.117 91.4109 182.571 91.2302 182.135 90.8689C181.708 90.5075 181.388 89.9901 181.175 89.3167C180.969 88.635 180.867 87.8219 180.867 86.8775C180.867 85.9248 180.961 85.1117 181.15 84.4383C181.347 83.7649 181.659 83.2516 182.086 82.8984C182.513 82.5371 183.076 82.3564 183.774 82.3564C184.431 82.3564 184.977 82.5371 185.412 82.8984C185.848 83.2516 186.172 83.7649 186.386 84.4383C186.599 85.1117 186.706 85.9248 186.706 86.8775ZM181.951 86.8775C181.951 87.6823 182.008 88.3517 182.123 88.8855C182.246 89.4193 182.439 89.8217 182.702 90.0928C182.973 90.3556 183.33 90.487 183.774 90.487C184.217 90.487 184.57 90.3556 184.833 90.0928C185.104 89.83 185.301 89.4316 185.425 88.8978C185.548 88.3558 185.609 87.6823 185.609 86.8775C185.609 86.0726 185.548 85.4074 185.425 84.8818C185.301 84.348 185.104 83.9496 184.833 83.6868C184.57 83.4158 184.217 83.2803 183.774 83.2803C183.33 83.2803 182.973 83.4158 182.702 83.6868C182.439 83.9496 182.246 84.348 182.123 84.8818C182.008 85.4074 181.951 86.0726 181.951 86.8775ZM196.219 86.8775C196.219 87.592 196.166 88.2285 196.059 88.7869C195.952 89.3454 195.78 89.8217 195.542 90.216C195.312 90.602 195.008 90.8976 194.63 91.1029C194.261 91.3083 193.813 91.4109 193.287 91.4109C192.63 91.4109 192.084 91.2302 191.649 90.8689C191.222 90.5075 190.902 89.9901 190.688 89.3167C190.483 88.635 190.38 87.8219 190.38 86.8775C190.38 85.9248 190.475 85.1117 190.663 84.4383C190.861 83.7649 191.173 83.2516 191.6 82.8984C192.027 82.5371 192.589 82.3564 193.287 82.3564C193.944 82.3564 194.491 82.5371 194.926 82.8984C195.361 83.2516 195.686 83.7649 195.899 84.4383C196.113 85.1117 196.219 85.9248 196.219 86.8775ZM191.464 86.8775C191.464 87.6823 191.522 88.3517 191.637 88.8855C191.76 89.4193 191.953 89.8217 192.216 90.0928C192.487 90.3556 192.844 90.487 193.287 90.487C193.731 90.487 194.084 90.3556 194.347 90.0928C194.618 89.83 194.815 89.4316 194.938 88.8978C195.061 88.3558 195.123 87.6823 195.123 86.8775C195.123 86.0726 195.061 85.4074 194.938 84.8818C194.815 84.348 194.618 83.9496 194.347 83.6868C194.084 83.4158 193.731 83.2803 193.287 83.2803C192.844 83.2803 192.487 83.4158 192.216 83.6868C191.953 83.9496 191.76 84.348 191.637 84.8818C191.522 85.4074 191.464 86.0726 191.464 86.8775Z" fill="white"/>
</g>
<defs>
<linearGradient id="paint0_linear_464_39022" x1="192.723" y1="104.888" x2="184.195" y2="104.888" gradientUnits="userSpaceOnUse">
<stop stop-color="#1F5CD7"/>
<stop offset="1" stop-color="#02AEFF"/>
</linearGradient>
<clipPath id="clip0_464_39022">
<rect x="0.288086" y="0.500122" width="207.967" height="127" rx="9.08042" fill="white"/>
</clipPath>
</defs>
</svg>
